<svg xmlns="http://www.w3.org/2000/svg" xml:space="preserve"
    style="shape-rendering:geometricPrecision;text-rendering:geometricPrecision;image-rendering:optimizeQuality;fill-rule:evenodd;clip-rule:evenodd"
    viewBox="0 0 512 512">
    <defs>
        <style>
            .fil1 {
                fill: #B4D070 !important
            }
        </style>
    </defs>
    <g id="Layer_x0020_1">
        <path
            d="M306.238 431.804h-1.667v20.414c-1.25 6.665-7.081 11.248-14.58 11.248H221.67c-7.5 0-13.332-5-13.332-11.248v-20.414c-15.944 0-11.296-14.998-2.916-14.998h19.996c8.878 0 11.956 14.998-2.082 14.998v17.081h66.238v-17.081c-16.787 0-11.515-14.998-3.333-14.998h19.997c10.071 0 9.596 14.998 0 14.998zm125.813 80.404H79.61a7.468 7.468 0 0 1-7.499-7.499V117.69a7.48 7.48 0 0 1 1.798-4.89L127.102 3.96c1.25-2.5 3.75-4.167 6.666-4.167H378.31c2.917 0 5.416 1.666 6.667 4.165l54.158 110.815c.901 1.504.935 3.44.416 5.184v384.752c-.417 4.166-3.333 7.499-7.5 7.499zM87.109 368.065h337.443V254.334H87.109v113.73zm0 129.563h337.86V383.063H87.109v114.565zm0-258.29h337.443V125.19H87.109v114.148zm4.166-128.73h329.112L373.31 14.374H138.35L91.274 110.61zm292.867-15.414H127.518c-6.018 0-8.903-6.276-6.666-10.415l24.578-50.825c1.25-2.5 3.75-4.166 6.667-4.166h207.049c2.916 0 5.415 1.667 6.666 4.166l24.579 50.825c2.273 4.207-.818 10.415-6.25 10.415zm-244.958-14.58h233.293L354.98 44.368h-198.3l-17.496 36.244zm150.807 124.98H221.67c-7.5 0-13.331-5-13.331-11.248v-20.832c-15.945 0-11.297-14.997-2.917-14.997h19.997c8.877 0 11.955 14.997-2.083 14.997v17.499h66.238v-17.499c-16.787 0-11.515-14.997-3.333-14.997h19.997c9.261 0 11.267 14.997-1.667 14.997v20.832c-1.25 6.248-7.081 11.247-14.58 11.247zm0 129.143H221.67c-7.5 0-13.331-5-13.331-11.664v-19.998c-15.945 0-11.297-14.997-2.917-14.997h19.997c8.877 0 11.955 14.997-2.083 14.997v17.082h66.238v-17.081c-16.787 0-11.515-14.998-3.333-14.998h19.997c9.261 0 11.267 14.997-1.667 14.997v19.998c-1.25 6.665-7.081 11.664-14.58 11.664z"
            style="fill:#222222" />
        <path
            d="M286.241 158.516h19.997c9.261 0 11.267 14.998-1.666 14.998v20.83c-1.25 6.249-7.082 11.249-14.581 11.249H221.67c-7.499 0-13.331-5-13.331-11.248v-20.831c-15.945 0-11.296-14.998-2.916-14.998h19.996c8.877 0 11.955 14.998-2.083 14.998v17.498h66.238v-17.498c-16.787 0-11.515-14.998-3.333-14.998zm-199.132 80.82h337.443V125.19H87.109v114.148zm337.443 14.997H87.109v113.731h337.443V254.333zm-119.98 48.742v19.997c-1.25 6.665-7.082 11.665-14.58 11.665H221.67c-7.499 0-13.331-5-13.331-11.665v-19.997c-15.945 0-11.296-14.998-2.916-14.998h19.996c8.877 0 11.955 14.998-2.082 14.998v17.081h66.237v-17.081c-16.787 0-11.514-14.998-3.333-14.998h19.997c9.262 0 11.267 14.998-1.666 14.998zm120.397 79.987H87.109v114.565h337.86V383.062zm-120.397 48.742v20.414c-1.25 6.665-7.082 11.248-14.58 11.248H221.67c-7.499 0-13.331-5-13.331-11.248v-20.414c-15.945 0-11.296-14.998-2.916-14.998h19.996c8.877 0 11.955 14.998-2.082 14.998v17.081h66.237v-17.081c-16.787 0-11.514-14.998-3.333-14.998h19.997c10.072 0 9.597 14.998 0 14.998h-1.666z"
            class="fil1" />
        <path d="M139.184 80.613h233.293L354.98 44.368H156.681z" style="fill:#f9f9f9" />
        <path
            d="M384.142 95.194H127.518c-6.018 0-8.903-6.277-6.666-10.415l24.579-50.826c1.25-2.499 3.748-4.166 6.666-4.166h207.049c2.916 0 5.415 1.667 6.666 4.166l24.579 50.826c2.273 4.207-.818 10.415-6.25 10.415zM91.275 110.608h329.112l-47.075-96.235H138.35l-47.076 96.235z"
            class="fil1" />
    </g>
</svg>