<svg xmlns="http://www.w3.org/2000/svg" xml:space="preserve"
    style="shape-rendering:geometricPrecision;text-rendering:geometricPrecision;image-rendering:optimizeQuality;fill-rule:evenodd;clip-rule:evenodd"
    viewBox="0 0 512 512">
    <defs>
        <style>
            .fil1 {
                fill: #222222
            }

            .fil2 {
                fill: #B4D070
            }
        </style>
    </defs>
    <g id="Layer_x0020_1">
        <path
            d="M397.841 481.871H54.325c-3.9 0-7-3.1-7-7V6.873c0-3.9 3.1-7 7-7h284.208c2.555-.145 4.342.524 6.086 2.396l87.3 87.299a6.968 6.968 0 0 1 2.405 5.304v350.1l23 22.999c15.039 15.039 6.06 44.2-18.1 44.2-5.926 0-15.947-3.263-18.9-7.4l-22.483-22.9zm-96.049-129h-20.27l-6.698 16.6c-3.464 8.542-16.414 3.416-13-5.2l22.688-56.228c2.374-7.14 11.036-6.658 13.4-.526l23.812 56.554c3.558 8.497-9.192 14.07-12.9 5.5l-7.032-16.7zm-14.62-14h8.725l-4.456-10.582-4.27 10.581zm-6.849 76.001c-8.896 0-7-10.801-7-18h-26.999c-8.1 0-15-7.3-15-16v-90c0-7.901 7.1-15 15-15h91c7.9 0 15 7.099 15 15v90c0 8.7-6.9 16-15 16h-31.601c-3.308 1.14-19.672 18-25.4 18zm-33.899-32h33.9c7.188 0 7 6.736 7 10.6 4.703-3.658 11.999-10.6 16-10.6h33.9c.3-.101 1.099-.9 1.099-2v-89.9c-.1-.4-.7-1-1.1-1.1h-90.799c-.4.1-1 .7-1.1 1.1v89.9c0 1.1.8 1.9 1.1 2zm90.9-93zm37.328 141.449-12.372-11.809c-20.083 17.705-45.268 26.56-70.456 26.56a107.032 107.032 0 0 1-35.93-6.201H98.325c-9.232 0-9.232-14 0-14h130.992c-15.956-11.561-28.28-27.198-35.755-45H98.325c-9.233 0-9.233-14 0-14h90.47a107.501 107.501 0 0 1-2.124-45H98.325c-9.232 0-9.232-14 0-14h91.646c5.262-17.101 14.84-32.963 28.616-46H98.326c-9.233 0-9.233-14 0-14l138.637.002c16.43-9.914 35.264-15.2 54.862-15.2 91.148 0 140.429 108.146 80.335 176.91l12.207 11.652c15.173-15.758 11.414-14.808 35.958 9.736V101.874h-81c-3.9 0-7.001-3.1-7.001-7v-81l-270.998-.001v453.998l322.77.001c-24.51-24.965-24.853-20.549-9.443-36.55zm48.545 22.225-25.774-25.774-16.3 17 49 50c5.2 4.399 12.7 4.5 17.1.3 4.4-5.201 4.5-12.9.2-17.3l-24.226-24.226zm29.126 46.325zM291.824 246.572c-82.435 0-123.468 100.43-65.598 158.3 35.264 35.263 94.59 36.507 131.099 0 58.31-58.312 16.407-158.3-65.501-158.3zm-70.499 22.3zm20-184h-143c-9.233 0-9.233-14.001 0-14.001h143c9.231 0 9.234 14 0 14zm141.998 59h-285c-9.232 0-9.232-14 0-14h285c9.233 0 9.233 14 0 14zm0 59h-285c-9.232 0-9.232-14 0-14h285c9.231 0 9.234 14 0 14zm-37-115h64.1l-64.1-64.1v64.1z"
            style="fill:#222222" />
        <path
            d="m297.912 307.516 23.812 56.555c3.559 8.497-9.191 14.07-12.9 5.5l-7.03-16.7h-20.27l-6.699 16.6c-3.464 8.542-16.414 3.416-13-5.2l22.688-56.228c2.374-7.141 11.036-6.658 13.4-.527zm-10.587 85.955c4.703-3.658 11.998-10.6 16-10.6h33.899c.3-.1 1.1-.9 1.1-2v-89.9c-.1-.4-.7-1-1.1-1.1h-90.799c-.4.1-1 .7-1.1 1.1v89.9c0 1.1.8 1.9 1.1 2h33.9c7.187 0 7 6.737 7 10.6z"
            class="fil1" />
        <path d="m295.898 338.871-4.457-10.583-4.269 10.582z" class="fil1" />
        <path
            d="M246.324 275.871h91c7.9 0 15 7.1 15 15v90c0 8.7-6.9 16-15 16h-31.601c-3.308 1.14-19.672 18-25.4 18-8.896 0-7-10.8-7-18h-26.999c-8.1 0-15-7.3-15-16v-90c0-7.9 7.1-15 15-15zm-20.099 129c35.264 35.264 94.591 36.508 131.1 0 58.31-58.311 16.407-158.299-65.502-158.299-82.435 0-123.468 100.429-65.598 158.299zm171.198 22.901-16.3 17 49 50c5.2 4.4 12.7 4.5 17.1.3 4.4-5.2 4.5-12.9.2-17.3l-24.226-24.226-25.774-25.774z"
            class="fil2" />
        <path
            d="M384.366 421.234c15.172-15.758 11.414-14.807 35.958 9.736V101.873h-81c-3.9 0-7.001-3.1-7.001-7v-81H61.325V467.87l322.77.001c-24.51-24.965-24.853-20.549-9.443-36.55l-12.372-11.809c-20.084 17.705-45.268 26.56-70.457 26.56a107.032 107.032 0 0 1-35.929-6.201H98.324c-9.232 0-9.232-14.001 0-14.001l130.991.001c-15.955-11.562-28.279-27.198-35.754-45H98.325c-9.233 0-9.233-14 0-14h90.469a107.501 107.501 0 0 1-2.124-45H98.325c-9.233 0-9.233-14 0-14h91.645c5.262-17.102 14.841-32.963 28.616-46H98.326c-9.234 0-9.234-14 0-14l138.636.002c16.43-9.914 35.265-15.2 54.863-15.2 91.148 0 140.429 108.146 80.335 176.91l12.207 11.652zm-1.043-218.362H98.324c-9.233 0-9.233-14 0-14h285c9.23 0 9.233 14 0 14zm0-59H98.324c-9.233 0-9.233-14 0-14h285c9.232 0 9.232 14 0 14zm-141.998-59h-143c-9.233 0-9.233-14.002 0-14.002l143 .002c9.232 0 9.234 14 0 14z"
            class="fil2" />
        <path d="M346.324 87.872h64.1l-64.1-64.1z" class="fil2" />
    </g>
</svg>