<?xml version="1.0" encoding="UTF-8" standalone="no"?> <svg width="48" height="48" viewBox="0 0 48 48" fill="none" xmlns="http://www.w3.org/2000/svg">
<path d="M11 42H5C4.20435 42 3.44129 41.6839 2.87868 41.1213C2.31607 40.5587 2 39.7956 2 39V9C2 8.20435 2.31607 7.44129 2.87868 6.87868C3.44129 6.31607 4.20435 6 5 6H11C11.7956 6 12.5587 6.31607 13.1213 6.87868C13.6839 7.44129 14 8.20435 14 9V39C14 39.7956 13.6839 40.5587 13.1213 41.1213C12.5587 41.6839 11.7956 42 11 42ZM5 8C4.73478 8 4.48043 8.10536 4.29289 8.29289C4.10536 8.48043 4 8.73478 4 9V39C4 39.2652 4.10536 39.5196 4.29289 39.7071C4.48043 39.8946 4.73478 40 5 40H11C11.2652 40 11.5196 39.8946 11.7071 39.7071C11.8946 39.5196 12 39.2652 12 39V9C12 8.73478 11.8946 8.48043 11.7071 8.29289C11.5196 8.10536 11.2652 8 11 8H5Z" fill="black"/>
<path d="M10 14H6C5.73478 14 5.48043 13.8946 5.29289 13.7071C5.10536 13.5196 5 13.2652 5 13C5 12.7348 5.10536 12.4804 5.29289 12.2929C5.48043 12.1054 5.73478 12 6 12H10C10.2652 12 10.5196 12.1054 10.7071 12.2929C10.8946 12.4804 11 12.7348 11 13C11 13.2652 10.8946 13.5196 10.7071 13.7071C10.5196 13.8946 10.2652 14 10 14Z" fill="black"/>
<path d="M10 36H6C5.73478 36 5.48043 35.8946 5.29289 35.7071C5.10536 35.5196 5 35.2652 5 35C5 34.7348 5.10536 34.4804 5.29289 34.2929C5.48043 34.1054 5.73478 34 6 34H10C10.2652 34 10.5196 34.1054 10.7071 34.2929C10.8946 34.4804 11 34.7348 11 35C11 35.2652 10.8946 35.5196 10.7071 35.7071C10.5196 35.8946 10.2652 36 10 36Z" fill="black"/>
<path d="M24 42H18C17.2044 42 16.4413 41.6839 15.8787 41.1213C15.3161 40.5587 15 39.7956 15 39V9C15 8.20435 15.3161 7.44129 15.8787 6.87868C16.4413 6.31607 17.2044 6 18 6H24C24.7956 6 25.5587 6.31607 26.1213 6.87868C26.6839 7.44129 27 8.20435 27 9V39C27 39.7956 26.6839 40.5587 26.1213 41.1213C25.5587 41.6839 24.7956 42 24 42ZM18 8C17.7348 8 17.4804 8.10536 17.2929 8.29289C17.1054 8.48043 17 8.73478 17 9V39C17 39.2652 17.1054 39.5196 17.2929 39.7071C17.4804 39.8946 17.7348 40 18 40H24C24.2652 40 24.5196 39.8946 24.7071 39.7071C24.8946 39.5196 25 39.2652 25 39V9C25 8.73478 24.8946 8.48043 24.7071 8.29289C24.5196 8.10536 24.2652 8 24 8H18Z" fill="black"/>
<path d="M23 14H19C18.7348 14 18.4804 13.8946 18.2929 13.7071C18.1054 13.5196 18 13.2652 18 13C18 12.7348 18.1054 12.4804 18.2929 12.2929C18.4804 12.1054 18.7348 12 19 12H23C23.2652 12 23.5196 12.1054 23.7071 12.2929C23.8946 12.4804 24 12.7348 24 13C24 13.2652 23.8946 13.5196 23.7071 13.7071C23.5196 13.8946 23.2652 14 23 14Z" fill="black"/>
<path d="M23 36H19C18.7348 36 18.4804 35.8946 18.2929 35.7071C18.1054 35.5196 18 35.2652 18 35C18 34.7348 18.1054 34.4804 18.2929 34.2929C18.4804 34.1054 18.7348 34 19 34H23C23.2652 34 23.5196 34.1054 23.7071 34.2929C23.8946 34.4804 24 34.7348 24 35C24 35.2652 23.8946 35.5196 23.7071 35.7071C23.5196 35.8946 23.2652 36 23 36Z" fill="black"/>
<path d="M38.2 42C37.5406 41.9984 36.9 41.7796 36.3774 41.3774C35.8549 40.9752 35.4794 40.4121 35.309 39.775L27.542 10.8C27.3361 10.0315 27.4439 9.21277 27.8417 8.52378C28.2394 7.83479 28.8946 7.332 29.663 7.126L35.458 5.573C36.2265 5.36931 37.0444 5.47805 37.733 5.87547C38.4216 6.27288 38.9249 6.92667 39.133 7.694L46.9 36.67C47.1059 37.4385 46.9981 38.2572 46.6003 38.9462C46.2026 39.6352 45.5474 40.138 44.779 40.344L38.98 41.9C38.7255 41.9671 38.4632 42.0007 38.2 42ZM36.234 7.469C36.1469 7.46905 36.0602 7.48048 35.976 7.503L30.181 9.056C30.054 9.0899 29.9349 9.14851 29.8306 9.22847C29.7263 9.30843 29.6387 9.40818 29.573 9.522C29.5067 9.6353 29.4636 9.76073 29.4465 9.8909C29.4293 10.0211 29.4383 10.1534 29.473 10.28L37.237 39.258C37.271 39.3849 37.3297 39.5038 37.4096 39.608C37.4896 39.7122 37.5893 39.7996 37.7031 39.8652C37.8168 39.9309 37.9424 39.9735 38.0726 39.9906C38.2028 40.0077 38.3351 39.999 38.462 39.965L44.262 38.413C44.389 38.379 44.508 38.3203 44.6123 38.2403C44.7165 38.1603 44.804 38.0604 44.8697 37.9466C44.9353 37.8327 44.9779 37.707 44.995 37.5767C45.012 37.4463 45.0032 37.3139 44.969 37.187L37.2 8.21C37.143 7.99739 37.0174 7.80953 36.8428 7.67555C36.6681 7.54158 36.4541 7.46897 36.234 7.469V7.469Z" fill="black"/>
<path d="M32.439 14.627C32.1965 14.6266 31.9624 14.5381 31.7803 14.378C31.5981 14.2179 31.4804 13.9971 31.449 13.7566C31.4175 13.5162 31.4746 13.2725 31.6094 13.0709C31.7443 12.8694 31.9477 12.7237 32.182 12.661L36.046 11.625C36.1731 11.5903 36.3057 11.5812 36.4364 11.5979C36.567 11.6147 36.6931 11.6571 36.8073 11.7228C36.9215 11.7884 37.0216 11.8759 37.1018 11.9804C37.1821 12.0848 37.241 12.204 37.275 12.3313C37.3091 12.4585 37.3176 12.5912 37.3003 12.7218C37.2829 12.8524 37.2399 12.9782 37.1737 13.0921C37.1075 13.206 37.0195 13.3057 36.9147 13.3855C36.8099 13.4652 36.6904 13.5235 36.563 13.557L32.7 14.592C32.615 14.6154 32.5272 14.6272 32.439 14.627V14.627Z" fill="black"/>
<path d="M38.134 35.877C37.8914 35.8769 37.6571 35.7886 37.4748 35.6285C37.2925 35.4685 37.1746 35.2476 37.143 35.0071C37.1115 34.7666 37.1684 34.5228 37.3033 34.3211C37.4381 34.1195 37.6417 33.9737 37.876 33.911L41.739 32.876C41.9952 32.8073 42.2682 32.8432 42.4979 32.9758C42.7277 33.1084 42.8953 33.3268 42.964 33.583C43.0327 33.8392 42.9968 34.1122 42.8642 34.3419C42.7316 34.5717 42.5132 34.7393 42.257 34.808L38.394 35.843C38.3092 35.8655 38.2218 35.877 38.134 35.877V35.877Z" fill="black"/>
</svg>
