<svg xmlns="http://www.w3.org/2000/svg" xml:space="preserve"
    style="shape-rendering:geometricPrecision;text-rendering:geometricPrecision;image-rendering:optimizeQuality;fill-rule:evenodd;clip-rule:evenodd"
    viewBox="0 0 512 512">
    <path
        d="M123.122 498.854c-3.832 0-6.998-3.105-6.998-7V355.239H26.53C11.903 355.238 0 343.336 0 328.707V39.677c0-14.63 11.9-26.532 26.53-26.532h458.935c14.63 0 26.531 11.902 26.531 26.532v289.03c0 14.629-11.902 26.53-26.53 26.53H269.638L128.073 496.806a7 7 0 0 1-4.951 2.049zm289.599-386.759H99.278c-9.215 0-9.215-14 0-14h313.443c9.216 0 9.217 14 0 14zm-60.06 52.73H99.279c-9.215 0-9.215-14 0-14h253.384c9.217 0 9.216 14 0 14zm60.06 52.732H99.278c-9.215 0-9.215-14 0-14h313.443c9.216 0 9.217 14 0 14zm-60.06 52.732H99.279c-9.215 0-9.215-14 0-14h253.384c9.216 0 9.217 14 0 14zM26.53 27.145c-6.908 0-12.53 5.622-12.53 12.531v289.03c0 6.91 5.621 12.53 12.53 12.53l96.593.002a7 7 0 0 1 7 7v126.717L261.79 343.288a6.995 6.995 0 0 1 4.95-2.051h218.726c6.91 0 12.532-5.62 12.532-12.53V39.676c0-6.911-5.622-12.532-12.532-12.532H26.531z"
        style="fill:#222222" />
    <path
        d="M130.122 348.237v126.718l131.669-131.667a6.995 6.995 0 0 1 4.949-2.052l218.727.002c6.91 0 12.531-5.621 12.531-12.532V39.676c0-6.91-5.622-12.531-12.531-12.531H26.53c-6.908 0-12.53 5.622-12.53 12.531v289.03c0 6.91 5.622 12.53 12.53 12.53l96.593.002a7 7 0 0 1 7 6.999zm222.539-77.948H99.277c-9.215 0-9.215-14 0-14h253.384c9.216 0 9.217 14 0 14zm60.06-52.732H99.276c-9.215 0-9.215-14 0-14H412.72c9.216 0 9.218 14 0 14zm-60.06-52.732H99.277c-9.215 0-9.215-14 0-14h253.384c9.217 0 9.216 14 0 14zm60.06-52.73H99.276c-9.215 0-9.215-14 0-14H412.72c9.216 0 9.218 14 0 14z"
        style="fill:#B4D070" />
</svg>