<svg xmlns="http://www.w3.org/2000/svg" id="Layer_1" data-name="Layer 1" viewBox="0 0 64 64">
  <defs>
    <style>
      .cls-1 {
        fill: #337DBE
      }
    </style>
  </defs>
  <path d="M48.43 3.54v24.38c-1.25-.14-2.51-.14-3.76 0V4.66H7.51v49.97h24c.27.66.58 1.31.94 1.94.36.63.77 1.24 1.21 1.82H6.39c-1.45 0-2.63-1.18-2.63-2.63V3.54C3.76 2.09 4.94.91 6.39.91h39.4c1.45 0 2.63 1.18 2.63 2.63Z" class="cls-1"/>
  <path d="M24.29 12.43h9.24c.56 0 1.02-.46 1.02-1.01s-.46-1.02-1.02-1.02h-9.24c-.56 0-1.02.46-1.02 1.02s.46 1.01 1.02 1.01ZM40.7 16.53H24.29c-.56 0-1.02.46-1.02 1.02s.46 1.01 1.02 1.01H40.7c.56 0 1.02-.46 1.02-1.01s-.46-1.02-1.02-1.02ZM24.29 27.59h9.24a1.016 1.016 0 0 0 0-2.03h-9.24c-.56 0-1.02.46-1.02 1.01s.46 1.02 1.02 1.02ZM33.94 31.69a9.67 9.67 0 0 0-1.77 1.84c-.05.06-.09.13-.14.19h-7.75c-.56 0-1.01-.46-1.01-1.02s.47-1.02 1.01-1.02h9.65ZM30.31 40.72v2.03h-6.03c-.56 0-1.01-.46-1.01-1.02s.46-1.02 1.01-1.02h6.03ZM30.32 48.89h-6.03c-.56 0-1.01-.45-1.01-1.01s.47-1.02 1.01-1.02h6.03v2.03ZM16.51 38.77c-3.33 0-6.03 2.71-6.03 6.03s2.71 6.04 6.03 6.04 6.04-2.71 6.04-6.04-2.71-6.03-6.04-6.03Zm3.06 5.24-3.13 3.13c-.21.21-.48.32-.77.32s-.56-.11-.77-.32l-1.45-1.45a1.08 1.08 0 0 1 0-1.54 1.09 1.09 0 0 1 1.54 0l.67.67 2.37-2.36c.43-.42 1.11-.42 1.54 0 .42.42.42 1.11 0 1.54ZM16.51 23.61c-3.33 0-6.03 2.71-6.03 6.03s2.71 6.04 6.03 6.04 6.04-2.71 6.04-6.04-2.71-6.03-6.04-6.03Zm3.06 5.24-3.13 3.13c-.21.21-.48.32-.77.32s-.56-.11-.77-.32l-1.45-1.45a1.08 1.08 0 0 1 0-1.54 1.09 1.09 0 0 1 1.54 0l.67.67 2.37-2.36c.43-.42 1.11-.42 1.54 0 .42.43.42 1.12 0 1.54ZM16.51 8.44c-3.33 0-6.03 2.71-6.03 6.03s2.71 6.04 6.03 6.04 6.04-2.71 6.04-6.04-2.71-6.03-6.04-6.03Zm3.06 5.24-3.13 3.13c-.21.21-.48.32-.77.32s-.56-.11-.77-.32l-1.45-1.45a1.08 1.08 0 0 1 0-1.54 1.09 1.09 0 0 1 1.54 0l.67.67 2.37-2.36c.43-.42 1.11-.42 1.54 0 .42.42.42 1.11 0 1.54Z" class="cls-1"/>
  <path d="M58.88 35.07a7.006 7.006 0 0 0-3.55-2.55l-4.63-1.46c-1.33-.42-2.72-.64-4.12-.64s-2.79.21-4.12.64l-4.63 1.46a6.964 6.964 0 0 0-3.55 2.55 6.997 6.997 0 0 0-1.36 4.16v9.25c0 2.37.63 4.72 1.8 6.78 1.18 2.06 2.89 3.79 4.94 5 .56.33 3.47 1.65 5.32 2.49 1 .45 2.14.46 3.15.03 1.69-.72 4.27-1.86 5.37-2.51a13.69 13.69 0 0 0 4.92-4.99 13.71 13.71 0 0 0 1.82-6.79v-9.25c0-1.51-.47-2.94-1.36-4.16ZM42.86 52.23l-3.1-3.1c-.32-.32-.55-.74-.58-1.19a1.855 1.855 0 0 1 3.16-1.48l1.83 1.83 6.65-6.65c.16-.17.36-.32.58-.4.75-.29 1.53-.12 2.05.4.72.72.72 1.9 0 2.63l-7.96 7.97c-.22.21-.48.39-.78.47-.69.19-1.38 0-1.85-.47Z" style="fill:#337DBE"/>
</svg>