
<svg xmlns="http://www.w3.org/2000/svg" xmlns:xlink="http://www.w3.org/1999/xlink" version="1.1" xmlns:dc="http://purl.org/dc/elements/1.1/" viewBox="-153 -15 1124 1676">
  <defs>
    <marker orient="auto" overflow="visible" markerUnits="strokeWidth" id="FilledArrow_Marker" stroke-linejoin="miter" stroke-miterlimit="10" viewBox="-1 -3 6 6" markerWidth="6" markerHeight="6" color="#199ce8">
      <g>
        <path d="M 3.7333333 0 L 0 -1.4 L 0 1.4 Z" fill="currentColor" stroke="currentColor" stroke-width="1"/>
      </g>
    </marker>
    <marker orient="auto" overflow="visible" markerUnits="strokeWidth" id="Arrow_Marker" stroke-linejoin="miter" stroke-miterlimit="10" viewBox="-1 -4 10 8" markerWidth="10" markerHeight="8" color="black">
      <g>
        <path d="M 8 0 L 0 -3 L 0 3 Z" fill="none" stroke="currentColor" stroke-width="1"/>
      </g>
    </marker>
  </defs>
  <g id="Canvas_1" stroke-dasharray="none" stroke="none" fill="none" fill-opacity="1" stroke-opacity="1">
    <title>Canvas 1</title>
    <g id="Canvas_1_Page_ready">
      <title>Page ready</title>
      <g id="Graphic_23">
        <title>Rectangle</title>
        <rect x="333.93783" y="1579" width="149" height="75" fill="#dde9f5"/>
        <path d="M 333.3169 1578.9962 L 483.29474 1579.9168 M 482.3381 1579.3577 L 482.1077 1655.2314 M 482.90317 1654.3333 L 333.02022 1654.504 M 334.8241 1656.2133 L 333.9273 1578.0813 M 333.5678 1578.6018 L 482.58755 1579.4727 M 482.5961 1579.1077 L 482.46164 1654.0846 M 483.1533 1654.194 L 335.05455 1654.3304 M 334.9729 1655.9645 L 334.0799 1578.7512" stroke="#199ce8" stroke-linecap="round" stroke-linejoin="round" stroke-width="4"/>
        <text transform="translate(338.93783 1597.5)" fill="black">
          <tspan font-family="Verdana" font-size="16" fill="black" x="13.785156" y="16">Page ready to </tspan>
          <tspan font-family="Verdana" font-size="16" fill="black" x="51.25781" y="35">view</tspan>
        </text>
      </g>
      <g id="Line_64">
        <path d="M 408.41013 1492.9472 L 409.6907 1564.7284 M 409.034 1492.5678 L 410.2472 1561.752" marker-end="url(#FilledArrow_Marker)" stroke="#199ce8" stroke-linecap="round" stroke-linejoin="round" stroke-width="3"/>
      </g>
    </g>
    <g id="Canvas_1_Connection">
      <title>Connection</title>
      <g id="Line_63">
        <path d="M 408.111 612.6608 L 405.92 625.77875 M 406.30333 622.2182 L 409.3955 683.5462 M 409.2887 679.95856 L 409.75724 733.2607 M 411.60106 729.3732 L 406.88626 734.81525 M 408.55935 612.298 L 406.87225 622.8395 M 407.00767 621.8266 L 409.75034 681.35944 M 409.85618 679.5819 L 410.47173 731.141 M 412.10914 729.1135 L 408.9052 733.0554" marker-end="url(#FilledArrow_Marker)" stroke="#199ce8" stroke-linecap="round" stroke-linejoin="round" stroke-width="3"/>
      </g>
    </g>
    <g id="Canvas_1_Client_side">
      <title>Client side</title>
      <g id="Graphic_37">
        <rect x="-147.56217" y="751" width="1112" height="741" fill="#f9f9f9"/>
        <path d="M -148.97253 750.999 L 965.052 751.8 M 964.1656 750.5972 L 963.2394 1494.0582 M 965.718 1491.6782 L -148.49785 1490.7646 M -147.47758 1491.5426 L -147.56237 749.2379 M -148.66 750.6569 L 964.4768 751.2442 M 964.7058 750.2849 L 963.7047 1491.3639 M 966.0304 1491.5899 L -147.16524 1490.5421 M -147.2305 1491.2301 L -147.51371 750.6875" stroke="#199ce8" stroke-linecap="round" stroke-linejoin="round" stroke-width="5"/>
      </g>
      <g id="Graphic_10">
        <rect x="37.81915" y="1006" width="159" height="75" fill="#dde9f5"/><a xlink:href="https://github.com/WebOfTrust/WOT-terms/blob/main/clientModules/crossLinks.js">
          
          <path d="M 36.597915 1005.9955 L 198.76559 1006.596 M 197.58596 1005.1319 L 197.10366 1082.4174 M 199.05127 1081.1779 L 37.42312 1080.5962 M 38.293855 1082.037 L 37.81492 1005.3228 M 36.8484 1005.6141 L 197.82773 1006.1052 M 198.07517 1004.8834 L 197.49892 1080.9217 M 199.30078 1081.064 L 38.533994 1080.5953 M 38.379435 1081.7881 L 38.039297 1005.7502" stroke="#199ce8" stroke-linecap="round" stroke-linejoin="round" stroke-width="4"/>
          <text transform="translate(42.81915 1034)" fill="black">
            <tspan font-family="Verdana" font-size="16" fill="black" x="31.140625" y="16">Cross links</tspan>
          </text>
        </a>
      </g>
      <g id="Graphic_12">
        <rect x="326.81915" y="1006" width="102" height="75" fill="#dde9f5"/><a xlink:href="https://github.com/WebOfTrust/WOT-terms/blob/main/clientModules/insertVideo.js">
          
          <path d="M 324.8826 1006.0112 L 430.21334 1005.4033 M 429.0596 1004.3204 L 429.09344 1082.6196 M 429.70254 1081.6566 L 325.3044 1081.8175 M 326.8865 1083.5258 L 326.81813 1004.824 M 325.13194 1005.647 L 429.3095 1005.0656 M 429.3594 1004.0704 L 429.5903 1081.4075 M 429.95266 1081.4811 L 327.13512 1081.6315 M 326.94335 1083.2759 L 326.98882 1005.7501" stroke="#199ce8" stroke-linecap="round" stroke-linejoin="round" stroke-width="4"/>
          <text transform="translate(331.81915 1034)" fill="black">
            <tspan font-family="Verdana" font-size="16" fill="black" x=".9726562" y="16">insertVideo</tspan>
          </text>
        </a>
      </g>
      <g id="Graphic_14">
        <rect x="602.81915" y="1006" width="126" height="75" fill="#dde9f5"/><a xlink:href="https://github.com/WebOfTrust/WOT-terms/blob/main/clientModules/insertSubtitles.js">
          
          <path d="M 601.6672 1005.9979 L 729.6611 1006.2304 M 728.5381 1005.509 L 729.0795 1080.8217 M 729.8538 1080.1388 L 601.6857 1081.0365 M 602.4763 1083.0144 L 602.8266 1004.3254 M 601.9174 1005.651 L 728.7936 1005.776 M 728.8985 1005.2583 L 729.4317 1079.8935 M 730.1039 1079.9017 L 602.7361 1080.9176 M 602.50444 1082.7634 L 602.93835 1005.7494" stroke="#199ce8" stroke-linecap="round" stroke-linejoin="round" stroke-width="4"/>
          <text transform="translate(607.81915 1024.5)" fill="black">
            <tspan font-family="Verdana" font-size="16" fill="black" x="34.070312" y="16">Insert </tspan>
            <tspan font-family="Verdana" font-size="16" fill="black" x="22.85547" y="35">Subtitles</tspan>
          </text>
        </a>
      </g>
      <g id="Graphic_16">
        <rect x="777.81915" y="1006" width="134" height="75" fill="#dde9f5"/><a xlink:href="https://github.com/WebOfTrust/WOT-terms/blob/main/clientModules/dynamicTables.js">
          
          <path d="M 775.9519 1006.0134 L 912.1089 1005.039 M 911.0013 1003.1978 L 912.082 1082.5237 M 913.0051 1080.6336 L 775.567 1080.2423 M 777.0778 1081.003 L 777.8258 1005.3267 M 776.2014 1005.6837 L 911.276 1004.7364 M 911.4223 1002.9455 L 912.5231 1080.378 M 913.2545 1080.5849 L 777.3347 1080.2038 M 777.3272 1080.753 L 777.8879 1005.7482" stroke="#199ce8" stroke-linecap="round" stroke-linejoin="round" stroke-width="4"/>
          <text transform="translate(782.81915 1024.5)" fill="black">
            <tspan font-family="Verdana" font-size="16" fill="black" x="27.089844" y="16">Dynamic </tspan>
            <tspan font-family="Verdana" font-size="16" fill="black" x="36.152344" y="35">Tables</tspan>
          </text>
        </a>
      </g>
      <g id="Graphic_34">
        <rect x="-113.18085" y="1108" width="246" height="75" fill="#dde9f5"/><a xlink:href="https://github.com/WebOfTrust/WOT-terms/blob/main/clientModules/elementGoFullScreen.js">
          
          <path d="M -113.98613 1107.9987 L 134.1388 1108.4132 M 133.38522 1106.8949 L 132.88501 1183.8433 M 133.86642 1183.0102 L -115.50134 1183.1901 M -113.52104 1184.9011 L -113.17793 1107.3384 M -113.73584 1107.5741 L 133.62541 1108.1298 M 133.85151 1106.6463 L 133.3456 1182.7623 M 134.11653 1182.907 L -113.2634 1183.0294 M -113.28027 1184.651 L -113.06638 1107.7494" stroke="#199ce8" stroke-linecap="round" stroke-linejoin="round" stroke-width="4"/>
          <text transform="translate(-108.18085 1126.5)" fill="black">
            <tspan font-family="Verdana" font-size="16" fill="black" x="6.644531" y="16">make overview table go full </tspan>
            <tspan font-family="Verdana" font-size="16" fill="black" x="91.65625" y="35">screen</tspan>
          </text>
        </a>
      </g>
      <g id="Graphic_33">
        <rect x="84.81915" y="1218" width="246" height="75" fill="#dde9f5"/><a xlink:href="https://github.com/WebOfTrust/WOT-terms/blob/main/clientModules/writeChanges.js">
          
          <path d="M 83.62154 1218.0048 L 332.4149 1216.9996 M 331.6722 1215.301 L 329.8776 1294.742 M 331.5408 1293.7689 L 84.80801 1293.5801 M 85.70455 1295.1567 L 84.7972 1216.0878 M 83.87131 1217.6967 L 331.88283 1216.5246 M 331.9832 1215.0524 L 330.29986 1293.521 M 331.79075 1293.5714 L 85.93633 1293.5113 M 85.7097 1294.9095 L 84.95886 1217.7513" stroke="#199ce8" stroke-linecap="round" stroke-linejoin="round" stroke-width="4"/>
          <text transform="translate(89.81915 1246)" fill="black">
            <tspan font-family="Verdana" font-size="16" fill="black" x="11.011719" y="16">write changes to Overview</tspan>
          </text>
        </a>
      </g>
      <g id="Graphic_31">
        <rect x="483.81915" y="1234.5" width="194" height="75" fill="#dde9f5"/><a xlink:href="https://github.com/WebOfTrust/WOT-terms/blob/main/clientModules/horizontalScrollHint.js">
          
          <path d="M 481.8369 1234.4981 L 677.96715 1234.6852 M 677.1523 1234.112 L 676.91415 1311.0401 M 678.3895 1309.7879 L 481.42674 1308.8572 M 483.0735 1310.168 L 483.8331 1233.0865 M 482.08694 1234.1727 L 677.4007 1234.3142 M 677.4027 1233.862 L 677.2085 1309.531 M 678.639 1309.652 L 483.3358 1308.7251 M 483.10737 1309.9159 L 484.00933 1234.2494" stroke="#199ce8" stroke-linecap="round" stroke-linejoin="round" stroke-width="4"/>
          <text transform="translate(488.81915 1262.5)" fill="black">
            <tspan font-family="Verdana" font-size="16" fill="black" x="6.90625" y="16">Horizontal Scroll Hint</tspan>
          </text>
        </a>
      </g>
      <g id="Graphic_29">
        <rect x="634.81915" y="1135" width="246" height="75" fill="#dde9f5"/><a xlink:href="https://github.com/WebOfTrust/WOT-terms/blob/main/clientModules/showDefinitionsPopUpOnClick.js">
          
          <path d="M 633.5522 1135.0033 L 881.5194 1134.3639 M 880.6765 1133.4234 L 879.9215 1211.3379 M 881.2383 1209.7924 L 633.5454 1210.1506 M 634.4816 1211.1794 L 634.8232 1134.0851 M 633.802 1134.6606 L 880.9173 1134.1038 M 881.1163 1133.1753 L 880.3671 1209.546 M 881.4885 1209.7182 L 634.73625 1209.939 M 634.5442 1210.9286 L 635.0598 1134.75" stroke="#199ce8" stroke-linecap="round" stroke-linejoin="round" stroke-width="4"/>
          <text transform="translate(639.81915 1153.5)" fill="black">
            <tspan font-family="Verdana" font-size="16" fill="black" x="13.34375" y="16">Show inline definitions On </tspan>
            <tspan font-family="Verdana" font-size="16" fill="black" x="99.12109" y="35">Click</tspan>
          </text>
        </a>
      </g>
      <g id="Graphic_27">
        <rect x="329.6383" y="1334" width="246" height="111" fill="#dde9f5"/><a xlink:href="https://github.com/WebOfTrust/WOT-terms/blob/main/clientModules/showLevels.js">
          
          <path d="M 329.0867 1333.9988 L 576.89076 1334.5497 M 576.018 1333.2349 L 574.75356 1446.1357 M 575.9061 1444.3 L 327.9833 1445.9449 M 329.70566 1446.6908 L 329.63715 1332.0838 M 329.33694 1333.6389 L 576.2536 1334.1435 M 576.3972 1332.9863 L 575.0949 1444.0584 M 576.1577 1444.2875 L 329.95666 1445.9028 M 329.797 1446.4409 L 329.67942 1333.7501" stroke="#199ce8" stroke-linecap="round" stroke-linejoin="round" stroke-width="4"/>
          <text transform="translate(334.6383 1361)" fill="black">
            <tspan font-family="Verdana" font-size="16" fill="black" x="17.722656" y="16">Add knowledge level and</tspan>
            <tspan font-family="Verdana" font-size="16" fill="black" x="5.3671875" y="35">type category as html attrib</tspan>
            <tspan font-family="Verdana" font-size="16" fill="black" x="69.390625" y="54">to &lt;article&gt;</tspan>
          </text>
        </a>
      </g>
      <g id="Graphic_25">
        <rect x="231.81915" y="1119" width="169" height="75" fill="#dde9f5"/><a xlink:href="https://github.com/WebOfTrust/WOT-terms/blob/main/clientModules/showGPTsummary.js">
          
          <path d="M 230.48288 1119.0021 L 402.62384 1118.7279 M 401.7391 1117.0467 L 399.9594 1195.4335 M 400.9357 1194.8273 L 231.28285 1193.711 M 232.2983 1195.702 L 231.8103 1117.5825 M 230.73268 1118.625 L 401.95085 1118.4331 M 402.05775 1116.7982 L 400.4343 1194.5757 M 401.1854 1194.6263 L 232.53494 1193.6166 M 232.41839 1195.4529 L 231.91075 1118.751" stroke="#199ce8" stroke-linecap="round" stroke-linejoin="round" stroke-width="4"/>
          <text transform="translate(236.81915 1137.5)" fill="black">
            <tspan font-family="Verdana" font-size="16" fill="black" x="38.796875" y="16">Show GPT </tspan>
            <tspan font-family="Verdana" font-size="16" fill="black" x="41.753906" y="35">summary</tspan>
          </text>
        </a>
      </g>
      <g id="Graphic_40">
        <rect x="329.6383" y="786" width="246" height="75" fill="#dde9f5"/>
        <path d="M 328.187 785.9949 L 575.30124 786.8694 M 574.618 784.9608 L 575.6746 861.9497 M 577.13935 860.4687 L 328.9617 860.8377 M 330.11255 861.8671 L 329.6342 785.3423 M 328.43745 785.622 L 574.8945 786.5109 M 575.016 784.70875 L 575.9389 860.2205 M 577.38966 860.4306 L 330.35618 860.6379 M 330.2671 861.6177 L 329.85135 785.7502" stroke="#199ce8" stroke-linecap="round" stroke-linejoin="round" stroke-width="4"/>
        <text transform="translate(334.6383 814)" fill="black">
          <tspan font-family="Verdana" font-size="16" fill="black" x="16.730469" y="16">Browser (Client Modules)</tspan>
        </text>
      </g>
      <g id="Line_41">
        <path d="M 452.6132 861.4118 L 453.7746 934.8733 M 456.34145 933.9093 L 113.82446 934.5753 M 115.82022 933.3417 L 116.22937 988.3965 M 453.34695 861.0311 L 454.3746 933.5355 M 456.7166 933.6143 L 116.20462 934.3307 M 116.27936 932.966 L 116.91417 986.8885" marker-end="url(#FilledArrow_Marker)" stroke="#199ce8" stroke-linecap="round" stroke-linejoin="round" stroke-width="3"/>
      </g>
      <g id="Line_42">
        <path d="M 452.6278 862.0001 L 453.38164 933.9606 M 455.67617 933.0157 L 376.02405 933.4461 M 377.81176 930.9544 L 377.92533 1005.3725 M 453.1612 861.6235 L 454.068 932.6497 M 456.05286 932.9536 L 378.1917 933.278 M 378.4122 930.579 L 378.4796 1002.2024" stroke="#199ce8" stroke-linecap="round" stroke-linejoin="round" stroke-width="3"/>
      </g>
      <g id="Line_43">
        <path d="M 452.625 860.3386 L 452.9888 933.0478 M 450.9576 932.1404 L 668.8799 932.3026 M 667.30645 930.8171 L 667.11415 991.2985 M 453.3329 859.9619 L 453.38643 931.7667 M 451.33274 931.5945 L 667.67695 931.6275 M 668.0482 930.4433 L 667.545 988.7147" marker-end="url(#FilledArrow_Marker)" stroke="#199ce8" stroke-linecap="round" stroke-linejoin="round" stroke-width="3"/>
      </g>
      <g id="Line_44">
        <path d="M 452.6395 860.9271 L 452.59617 935.135 M 450.8477 934.256 L 846.1527 934.1661 M 844.8114 931.43 L 844.3073 990.1244 M 453.147 860.5521 L 453.0798 933.8807 M 451.2227 933.8522 L 845.1629 933.7851 M 845.3194 931.0561 L 844.9854 988.1288" marker-end="url(#FilledArrow_Marker)" stroke="#199ce8" stroke-linecap="round" stroke-linejoin="round" stroke-width="3"/>
      </g>
      <g id="Line_45">
        <path d="M 452.64085 862.5052 L 452.49376 890.9907 M 452.00483 890.7133 L 461.00704 890.5885 M 460.6329 890.0143 L 460.3666 906.0334 M 461.32416 905.6581 L 452.46793 905.934 M 452.94223 904.9799 L 453.09395 933.7842 M 453.7712 933.1158 L 9.401696 933.1065 M 9.935763 932.447 L 9.444982 1090.5353 M 452.8682 862.3807 L 452.68327 890.5818 M 452.1286 890.501 L 460.74787 890.4393 M 460.84933 889.8908 L 460.54884 905.5636 M 461.4517 905.6146 L 453.07454 905.8701 M 453.1352 904.8545 L 453.21713 932.9908 M 453.8962 933.1067 L 10.058715 933.031 M 10.097352 932.3222 L 9.692992 1089.4816" marker-end="url(#FilledArrow_Marker)" stroke="#199ce8" stroke-linecap="round" stroke-linejoin="round" stroke-width="3"/>
      </g>
      <g id="Line_46">
        <path d="M 452.64883 862.1041 L 451.8118 933.3093 M 453.0151 932.4714 L 206.82234 934.9057 M 207.77204 931.9054 L 206.71087 1202.0264 M 453.1305 861.7304 L 452.4666 932.1114 M 453.3913 932.2161 L 208.13698 934.6925 M 208.18762 931.5305 L 207.1162 1198.9501" marker-end="url(#FilledArrow_Marker)" stroke="#199ce8" stroke-linecap="round" stroke-linejoin="round" stroke-width="3"/>
      </g>
      <g id="Line_47">
        <path d="M 452.6813 860.4429 L 451.42046 935.3964 M 450.5179 934.6028 L 585.221 933.7425 M 582.25586 931.7681 L 580.9116 1217.3523 M 453.3375 860.0726 L 452.15996 934.2279 M 450.89067 933.8751 L 582.61986 933.1331 M 582.8127 931.394 L 581.5566 1214.863" marker-end="url(#FilledArrow_Marker)" stroke="#199ce8" stroke-linecap="round" stroke-linejoin="round" stroke-width="3"/>
      </g>
      <g id="Line_48">
        <path d="M 452.5991 861.0314 L 454.0617 934.4836 M 451.158 933.721 L 760.4939 932.6166 M 757.7252 931.6309 L 759.1331 1119.6783 M 453.0549 860.6548 L 454.4784 933.3346 M 451.53224 933.1354 L 758.1065 931.9157 M 758.4234 931.2534 L 759.622 1117.7727" marker-end="url(#FilledArrow_Marker)" stroke="#199ce8" stroke-linecap="round" stroke-linejoin="round" stroke-width="3"/>
      </g>
      <g id="Line_50">
        <path d="M 452.63133 862.2081 L 453.29725 937.908 M 455.604 934.9652 L 313.87073 933.3295 M 316.19894 932.1063 L 317.0346 1103.5802 M 453.06127 861.8326 L 453.8652 934.5613 M 455.9755 934.8917 L 316.5786 933.1069 M 316.80468 931.7302 L 317.6278 1100.5962" marker-end="url(#FilledArrow_Marker)" stroke="#199ce8" stroke-linecap="round" stroke-linejoin="round" stroke-width="3"/>
      </g>
      <g id="Line_52">
        <path d="M 452.6389 861.135 L 452.495 1318.6825 M 453.04296 860.76 L 452.877 1315.3908" marker-end="url(#FilledArrow_Marker)" stroke="#199ce8" stroke-linecap="round" stroke-linejoin="round" stroke-width="3"/>
      </g>
      <g id="Graphic_54">
        <path d="M 296.0718 891.9994 L 422.74516 892.1495 M 422.26704 891.9452 L 422.39367 921.4662 M 422.6858 921.2197 L 296.05958 921.0862 M 296.47763 921.4469 L 296.56228 891.7128 M 296.1343 891.9364 L 422.33044 892.0584 M 422.3476 891.8826 L 422.4684 921.1569 M 422.7483 921.1649 L 296.54114 921.0353 M 296.5285 921.3844 L 296.5889 891.9374" stroke="#199ce8" stroke-linecap="round" stroke-linejoin="round" stroke-width="1"/>
        <text transform="translate(301.56146 897)" fill="black">
          <tspan font-family="Verdana" font-size="16" fill="black" x="0" y="16">Run in parallel</tspan>
        </text>
      </g>
      <g id="Graphic_59">
        <title>CLIENT</title>
        <path d="M 576.01254 24.000276 L 453.4651 23.910035 M 453.91795 23.563042 L 454.10923 53.21758 M 453.8946 52.77302 L 575.8614 53.097286 M 575.5551 53.25236 L 575.6389 23.776147 M 576.075 23.958788 L 453.98267 23.880863 M 454.0051 23.500382 L 454.1883 52.71096 M 453.9571 52.71013 L 575.61814 53.010037 M 575.588 53.189774 L 575.6967 23.937488" stroke="#199ce8" stroke-linecap="round" stroke-linejoin="round" stroke-width="1"/>
        <text transform="translate(458.8961 29)" fill="black">
          <tspan font-family="Verdana" font-size="16" fill="black" x="0" y="16">SERVER-SIDE</tspan>
        </text>
      </g>
    </g>
    <g id="Canvas_1_Server_side">
      <title>Server side</title>
      <g id="Graphic_38">
        <rect x="223.75822" y="65.89875" width="368" height="546.3743" fill="#f9f9f9"/>
        <path d="M 222.83828 65.8986 L 592.0272 65.95974 M 591.1604 64.98877 L 591.80384 615.7076 M 593.4455 613.5054 L 222.43586 613.0453 M 224.8447 613.99605 L 223.7541 63.824934 M 223.1508 65.41102 L 591.4741 65.33692 M 591.5822 64.676145 L 592.33226 613.1906 M 593.7579 613.2223 L 225.15495 613.0252 M 225.0738 613.6837 L 223.77513 65.586834" stroke="#199ce8" stroke-linecap="round" stroke-linejoin="round" stroke-width="5"/>
      </g>
      <g id="Graphic_61">
        <rect x="283.94415" y="222.25" width="246" height="75" fill="#dde9f5"/>
        <path d="M 283.23182 222.24867 L 531.30865 222.71318 M 529.5066 221.69086 L 530.7918 298.3223 M 531.78345 296.83092 L 281.27115 296.85183 M 283.20463 297.74806 L 283.9578 220.85595 M 283.48195 221.93186 L 529.77413 222.21988 M 529.9158 221.4382 L 531.20433 296.57786 M 532.03346 296.77086 L 283.46342 296.7678 M 283.3075 297.49662 L 284.12724 221.99934" stroke="#199ce8" stroke-linecap="round" stroke-linejoin="round" stroke-width="4"/>
        <text transform="translate(288.94415 240.75)" fill="black">
          <tspan font-family="Verdana" font-size="16" fill="black" x="13.1875" y="16">Import Google Sheet data</tspan>
          <tspan font-family="Verdana" font-size="16" fill="black" x="28.964844" y="35">into .md file (Node.js)</tspan>
        </text>
      </g>
      <g id="Graphic_3">
        <title>Rectangle</title>
        <rect x="283.69415" y="110.849" width="246" height="75" fill="#dde9f5"/>
        <path d="M 282.7266 110.84614 L 531.5734 111.58022 M 530.2812 110.32099 L 529.03873 186.05874 M 529.64687 185.3144 L 283.96358 186.19525 M 284.58216 188.17562 L 283.67196 108.91734 M 282.9768 110.52939 L 530.51094 111.21792 M 530.68335 110.07349 L 529.30405 185.0666 M 529.8977 185.29118 L 284.80984 186.06766 M 284.7683 187.92635 L 283.84096 110.60018" stroke="#199ce8" stroke-linecap="round" stroke-linejoin="round" stroke-width="4"/>
        <text transform="translate(288.69415 138.849)" fill="black">
          <tspan font-family="Verdana" font-size="16" fill="black" x="91.4375" y="16">Server</tspan>
        </text>
      </g>
      <g id="Line_62">
        <path d="M 406.9762 185.13362 L 405.402 200.2892 M 405.53526 196.40944 L 406.76673 207.29706 M 405.96826 208.00395 L 407.5267 200.58605 M 407.71217 200.48975 L 406.21763 205.83316 M 407.6245 184.787 L 406.11643 197.28434 M 406.00646 196.02356 L 407.2757 204.87013 M 406.29315 207.61842 L 407.31107 202.4653 M 408.2203 200.15199 L 407.14226 204.48518" marker-end="url(#FilledArrow_Marker)" stroke="#199ce8" stroke-linecap="round" stroke-linejoin="round" stroke-width="3"/>
      </g>
      <g id="Line_60">
        <path d="M 407.8114 299.25 C 407.5736 319.74897 407.49905 350.0988 407.2443 365.8951 M 407.8114 299.25 C 408.3236 318.99897 408.24905 349.3488 407.9943 365.1451" marker-end="url(#FilledArrow_Marker)" stroke="#199ce8" stroke-linecap="round" stroke-linejoin="round" stroke-width="3"/>
      </g>
      <g id="Graphic_6">
        <rect x="283.69415" y="347" width="246" height="75" fill="#dde9f5"/>
        <path d="M 282.4036 346.995 L 530.74505 347.9598 M 529.4803 347.2547 L 530.0366 423.01303 M 531.62376 421.19774 L 282.03552 421.16767 M 282.95077 422.0597 L 283.70583 345.8202 M 282.65423 346.5791 L 529.7355 347.6845 M 529.8483 347.00385 L 530.44113 420.9463 M 531.87376 420.9571 L 283.2096 421.0229 M 283.09382 421.80865 L 283.76525 346.74823" stroke="#199ce8" stroke-linecap="round" stroke-linejoin="round" stroke-width="4"/>
        <text transform="translate(288.69415 375)" fill="black">
          <tspan font-family="Verdana" font-size="16" fill="black" x="34.898438" y="16">Run Docsaurus Build</tspan>
        </text>
      </g>
      <g id="Line_5">
        <path d="M 406.69415 424 C 406.7931 443.016 407.4476 459.2588 406.69415 473.10066 M 406.69415 424 C 407.5431 442.266 408.1976 458.5088 407.44415 472.35066" marker-end="url(#FilledArrow_Marker)" stroke="#199ce8" stroke-linecap="round" stroke-linejoin="round" stroke-width="3"/>
      </g>
      <g id="Graphic_8">
        <rect x="283.69415" y="491" width="246" height="75" fill="#dde9f5"/>
        <path d="M 283.18824 491.00047 L 530.1928 490.7721 M 528.9433 488.94345 L 530.02604 567.2151 M 531.775 565.6792 L 282.91682 566.38824 M 284.5731 567.54834 L 283.67488 489.32157 M 283.4381 490.6018 L 529.2185 490.39487 M 529.37194 488.691 L 530.2825 565.43383 M 532.0256 565.6269 L 284.81024 566.3091 M 284.68744 567.2999 L 283.7148 490.75263" stroke="#199ce8" stroke-linecap="round" stroke-linejoin="round" stroke-width="4"/>
        <text transform="translate(288.69415 509.5)" fill="black">
          <tspan font-family="Verdana" font-size="16" fill="black" x="3.8828125" y="16">Deploy as website to GitHub </tspan>
          <tspan font-family="Verdana" font-size="16" fill="black" x="94.45312" y="35">Pages</tspan>
        </text>
      </g>
      <g id="Graphic_58">
        <path d="M 581.77294 715.9998 L 464.78913 716.0583 M 465.2504 715.6645 L 465.12045 745.4423 M 464.7445 744.962 L 581.9214 745.1953 M 581.5216 745.6913 L 581.2994 715.8385 M 581.8355 715.9917 L 465.3112 716.0151 M 465.3612 715.6022 L 465.19077 744.9003 M 464.8071 744.8602 L 581.58046 745.0856 M 581.55806 745.62896 L 581.3028 715.93795" stroke="#199ce8" stroke-linecap="round" stroke-linejoin="round" stroke-width="1"/>
        <text transform="translate(470.16 721)" fill="black">
          <tspan font-family="Verdana" font-size="16" fill="black" x="0" y="16">CLIENT-SIDE</tspan>
        </text>
      </g>
      <g id="Graphic_66">
        <text transform="translate(658 56)" fill="black">
          <tspan font-family="Courier New" font-size="16" fill="black" x="19.203125" y="13">Every time </tspan>
          <tspan font-family="Courier New" font-size="16" fill="black" x="4.800781" y="31">a new version</tspan>
          <tspan font-family="Courier New" font-size="16" fill="black" x="0" y="49">of the website</tspan>
          <tspan font-family="Courier New" font-size="16" fill="black" x="9.601562" y="67">is pushed to</tspan>
          <tspan font-family="Courier New" font-size="16" fill="black" x="9.601562" y="85">Github pages</tspan>
        </text>
      </g>
      <g id="Line_65">
        <path d="M 746.683 51 C 753.3473 25.540066 752.4892 -1.8619281 723 -10.619958 C 684.22675 -22.135284 607.8142 2.10224 559.1182 20.459786" marker-end="url(#Arrow_Marker)" stroke="black" stroke-linecap="round" stroke-linejoin="round" stroke-width="1"/>
      </g>
      <g id="Graphic_68">
        <text transform="translate(692.1953 448)" fill="black">
          <tspan font-family="Courier New" font-size="16" fill="black" x="0" y="13">Every time a webpage</tspan>
          <tspan font-family="Courier New" font-size="16" fill="black" x="28.804688" y="31">is loaded into</tspan>
          <tspan font-family="Courier New" font-size="16" fill="black" x="43.20703" y="49">the browser</tspan>
        </text>
      </g>
      <g id="Line_67">
        <path d="M 862.1559 507 C 886.4518 524.9126 899.4779 550.36015 865.2328 583.38004 C 812.2718 634.4461 663.8197 686.6824 580.9705 713.0217" marker-end="url(#Arrow_Marker)" stroke="black" stroke-linecap="round" stroke-linejoin="round" stroke-width="1"/>
      </g>
    </g>
  </g>
</svg>
