<?xml version="1.0" encoding="iso-8859-1"?>
<!-- Uploaded to: SVG Repo, www.svgrepo.com, Generator: SVG Repo Mixer Tools -->
<svg version="1.1" id="Layer_1" xmlns="http://www.w3.org/2000/svg" xmlns:xlink="http://www.w3.org/1999/xlink" 
	 viewBox="0 0 473.931 473.931" xml:space="preserve">
<circle style="fill:#D1AFD2;" cx="236.966" cy="236.966" r="236.966"/>
<polygon style="fill:#A480B1;" points="241.946,271.577 222.025,247.922 241.946,247.922 265.384,247.922 "/>
<path style="fill:#2A3633;" d="M322.641,385.689c0,20.516-15.15,37.156-33.829,37.156h-92.309
	c-18.679,0-33.829-16.636-33.829-37.156c0,0,7.745-80.489,14.099-100.623c6.335-20.112,15.143-37.148,33.829-37.148h11.424
	l19.921,20.711l23.438-20.711h12.161c18.679,0,28.89,12.381,33.822,37.148C316.298,309.844,322.641,385.689,322.641,385.689z"/>
<g>
	<path style="fill:#242D2B;" d="M283.835,385.708l4.977,37.137c18.679,0,33.829-16.636,33.829-37.156L283.835,385.708z"/>
	<path style="fill:#242D2B;" d="M277.545,247.922h-12.161l18.488,137.775l38.768-0.007c0,0-6.342-75.849-11.278-100.623
		C306.431,260.303,296.224,247.922,277.545,247.922z"/>
</g>
<path style="fill:#BF8A67;" d="M309.997,170.77c0,37.665-30.518,68.182-68.171,68.182c-37.657,0-68.171-30.514-68.171-68.182
	c0-37.646,30.51-68.167,68.171-68.167C279.48,102.603,309.997,133.124,309.997,170.77z"/>
<path style="fill:#8C5228;" d="M309.997,170.77l-46.476-41.822c0,0-9.901,16.396-36.299,28.329
	c-25.455,11.506-53.56,13.489-53.56,13.489c0-37.646,30.51-68.167,68.171-68.167C279.48,102.603,309.997,133.124,309.997,170.77z"/>
<g>
	<ellipse style="fill:#343433;" cx="221.4" cy="180.914" rx="9.339" ry="9.863"/>
	<ellipse style="fill:#343433;" cx="261.886" cy="180.914" rx="9.339" ry="9.863"/>
</g>
<g>
	<ellipse style="fill:#FFFFFF;" cx="264.786" cy="177.172" rx="3.731" ry="3.948"/>
	<ellipse style="fill:#FFFFFF;" cx="224.206" cy="177.172" rx="3.734" ry="3.948"/>
</g>
<g>
	<path style="fill:#242D2B;" d="M210.601,247.922c-18.686,0-27.494,17.036-33.829,37.148
		c-6.35,20.134-14.099,100.623-14.099,100.623c0,20.516,15.15,37.156,33.829,37.156l6.986-37.04l18.533-137.925L210.601,247.922z"/>
	<rect x="240.071" y="267.76" style="fill:#242D2B;" width="3.742" height="155.208"/>
	<path style="fill:#242D2B;" d="M194.867,107.976l-6.249,18.226c0,0,10.649,24.943,51.977,24.943s52.239-24.939,52.239-24.939
		l-6.249-18.23L194.867,107.976L194.867,107.976z"/>
</g>
<path style="fill:#2A3633;" d="M194.867,107.976l-6.249,18.226c0,0,10.649,24.943,51.977,24.943l-0.307-43.169H194.867z"/>
<path style="fill:#181E1D;" d="M194.867,107.976l-1.938,6.743l42.286,12.348c3.237,0.988,8.486,0.988,11.723,0l41.582-12.131
	l-1.938-6.956h-91.714V107.976z"/>
<path style="fill:#2A3633;" d="M246.937,124.653c-3.237,0.984-8.486,0.984-11.723,0l-71.606-21.912
	c-3.237-0.995-3.237-2.593,0-3.585l71.606-21.912c3.237-0.992,8.486-0.992,11.715,0l71.614,21.912c3.237,0.992,3.237,2.589,0,3.585
	L246.937,124.653z"/>
<g>
	<path style="fill:#BC992F;" d="M281.594,113.989c-0.535,0-0.973,0.438-0.973,0.973v39.363c0,0.535,0.438,0.969,0.973,0.969
		s0.973-0.434,0.973-0.969v-39.363C282.563,114.427,282.125,113.989,281.594,113.989z"/>
	<path style="fill:#BC992F;" d="M281.848,114.023l-40.632-12.685c-0.513-0.161-1.051,0.123-1.212,0.636
		c-0.161,0.513,0.123,1.055,0.636,1.216l40.632,12.685c0.513,0.161,1.051-0.123,1.212-0.632
		C282.645,114.726,282.361,114.18,281.848,114.023z"/>
	<ellipse style="fill:#BC992F;" cx="281.53" cy="135.751" rx="2.709" ry="3.061"/>
	<path style="fill:#BC992F;" d="M280.643,138.258c0,0-2.683,3.087-2.683,4.962c0,0.778-0.03,5.122-0.052,8.288
		c-0.007,1.916-1.433,3.398-1.433,3.398c0,1.078,10.084,1.078,10.084,0c0,0-1.418-1.441-1.433-3.311
		c-0.03-3.087-0.06-7.356-0.06-8.232c0-2.017-2.668-5.104-2.668-5.104H280.643L280.643,138.258z"/>
</g>
<ellipse style="fill:#2B2B2A;" cx="241.269" cy="102.476" rx="5.078" ry="3.143"/>
</svg>