
<svg xmlns:dc="http://purl.org/dc/elements/1.1/" xmlns="http://www.w3.org/2000/svg" xmlns:xlink="http://www.w3.org/1999/xlink" version="1.1" viewBox="247 64 1049 2384">
  <defs>
    <marker orient="auto" overflow="visible" markerUnits="strokeWidth" id="FilledArrow_Marker" stroke-linejoin="miter" stroke-miterlimit="10" viewBox="-1 -3 6 6" markerWidth="6" markerHeight="6" color="#199ce8">
      <g>
        <path d="M 3.7333333 0 L 0 -1.4 L 0 1.4 Z" fill="currentColor" stroke="currentColor" stroke-width="1"/>
      </g>
    </marker>
    <marker orient="auto" overflow="visible" markerUnits="strokeWidth" id="FilledArrow_Marker_2" stroke-linejoin="miter" stroke-miterlimit="10" viewBox="-1 -3 6 6" markerWidth="6" markerHeight="6" color="#199ce8">
      <g>
        <path d="M 3.2 0 L 0 -1.2 L 0 1.2 Z" fill="currentColor" stroke="currentColor" stroke-width="1"/>
      </g>
    </marker>
    <marker orient="auto" overflow="visible" markerUnits="strokeWidth" id="FilledArrow_Marker_3" stroke-linejoin="miter" stroke-miterlimit="10" viewBox="-1 -3 6 6" markerWidth="6" markerHeight="6" color="#199ce8">
      <g>
        <path d="M 3.2 0 L 0 -1.2 L 0 1.2 Z" fill="currentColor" stroke="currentColor" stroke-width="1"/>
      </g>
    </marker>
    <marker orient="auto" overflow="visible" markerUnits="strokeWidth" id="FilledArrow_Marker_4" stroke-linejoin="miter" stroke-miterlimit="10" viewBox="-1 -3 6 6" markerWidth="6" markerHeight="6" color="#199ce8">
      <g>
        <path d="M 3.2 0 L 0 -1.2 L 0 1.2 Z" fill="currentColor" stroke="currentColor" stroke-width="1"/>
      </g>
    </marker>
    <marker orient="auto" overflow="visible" markerUnits="strokeWidth" id="Arrow_Marker" stroke-linejoin="miter" stroke-miterlimit="10" viewBox="-1 -4 10 8" markerWidth="10" markerHeight="8" color="black">
      <g>
        <path d="M 8 0 L 0 -3 L 0 3 Z" fill="none" stroke="currentColor" stroke-width="1"/>
      </g>
    </marker>
  </defs>
  <g id="Canvas_1" stroke-dasharray="none" stroke="none" stroke-opacity="1" fill="none" fill-opacity="1">
    <title>Canvas 1</title>
    <g id="Canvas_1_Layer_1">
      <title>Layer 1</title>
      <g id="Graphic_3">
        <title>Rectangle</title>
        <path d="M 514.3 68 L 641.7 68 C 656.7696 68 669 80.992 669 97 C 669 113.008 656.7696 126 641.7 126 L 514.3 126 C 499.2304 126 487 113.008 487 97 C 487 80.992 499.2304 68 514.3 68 Z" fill="#ffd01a"/>
        <path d="M 513.33245 67.9945 L 643.57924 68.73481 C 655.8355 67.226795 669.0118 81.33979 669 97 C 667.9164 111.44747 658.0735 126.51856 641.7 126 M 642.2958 125.99622 L 511.44535 126.82679 C 500.52315 125.75194 488.3744 114.41197 487 97 C 487.5149 79.72047 500.5499 67.86509 514.3 68 M 513.58283 67.677745 L 642.5171 68.36892 C 656.3355 66.726795 669.5118 80.83979 669.5 96.5 C 668.4164 110.94747 658.5735 126.01856 642.2 125.5 M 642.5466 125.87076 L 513.67835 126.62805 C 501.02315 125.25194 488.8744 113.91197 487.5 96.5 C 488.0149 79.22047 501.0499 67.36509 514.8 67.5" stroke="#199ce8" stroke-linecap="round" stroke-linejoin="round" stroke-width="4"/>
        <text transform="translate(492 87.5)" fill="black">
          <tspan font-family="Verdana" font-size="16" fill="black" x="59.640625" y="16">START</tspan>
        </text>
      </g>
      <g id="Graphic_8">
        <rect x="487" y="211" width="182" height="58" fill="#ffd01a"/><a xlink:href="https://github.com/WebOfTrust/WOT-terms/tree/main/scrapers">
          
          <path d="M 486.4941 211.00063 L 669.4987 210.77172 M 668.24175 208.94357 L 669.3381 270.215 M 671.0809 268.6774 L 486.2227 269.3899 M 487.88286 270.5483 L 486.9751 209.32164 M 486.7439 210.60198 L 668.5243 210.39487 M 668.67036 208.69038 L 669.5884 268.43372 M 671.3316 268.62513 L 488.11627 269.3091 M 487.9972 270.3003 L 487.02065 210.7534" stroke="#199ce8" stroke-linecap="round" stroke-linejoin="round" stroke-width="4"/>
          <text transform="translate(492 221)" fill="black">
            <tspan font-family="Verdana" font-size="16" fill="black" x="54.98047" y="16">Scraper</tspan>
            <tspan font-family="Verdana" font-size="16" fill="black" x="48.3125" y="35">(Node.js)</tspan>
          </text>
        </a>
      </g>
      <g id="Graphic_11">
        <path d="M 849.0682 407 L 964.1364 531.5 L 849.0682 656 L 734 531.5 Z" fill="#ffd01a"/>
        <path d="M 848.5043 406.3925 L 965.4323 532.35905 M 965.5079 530.5713 L 847.5956 656.21945 M 849.2157 656.351 L 731.929 529.2586 M 732.19 531.85646 L 849.7014 406.32354 M 848.9359 405.9739 L 964.9153 531.22334 M 965.8633 530.4202 L 848.7416 655.2959 M 849.2965 656.2572 L 733.40105 530.5631 M 732.3095 531.4843 L 849.278 406.71235" stroke="#199ce8" stroke-linecap="round" stroke-linejoin="round" stroke-width="4"/>
        <text transform="translate(770.0684 492.51)" fill="black">
          <tspan font-family="Verdana" font-size="16" fill="black" x="54.18786" y="16">Site 1:</tspan>
          <tspan font-family="Verdana" font-size="16" fill="black" x=".28160858" y="35">remote sitemap.xml</tspan>
          <tspan font-family="Verdana" font-size="16" fill="black" x="53.754265" y="54">exists?</tspan>
          <tspan font-family="Verdana" font-size="13" fill="black" x="1.0001144" y="70">(Usually in website root)</tspan>
        </text>
      </g>
      <g id="Graphic_12">
        <path d="M 368.0682 407 L 483.13636 531.5 L 368.0682 656 L 253 531.5 Z" fill="#ffd01a"/>
        <path d="M 366.7489 405.5823 L 484.16295 531.75426 M 484.1127 530.1061 L 367.69272 657.3674 M 368.75645 657.10454 L 251.99127 531.156 M 251.90923 533.57547 L 368.8633 406.1336 M 367.0825 405.25453 L 483.69635 530.5957 M 484.39944 529.8897 L 368.7745 656.5745 M 368.9518 656.9052 L 253.26722 532.1102 M 252.01692 533.19487 L 368.259 406.6957" stroke="#199ce8" stroke-linecap="round" stroke-linejoin="round" stroke-width="4"/>
        <text transform="translate(289.0684 500.51)" fill="black">
          <tspan font-family="Verdana" font-size="16" fill="black" x="54.18786" y="16">Site 2:</tspan>
          <tspan font-family="Verdana" font-size="16" fill="black" x=".28160858" y="35">remote sitemap.xml</tspan>
          <tspan font-family="Verdana" font-size="16" fill="black" x="53.754265" y="54">exists?</tspan>
        </text>
      </g>
      <g id="Line_13">
        <path d="M 578.21416 128 C 578.33666 158.42259 579.0685 178.58588 578.4444 193.10118 M 578.21416 128 C 579.08666 157.67259 579.8185 177.83588 579.1944 192.35118" marker-end="url(#FilledArrow_Marker)" stroke="#199ce8" stroke-linecap="round" stroke-linejoin="round" stroke-width="3"/>
      </g>
      <g id="Line_15">
        <path d="M 552.7434 271 C 519.4972 309.6677 465.21126 389.1707 428.69093 442.4219 M 552.7434 271 C 520.4972 308.6677 466.21126 388.1707 429.69093 441.4219" marker-end="url(#FilledArrow_Marker_2)" stroke="#199ce8" stroke-linecap="round" stroke-linejoin="round" stroke-width="4"/>
      </g>
      <g id="Line_16">
        <path d="M 605.0844 271 C 639.8899 309.04727 726.0009 392.6347 775.61 455.7462 M 605.0844 271 C 640.8899 308.04727 727.0009 391.6347 776.61 454.7462" marker-end="url(#FilledArrow_Marker_3)" stroke="#199ce8" stroke-linecap="round" stroke-linejoin="round" stroke-width="4"/>
      </g>
      <g id="Graphic_17">
        <rect x="345.10227" y="819" width="45.93182" height="50" fill="#ffd01a"/>
        <path d="M 343.62742 818.9857 L 393.04767 819.4662 M 392.0398 817.7929 L 390.2022 871.624 M 392.04564 869.875 L 344.04077 869.8541 M 345.16965 870.7474 L 345.10107 818.0773 M 343.87933 818.5396 L 392.23414 819.0916 M 392.36603 817.5455 L 390.5337 869.625 M 392.2956 869.6705 L 345.41844 869.7219 M 345.40466 870.4974 L 345.14577 818.7503" stroke="#199ce8" stroke-linecap="round" stroke-linejoin="round" stroke-width="4"/>
        <text transform="translate(350.10227 834.5)" fill="black">
          <tspan font-family="Verdana" font-size="16" fill="black" x="11.419035" y="16">&#x2026;</tspan>
        </text>
      </g>
      <g id="Line_18">
        <path d="M 368.01055 658.8843 C 371.3966 707.5018 367.1634 759.58365 367.9944 798.1003 M 368.01055 658.8843 C 372.3966 706.5018 368.1634 758.58365 368.9944 797.1003" marker-end="url(#FilledArrow_Marker_2)" stroke="#199ce8" stroke-linecap="round" stroke-linejoin="round" stroke-width="4"/>
      </g>
      <g id="Graphic_19">
        <path d="M 1106.0682 739 L 1221.1364 863.5 L 1106.0682 988 L 991 863.5 Z" fill="#ffd01a"/>
        <path d="M 1105.5973 738.4953 L 1222.2707 863.5268 M 1222.4513 861.8285 L 1104.2771 988.4328 M 1106.6047 988.7943 L 989.4118 862.2153 M 989.8741 864.4255 L 1107.0342 737.9573 M 1105.978 738.1233 L 1221.981 862.3726 M 1222.8014 861.6719 L 1105.6238 987.2007 M 1106.6831 988.7032 L 990.7786 863.4479 M 990.092 864.1458 L 1106.313 738.7453" stroke="#199ce8" stroke-linecap="round" stroke-linejoin="round" stroke-width="4"/>
        <text transform="translate(1027.0684 842.01)" fill="black">
          <tspan font-family="Verdana" font-size="16" fill="black" x="18.85192" y="16">List of urls on a </tspan>
          <tspan font-family="Verdana" font-size="16" fill="black" x="31.402702" y="35">page exists?</tspan>
        </text>
      </g>
      <g id="Line_20">
        <path d="M 899.8976 603.9509 C 946.2753 671.2376 1010.8619 747.83085 1034.9669 785.3903 M 899.8976 603.9509 C 947.2753 670.2376 1011.8619 746.83085 1035.9669 784.3903" marker-end="url(#FilledArrow_Marker_2)" stroke="#199ce8" stroke-linecap="round" stroke-linejoin="round" stroke-width="4"/>
      </g>
      <g id="Graphic_24">
        <rect x="971.5129" y="708.23415" width="31.679688" height="29" fill="white"/>
        <text transform="translate(976.5129 713.23415)" fill="black">
          <tspan font-family="Verdana" font-size="16" fill="black" x="0" y="16">No</tspan>
        </text>
      </g>
      <g id="Graphic_26">
        <rect x="1022" y="1128.086" width="267" height="106" fill="#ffd01a"/><a xlink:href="https://github.com/WebOfTrust/WOT-terms/blob/main/scrapers/createSitemap.js">
          
          <path d="M 1021.0561 1128.089 L 1290.5286 1127.2215 M 1289.6301 1125.7265 L 1289.1361 1236.1206 M 1290.9422 1234.1551 L 1020.6543 1233.4098 M 1021.2625 1234.0323 L 1022.0116 1126.4191 M 1021.3053 1127.5955 L 1289.873 1126.8742 M 1290.104 1125.4775 L 1289.4109 1233.9003 M 1291.1918 1234.0484 L 1021.5167 1233.2206 M 1021.3682 1233.7813 L 1022.0664 1127.8347" stroke="#199ce8" stroke-linecap="round" stroke-linejoin="round" stroke-width="4"/>
          <text transform="translate(1027 1152.586)" fill="black">
            <tspan font-family="Verdana" font-size="16" fill="black" x="28.695312" y="16">Create local sitemap.xml</tspan>
            <tspan font-family="Verdana" font-size="16" fill="black" x="66.23047" y="35">manually or via </tspan>
            <tspan font-family="Verdana" font-size="16" fill="black" x="20.152344" y="54">document.querySelectorAll</tspan>
          </text>
        </a>
      </g>
      <g id="Line_32">
        <path d="M 1163.6023 925.75 C 1158.1031 923.5311 1182.5805 1011.2799 1158.6667 1090.6667 C 1156.5459 1098.0238 1155.5764 1103.627 1154.2758 1109.2208 M 1163.6023 925.75 C 1159.1031 922.5311 1183.5805 1010.2799 1159.6667 1089.6667 C 1157.5459 1097.0238 1156.5764 1102.627 1155.2758 1108.2208" marker-end="url(#FilledArrow_Marker_2)" stroke="#199ce8" stroke-linecap="round" stroke-linejoin="round" stroke-width="4"/>
      </g>
      <g id="Graphic_31">
        <rect x="1148.7985" y="1000.9801" width="37.710938" height="29" fill="white"/>
        <text transform="translate(1153.7985 1005.9801)" fill="black">
          <tspan font-family="Verdana" font-size="16" fill="black" x="0" y="16">Yes</tspan>
        </text>
      </g>
      <g id="Graphic_33">
        <rect x="570" y="1552" width="342" height="199" fill="#ffd01a"/>
        <path d="M 568.8024 1552.0035 L 913.5958 1551.0005 M 912.8293 1549.3006 L 911.0721 1752.7422 M 912.7216 1751.7685 L 569.98887 1751.5803 M 570.8742 1753.1567 L 569.9917 1550.0877 M 569.0522 1551.6953 L 913.0639 1550.5246 M 913.1403 1549.0512 L 911.4807 1751.519 M 912.9716 1751.571 L 571.1172 1751.5113 M 570.8793 1752.9078 L 570.1397 1551.7505" stroke="#199ce8" stroke-linecap="round" stroke-linejoin="round" stroke-width="4"/>
        <text transform="translate(600 1566)" fill="black">
          <tspan font-family="Verdana" font-size="16" fill="black" x="0" y="16">Assign results to keys in array </tspan>
          <tspan font-family="Verdana" font-size="16" fill="black" x="0" y="35">object</tspan>
          <tspan font-family="Verdana" font-size="16" fill="black" x="0" y="54">[{</tspan>
          <tspan font-family="Verdana" font-size="16" fill="black" x="0" y="73">&#xa0;&#xa0;&#xa0;&#xa0;siteName: &apos;xxx&apos;</tspan>
          <tspan font-family="Verdana" font-size="16" fill="black" x="0" y="92">&#xa0;&#xa0;&#xa0;&#xa0;url: &apos;xxx&apos;</tspan>
          <tspan font-family="Verdana" font-size="16" fill="black" x="0" y="111">&#xa0;&#xa0;&#xa0;&#xa0;content: &apos;xxx&apos;</tspan>
          <tspan font-family="Verdana" font-size="16" fill="black" x="0" y="130">&#xa0;&#xa0;&#xa0;&#xa0;tag: &apos;xxx&apos;</tspan>
          <tspan font-family="Verdana" font-size="16" fill="black" x="0" y="149">etc.</tspan>
          <tspan font-family="Verdana" font-size="16" fill="black" x="0" y="168">}]</tspan>
        </text>
      </g>
      <g id="Line_35">
        <path d="M 1155.5 1234.086 C 1150.6604 1231.9896 1117.2563 1280.7467 1059 1320 C 1046.6856 1327.1472 1032.5352 1334.116 1019.8277 1342.7908 M 1155.5 1234.086 C 1151.6604 1230.9896 1118.2563 1279.7467 1060 1319 C 1047.6856 1326.1472 1033.5352 1333.116 1020.8277 1341.7908" marker-end="url(#FilledArrow_Marker_2)" stroke="#199ce8" stroke-linecap="round" stroke-linejoin="round" stroke-width="4"/>
      </g>
      <g id="Graphic_36">
        <rect x="734" y="1128.086" width="178" height="106" fill="#ffd01a"/><a xlink:href="https://github.com/WebOfTrust/WOT-terms/blob/main/scrapers/createSitemap.js">
          
          <path d="M 732.4794 1128.0925 L 912.7674 1127.3131 M 912.0393 1126.1694 L 912.0529 1235.1314 M 913.1985 1234.5906 L 732.0608 1233.483 M 733.2537 1235.4756 L 734.0081 1126.9256 M 732.7287 1127.6852 L 912.2888 1126.9261 M 912.3162 1125.9194 L 912.3678 1234.3335 M 913.448 1234.4257 L 733.51655 1233.4015 M 733.4658 1235.2254 L 734.064 1127.8346" stroke="#199ce8" stroke-linecap="round" stroke-linejoin="round" stroke-width="4"/>
          <text transform="translate(739 1149.086)" fill="black">
            <tspan font-family="Verdana" font-size="16" fill="black" x="36.48047" y="16">Create local </tspan>
            <tspan font-family="Verdana" font-size="16" fill="black" x="34.527344" y="35">sitemap.xml</tspan>
            <tspan font-family="Verdana" font-size="11" fill="black" x="41.189697" y="49">manually or via </tspan>
            <tspan font-family="Verdana" font-size="11" fill="black" x="37.212402" y="62">createSitemap.js</tspan>
          </text>
        </a>
      </g>
      <g id="Graphic_37">
        <rect x="823" y="1340.043" width="178" height="106" fill="#ffd01a"/><a xlink:href="https://github.com/WebOfTrust/WOT-terms/blob/main/scrapers/createSitemap.js">
          
          <path d="M 821.8717 1340.0389 L 1001.4913 1340.685 M 1000.7878 1339.7207 L 1000.0303 1447.6895 M 1002.0241 1445.792 L 822.2515 1445.052 M 823.068 1445.677 L 822.9991 1338.6333 M 822.1218 1339.7652 L 1001.0317 1340.2383 M 1001.22 1339.472 L 1000.4135 1445.5348 M 1002.2734 1445.7214 L 823.3173 1444.8766 M 823.2657 1445.4271 L 823.0388 1339.7931" stroke="#199ce8" stroke-linecap="round" stroke-linejoin="round" stroke-width="4"/>
          <text transform="translate(828 1374.043)" fill="black">
            <tspan font-family="Verdana" font-size="16" fill="black" x="32.109375" y="16">Scrape using</tspan>
            <tspan font-family="Verdana" font-size="16" fill="black" x="31.117188" y="35">local sitemap</tspan>
          </text>
        </a>
      </g>
      <g id="Line_39">
        <path d="M 1046.4021 926.3899 C 1027.3734 933.8046 918.8251 1016.1999 875 1059 C 859.5088 1071.2131 848.08 1090.88 841.7979 1108.5864 M 1046.4021 926.3899 C 1028.3734 932.8046 919.8251 1015.1999 876 1058 C 860.5088 1070.2131 849.08 1089.88 842.7979 1107.5864" marker-end="url(#FilledArrow_Marker_2)" stroke="#199ce8" stroke-linecap="round" stroke-linejoin="round" stroke-width="4"/>
      </g>
      <g id="Graphic_38">
        <rect x="916.8961" y="995.5602" width="31.679688" height="29" fill="white"/>
        <text transform="translate(921.8961 1000.5602)" fill="black">
          <tspan font-family="Verdana" font-size="16" fill="black" x="0" y="16">No</tspan>
        </text>
      </g>
      <g id="Line_41">
        <path d="M 843.1378 1236.086 C 855.6139 1262.662 865.6947 1295.7448 878.3103 1320.679 M 843.1378 1236.086 C 856.6139 1261.662 866.6947 1294.7448 879.3103 1319.679" marker-end="url(#FilledArrow_Marker_2)" stroke="#199ce8" stroke-linecap="round" stroke-linejoin="round" stroke-width="4"/>
      </g>
      <g id="Line_42">
        <path d="M 868.5473 1448.043 C 848.6144 1476.8653 820.3499 1512.7803 808.593 1533.9513 M 868.5473 1448.043 C 849.6144 1475.8653 821.3499 1511.7803 809.593 1532.9513" marker-end="url(#FilledArrow_Marker_2)" stroke="#199ce8" stroke-linecap="round" stroke-linejoin="round" stroke-width="4"/>
      </g>
      <g id="Graphic_43">
        <title>Rectangle</title>
        <rect x="458" y="976" width="178" height="79" fill="#ffd01a"/>
        <path d="M 456.2257 976.009 L 636.8346 975.0915 M 636.2177 973.7435 L 636.9985 1055.253 M 637.9779 1054.1929 L 457.3954 1055.6717 M 458.8837 1057.1 L 457.9847 974.5943 M 456.4746 975.537 L 636.4806 974.8265 M 636.58165 973.4924 L 637.4377 1053.949 M 638.2299 1054.1873 L 459.1183 1055.4422 M 458.9952 1056.8515 L 458.13735 975.7512" stroke="#199ce8" stroke-linecap="round" stroke-linejoin="round" stroke-width="4"/>
        <text transform="translate(463 996.5)" fill="black">
          <tspan font-family="Verdana" font-size="16" fill="black" x="32.109375" y="16">Scrape using</tspan>
          <tspan font-family="Verdana" font-size="16" fill="black" x="20.601562" y="35">remote sitemap</tspan>
        </text>
      </g>
      <g id="Line_45">
        <path d="M 762.5321 565.3174 C 717.1317 591.42115 662.03205 643.4375 620 715.08005 C 553.9352 811.094 552.58385 897.6649 543.67904 955.1222 M 762.5321 565.3174 C 718.1317 590.42115 663.03205 642.4375 621 714.08005 C 554.9352 810.094 553.58385 896.6649 544.67904 954.1222" marker-end="url(#FilledArrow_Marker_2)" stroke="#199ce8" stroke-linecap="round" stroke-linejoin="round" stroke-width="4"/>
      </g>
      <g id="Graphic_44">
        <rect x="569.2652" y="754.0998" width="45.93182" height="29" fill="white"/>
        <text transform="translate(574.2652 759.0998)" fill="black">
          <tspan font-family="Verdana" font-size="16" fill="black" x="0" y="16">Yes</tspan>
        </text>
      </g>
      <g id="Line_46">
        <path d="M 544.4603 1057 C 542.1874 1107.5984 546.67234 1204.1149 579 1273 C 602.20144 1354.795 618.9789 1489.0474 623.995 1533.3483 M 544.4603 1057 C 543.1874 1106.5984 547.67234 1203.1149 580 1272 C 603.20144 1353.795 619.9789 1488.0474 624.995 1532.3483" marker-end="url(#FilledArrow_Marker_2)" stroke="#199ce8" stroke-linecap="round" stroke-linejoin="round" stroke-width="4"/>
      </g>
      <g id="Graphic_50">
        <rect x="658" y="1825" width="178" height="106" fill="#ffd01a"/><a xlink:href="https://github.com/WebOfTrust/WOT-terms/tree/main/scrapers/modules">
          
          <path d="M 657.472 1824.9972 L 838.4018 1825.9695 M 836.4293 1824.4035 L 835.9165 1932.4606 M 836.7574 1930.9043 L 656.7299 1930.915 M 658.47246 1931.8104 L 657.9927 1823.3488 M 657.7222 1824.7105 L 836.6727 1825.5628 M 836.8803 1824.1545 L 836.2576 1930.6547 M 837.0074 1930.808 L 658.7185 1930.8188 M 658.48335 1931.5615 L 658.2107 1824.7502" stroke="#199ce8" stroke-linecap="round" stroke-linejoin="round" stroke-width="4"/>
          <text transform="translate(663 1868.5)" fill="black">
            <tspan font-family="Verdana" font-size="16" fill="black" x="13.292969" y="16">Store in JSON file</tspan>
          </text>
        </a>
      </g>
      <g id="Graphic_49">
        <rect x="658" y="2019" width="178" height="106" fill="#ffd01a"/><a xlink:href="https://github.com/WebOfTrust/WOT-terms/blob/main/scrapers/import.sh">
          
          <path d="M 657.0797 2019.0023 L 838.6779 2018.5446 M 836.6762 2016.8092 L 836.9371 2127.3595 M 838.4317 2125.664 L 657.0392 2125.3058 M 657.6661 2126.066 L 658.0044 2017.598 M 657.3293 2018.582 L 836.9301 2018.2076 M 836.9719 2016.5591 L 837.2119 2125.411 M 838.6816 2125.4736 L 657.91795 2125.3007 M 657.6913 2125.8154 L 658.2359 2018.75" stroke="#199ce8" stroke-linecap="round" stroke-linejoin="round" stroke-width="4"/>
          <text transform="translate(663 2053)" fill="black">
            <tspan font-family="Verdana" font-size="16" fill="black" x="12.957031" y="16">Convert to JSONL </tspan>
            <tspan font-family="Verdana" font-size="16" fill="black" x="72.03125" y="35">file</tspan>
          </text>
        </a>
      </g>
      <g id="Line_48">
        <path d="M 743.6467 1933 C 745.2382 1953.5124 743.4694 1975.2445 743.4845 1998.096 M 743.6467 1933 C 746.2382 1952.5124 744.4694 1974.2445 744.4845 1997.096" marker-end="url(#FilledArrow_Marker_2)" stroke="#199ce8" stroke-linecap="round" stroke-linejoin="round" stroke-width="4"/>
      </g>
      <g id="Line_47">
        <path d="M 743.57655 2127 C 742.1131 2143.656 744.3106 2160.4862 743.4327 2176.1003 M 743.57655 2127 C 743.1131 2142.656 745.3106 2159.4862 744.4327 2175.1003" marker-end="url(#FilledArrow_Marker_2)" stroke="#199ce8" stroke-linecap="round" stroke-linejoin="round" stroke-width="4"/>
      </g>
      <g id="Graphic_51">
        <rect x="658" y="2197" width="178" height="106" fill="#ffd01a"/><a xlink:href="https://github.com/WebOfTrust/WOT-terms/blob/main/scrapers/import.sh">
          
          <path d="M 656.36436 2196.9966 L 838.1257 2197.372 M 836.1537 2195.9978 L 836.9249 2303.5617 M 838.583 2302.1442 L 655.9205 2302.5256 M 657.2614 2303.5547 L 658.0132 2195.0994 M 656.6147 2196.5936 L 836.4139 2196.918 M 836.51 2195.747 L 837.3033 2301.8967 M 838.8335 2302.1422 L 657.5187 2302.337 M 657.5079 2303.3047 L 658.18545 2196.7496" stroke="#199ce8" stroke-linecap="round" stroke-linejoin="round" stroke-width="4"/>
          <text transform="translate(663 2221.5)" fill="black">
            <tspan font-family="Verdana" font-size="16" fill="black" x="46.375" y="16">Import in </tspan>
            <tspan font-family="Verdana" font-size="16" fill="black" x="40.35547" y="35">TypeSense</tspan>
            <tspan font-family="Verdana" font-size="16" fill="black" x="21.375" y="54">index (via Curl)</tspan>
          </text>
        </a>
      </g>
      <g id="Line_52">
        <path d="M 739.9944 1753 C 738.7435 1759.3641 738.9791 1778.896 739.9349 1804.1202 M 739.9944 1753 C 739.7435 1758.3641 739.9791 1777.896 740.9349 1803.1202" marker-end="url(#FilledArrow_Marker_2)" stroke="#199ce8" stroke-linecap="round" stroke-linejoin="round" stroke-width="4"/>
      </g>
      <g id="Graphic_55">
        <title>Rectangle</title>
        <path d="M 685.3 2387 L 812.7 2387 C 827.7696 2387 840 2399.992 840 2416 C 840 2432.008 827.7696 2445 812.7 2445 L 685.3 2445 C 670.2304 2445 658 2432.008 658 2416 C 658 2399.992 670.2304 2387 685.3 2387 Z" fill="#ffd01a"/>
        <path d="M 683.7337 2387 L 813.7212 2387.0048 C 829.1689 2387.1929 838.6762 2401.3044 840 2416 C 839.1356 2431.7924 828.4761 2444.9312 812.7 2445 M 813.9857 2445 L 682.7324 2444.9983 C 670.5083 2445.456 659.343 2431.7978 658 2416 C 658.2975 2401.3635 669.1834 2388.0572 685.3 2387 M 683.9837 2386.6314 L 812.0799 2386.5887 C 829.6689 2386.6929 839.1762 2400.8044 840.5 2415.5 C 839.6356 2431.2924 828.9761 2444.4312 813.2 2444.5 M 814.2357 2444.955 L 684.5602 2444.8092 C 671.0083 2444.956 659.843 2431.2978 658.5 2415.5 C 658.7975 2400.8635 669.6834 2387.5572 685.8 2386.5" stroke="#199ce8" stroke-linecap="round" stroke-linejoin="round" stroke-width="4"/>
        <text transform="translate(663 2406.5)" fill="black">
          <tspan font-family="Verdana" font-size="16" fill="black" x="68.79297" y="16">END</tspan>
        </text>
      </g>
      <g id="Line_56">
        <path d="M 744.1957 2305 C 745.9 2323.5727 744.3042 2348.5423 745.0763 2366.1168 M 744.1957 2305 C 746.9 2322.5727 745.3042 2347.5423 746.0763 2365.1168" marker-end="url(#FilledArrow_Marker_4)" stroke="#199ce8" stroke-linecap="round" stroke-linejoin="round" stroke-width="4"/>
      </g>
      <g id="Graphic_57">
        <text transform="translate(797 330)" fill="black">
          <tspan font-family="Courier New" font-size="16" fill="black" x="0" y="13">The scraper needs a list of url&#x2019;s</tspan>
          <tspan font-family="Courier New" font-size="16" fill="black" x="4.800781" y="31">(= sitemap) that it will scrape.</tspan>
        </text>
      </g>
      <g id="Line_59">
        <path d="M 967.652 371 C 971.6792 385.4828 971.8953 406.301 957 432 C 948.9732 445.84867 937.5637 459.37993 925.1434 471.78013" marker-end="url(#Arrow_Marker)" stroke="black" stroke-linecap="round" stroke-linejoin="round" stroke-width="1"/>
      </g>
      <g id="Graphic_60">
        <a xlink:href="https://github.com/WebOfTrust/WOT-terms/blob/main/scrapers/createSitemap.js">
          <text transform="translate(643.0515 1246)" fill="black">
            <tspan font-family="Courier New" font-size="16" fill="black" x="0" y="13">createSitemap.js</tspan>
          </text>
        </a>
      </g>
      <g id="Graphic_61">
        <a xlink:href="https://github.com/WebOfTrust/WOT-terms/blob/main/scrapers/modules/extractMainContent.mjs">
          <text transform="translate(582.0308 929)" fill="black">
            <tspan font-family="Courier New" font-size="16" fill="black" x="0" y="13">extractMainContent.mjs</tspan>
          </text>
        </a>
      </g>
      <g id="Graphic_62">
        <a xlink:href="https://github.com/WebOfTrust/WOT-terms/blob/main/scrapers/modules/extractMainContent.mjs">
          <text transform="translate(901.9269 1457)" fill="black">
            <tspan font-family="Courier New" font-size="16" fill="black" x="0" y="13">extractMainContent.mjs</tspan>
          </text>
        </a>
      </g>
      <g id="Graphic_63">
        <a xlink:href="https://github.com/WebOfTrust/WOT-terms/blob/main/scrapers/modules/createOutput.mjs">
          <text transform="translate(906.8916 1783)" fill="black">
            <tspan font-family="Courier New" font-size="16" fill="black" x="0" y="13">createOutput.mjs</tspan>
          </text>
        </a>
      </g>
      <g id="Graphic_64">
        <a xlink:href="https://github.com/WebOfTrust/WOT-terms/blob/main/scrapers/import.sh">
          <text transform="translate(946.601 2051)" fill="black">
            <tspan font-family="Courier New" font-size="16" fill="black" x="0" y="13">import.sh</tspan>
          </text>
        </a>
      </g>
      <g id="Line_65">
        <path d="M 994.9996 2046 C 1002.363 2021.3239 1009.8271 1969.0981 959 1931 C 929.7802 1909.098 887.132 1896.2398 847.7358 1888.6941" marker-end="url(#Arrow_Marker)" stroke="black" stroke-linecap="round" stroke-linejoin="round" stroke-width="1"/>
      </g>
      <g id="Line_66">
        <path d="M 978.8723 2074 C 966.0748 2087.07 940.9652 2104.8766 898 2107 C 881.5757 2107.8117 864.3862 2106.2405 847.7332 2103.378" marker-end="url(#Arrow_Marker)" stroke="black" stroke-linecap="round" stroke-linejoin="round" stroke-width="1"/>
      </g>
      <g id="Line_67">
        <path d="M 997.717 2074 C 1010.5177 2099.9903 1029.4834 2156.7136 978 2197 C 946.1647 2221.9115 894.32 2235.1166 847.8051 2242.1152" marker-end="url(#Arrow_Marker)" stroke="black" stroke-linecap="round" stroke-linejoin="round" stroke-width="1"/>
      </g>
      <g id="Line_68">
        <path d="M 984.7308 1778 C 984.7737 1765.0237 982.4151 1745.8414 970 1733 C 956.9308 1719.482 936.6713 1717.0801 923.8828 1717.0864" marker-end="url(#Arrow_Marker)" stroke="black" stroke-linecap="round" stroke-linejoin="round" stroke-width="1"/>
      </g>
      <g id="Line_69">
        <path d="M 1024.3042 1452 C 1031.6955 1443.2393 1035.9275 1431.635 1022 1421 C 1019.2349 1418.8886 1015.8868 1416.9168 1012.1036 1415.0781" marker-end="url(#Arrow_Marker)" stroke="black" stroke-linecap="round" stroke-linejoin="round" stroke-width="1"/>
      </g>
      <g id="Line_70">
        <path d="M 708.1903 1241 C 702.06285 1230.7331 698.7901 1216.617 715 1205 C 717.3414 1203.322 720.001 1201.7594 722.9129 1200.3044" marker-end="url(#Arrow_Marker)" stroke="black" stroke-linecap="round" stroke-linejoin="round" stroke-width="1"/>
      </g>
      <g id="Line_71">
        <path d="M 610.0431 952 C 592.1886 956.4844 574.66226 962.095 561.7017 968.9017" marker-end="url(#Arrow_Marker)" stroke="black" stroke-linecap="round" stroke-linejoin="round" stroke-width="1"/>
      </g>
    </g>
  </g>
</svg>
