
<svg xmlns:dc="http://purl.org/dc/elements/1.1/" version="1.1" xmlns="http://www.w3.org/2000/svg" xmlns:xlink="http://www.w3.org/1999/xlink" viewBox="197 183 1219 2692">
  <defs>
    <marker orient="auto" overflow="visible" markerUnits="strokeWidth" id="FilledArrow_Marker" stroke-linejoin="miter" stroke-miterlimit="10" viewBox="-1 -3 6 6" markerWidth="6" markerHeight="6" color="#199ce8">
      <g>
        <path d="M 3.2 0 L 0 -1.2 L 0 1.2 Z" fill="currentColor" stroke="currentColor" stroke-width="1"/>
      </g>
    </marker>
    <marker orient="auto" overflow="visible" markerUnits="strokeWidth" id="FilledArrow_Marker_2" stroke-linejoin="miter" stroke-miterlimit="10" viewBox="-1 -3 6 6" markerWidth="6" markerHeight="6" color="#199ce8">
      <g>
        <path d="M 3.2 0 L 0 -1.2 L 0 1.2 Z" fill="currentColor" stroke="currentColor" stroke-width="1"/>
      </g>
    </marker>
    <marker orient="auto" overflow="visible" markerUnits="strokeWidth" id="FilledArrow_Marker_3" stroke-linejoin="miter" stroke-miterlimit="10" viewBox="-1 -3 6 6" markerWidth="6" markerHeight="6" color="#199ce8">
      <g>
        <path d="M 3.2 0 L 0 -1.2 L 0 1.2 Z" fill="currentColor" stroke="currentColor" stroke-width="1"/>
      </g>
    </marker>
    <marker orient="auto" overflow="visible" markerUnits="strokeWidth" id="Arrow_Marker" stroke-linejoin="miter" stroke-miterlimit="10" viewBox="-1 -4 10 8" markerWidth="10" markerHeight="8" color="black">
      <g>
        <path d="M 8 0 L 0 -3 L 0 3 Z" fill="none" stroke="currentColor" stroke-width="1"/>
      </g>
    </marker>
  </defs>
  <g id="Canvas_1" fill-opacity="1" fill="none" stroke-dasharray="none" stroke="none" stroke-opacity="1">
    <title>Canvas 1</title>
    <g id="Canvas_1_Layer_1">
      <title>Layer 1</title>
      <g id="Graphic_121">
        <path d="M 526.76346 2534.7877 L 527.5 2556 C 529.1585 2603.7644 537.5017 2651.0608 552.2863 2696.5096 L 557 2711 C 574.1467 2763.71 613.3533 2806.367 664.4337 2827.8883 L 742.8893 2860.9432 C 767.6018 2871.355 795.0624 2873.3086 821 2866.5 L 823.3276 2865.889 C 848.0862 2859.39 870.9409 2847.0874 890 2830 L 890 2830 C 909.3145 2812.6836 927.5293 2794.1784 944.5381 2774.5925 L 952 2766 C 973.9481 2740.7264 993.39 2713.381 1010.0518 2684.349 L 1024.9149 2658.4513 C 1042.2365 2628.2697 1055.7034 2596.0342 1065 2562.5 L 1068.2931 2550.6214 C 1075.3814 2525.053 1078.1551 2498.4812 1076.5 2472 L 1076.5 2472 C 1074.8566 2445.7063 1067.0184 2420.174 1053.6251 2397.4875 L 1046.4862 2385.395 C 1032.4722 2361.657 1011.7847 2342.5663 987 2330.5 L 987 2330.5 C 961.7554 2318.21 935.1446 2308.9518 907.723 2302.919 L 899 2301 C 865.6956 2293.673 831.9885 2288.3142 798.0538 2284.9513 L 793.5 2284.5 C 756.7012 2280.8533 719.5658 2282.6536 683.2923 2289.843 L 682.5 2290 C 646.40455 2297.154 613.4475 2315.4103 588.23765 2342.2157 L 582.8153 2347.9812 C 560.01185 2372.228 544.0323 2402.0783 536.5 2434.5 L 536.5 2434.5 C 528.86657 2467.357 525.5929 2501.076 526.76346 2534.7877 Z" fill="#f5f5f5"/>
        <path d="M 526.74156 2534.202 L 527.5514 2555.866 C 530.46253 2604.639 541.7234 2654.9578 552.2863 2696.5096 M 552.17054 2696.1767 L 557.7346 2712.1864 C 572.37255 2759.458 615.8152 2801.2313 664.4337 2827.8883 M 663.9481 2827.685 L 743.6203 2861.0444 C 768.6449 2870.1526 794.9519 2873.7097 821 2866.5 M 820.2586 2866.7778 L 823.6588 2865.504 C 845.8037 2858.647 868.7246 2848.0156 890 2830 M 890.5244 2830.1402 L 889.1858 2829.7824 C 911.225 2814.6736 925.32 2794.8257 944.5381 2774.5925 M 944.2942 2774.8504 L 952.6832 2765.9785 C 971.5543 2743.9147 993.2002 2712.924 1010.0518 2684.349 M 1009.7944 2684.79 L 1025.3958 2658.07 C 1039.0102 2631.4213 1058.97 2595.06 1065 2562.5 M 1064.7742 2563.341 L 1068.313 2550.162 C 1075.5823 2525.7567 1076.7729 2497.6152 1076.5 2472 M 1076.5742 2472.34 L 1076.3499 2471.3122 C 1076.6077 2445.551 1065.6439 2421.5997 1053.6251 2397.4875 M 1054.06 2398.231 L 1046.3241 2385.005 C 1031.9447 2361.725 1009.1587 2340.5487 987 2330.5 M 987.6884 2331.1087 L 986.5604 2330.1113 C 964.3429 2317.9405 932.7106 2307.344 907.723 2302.919 M 908.6061 2303.1203 L 898.5603 2300.8314 C 865.6577 2291.1118 832.4933 2287.245 798.0538 2284.9513 M 799.0406 2284.969 L 792.7841 2284.8565 C 755.8931 2282.6245 718.782 2282.0708 683.2923 2289.843 M 683.8924 2289.8 L 681.8406 2289.947 C 643.0402 2294.3127 611.31005 2312.2444 588.23765 2342.2157 M 588.8639 2341.5522 L 582.9639 2347.8024 C 562.02975 2375.5376 544.6615 2402.8297 536.5 2434.5 M 536.4817 2435.1902 L 536.5206 2433.7227 C 526.2944 2467.0955 522.2681 2498.9198 526.76346 2534.7877 M 526.89136 2534.076 L 527.77756 2555.376 C 530.71253 2604.389 541.9734 2654.7078 552.5363 2696.2596 M 552.359 2696.0296 L 557.639 2711.2874 C 572.62255 2759.208 616.0652 2800.9813 664.6837 2827.6383 M 664.0966 2827.504 L 743.0888 2860.632 C 768.8949 2869.9026 795.2019 2873.4597 821.25 2866.25 M 820.3773 2866.636 L 823.1512 2865.6027 C 846.0537 2858.397 868.9746 2847.7656 890.25 2829.75 M 890.6436 2830.0372 L 889.7019 2829.839 C 911.475 2814.4236 925.57 2794.5757 944.7881 2774.3425 M 944.3544 2774.6642 L 952.3679 2766.1642 C 971.8043 2743.6647 993.4502 2712.674 1010.3018 2684.099 M 1009.8799 2684.642 L 1025.2786 2658.331 C 1039.2602 2631.1713 1059.22 2594.81 1065.25 2562.25 M 1064.8148 2563.1934 L 1068.1631 2550.82 C 1075.8323 2525.5067 1077.0229 2497.3652 1076.75 2471.75 M 1076.6427 2472.2272 L 1076.4956 2471.4418 C 1076.8577 2445.301 1065.8939 2421.3497 1053.8751 2397.2375 M 1054.0862 2398.1636 L 1046.8572 2385.79 C 1032.1947 2361.475 1009.4087 2340.2987 987.25 2330.25 M 987.751 2331.0543 L 986.8669 2330.2882 C 964.5929 2317.6905 932.9606 2307.094 907.973 2302.669 M 908.7052 2303.1086 L 899.3391 2300.89 C 865.9077 2290.8618 832.7433 2286.995 798.3038 2284.7013 M 799.1633 2284.9682 L 793.2736 2284.7804 C 756.1431 2282.3745 719.032 2281.8208 683.5423 2289.593 M 684.0225 2289.7454 L 682.7027 2289.8155 C 643.2902 2294.0627 611.56005 2311.9944 588.48765 2341.9657 M 589.02796 2341.464 L 583.33296 2347.44 C 562.27975 2375.2876 544.9115 2402.5797 536.75 2434.25 M 536.5567 2435.064 L 536.5483 2433.9173 C 526.5444 2466.8455 522.5181 2498.6698 527.01346 2534.5377" stroke="gray" stroke-linecap="round" stroke-linejoin="round" stroke-dasharray="8.0,8.0" stroke-width="2"/>
      </g>
      <g id="Graphic_116">
        <path d="M 669 1531 C 537.745 1561.5177 410.82477 1686.4045 399 1712 C 387.17523 1737.5955 393.29376 1932.7674 392.1113 1954.425 C 390.9288 1976.0828 387.38137 2133.5934 420.49074 2159.189 C 453.6001 2184.7844 457.14754 2218.2554 588.40254 2228.0998 C 719.6575 2237.9442 675.9059 2230.0686 839.0878 2234.0064 C 1002.2696 2237.9442 1061.9855 2232.72 1088 2215 C 1114.0145 2197.28 1168.9855 2148.5332 1195 2119 C 1221.0145 2089.4668 1264.7796 1962.3006 1250.5899 1851.0588 C 1236.4002 1739.817 1185.3333 1693.3333 1113 1643 C 1040.6667 1592.6667 1004 1584 1004 1584 C 1004 1584 800.255 1500.4823 669 1531 Z" fill="#f5f5f5"/>
        <path d="M 669 1531 C 529.2256 1561.0432 412.26868 1688.496 399 1712 C 385.52226 1739.5017 391.8104 1932.6903 392.1113 1954.425 C 391.18344 1977.392 386.92083 2136.3495 420.49074 2159.189 C 450.55795 2184.9332 469.13185 2217.785 588.40254 2228.0998 C 723.3505 2248.7 668.3079 2238.2098 839.0878 2234.0064 C 1010.0696 2248.3804 1059.227 2233.1838 1088 2215 C 1115.9139 2195.2985 1169.5968 2145.5612 1195 2119 C 1224.1037 2088.522 1261.38 1959.762 1250.5899 1851.0588 C 1244.4136 1744.8024 1183.8773 1691.2424 1113 1643 C 1042.4744 1590.4242 1004 1584 1003.4146 1583.7958 M 1004.3962 1584.1271 C 1004 1584 803.2175 1494.3262 669 1531 M 669 1531 C 529.4756 1560.7932 412.51868 1688.246 399.25 1711.75 C 385.77226 1739.2517 392.0604 1932.4403 392.3613 1954.175 C 391.43344 1977.142 387.17083 2136.0995 420.74074 2158.939 C 450.80795 2184.6832 469.38185 2217.535 588.65254 2227.8498 C 723.6005 2248.45 668.5579 2237.9598 839.3378 2233.7564 C 1010.3196 2248.1304 1059.477 2232.9338 1088.25 2214.75 C 1116.1639 2195.0485 1169.8468 2145.3112 1195.25 2118.75 C 1224.3537 2088.272 1261.63 1959.512 1250.8399 1850.8088 C 1244.6636 1744.5524 1184.1273 1690.9924 1113.25 1642.75 C 1042.7244 1590.1742 1004.25 1583.75 1003.6646 1583.5458 M 1004.3962 1584.1271 C 1004.25 1583.75 803.4675 1494.0762 669.25 1530.75" stroke="gray" stroke-linecap="round" stroke-linejoin="round" stroke-dasharray="8.0,8.0" stroke-width="2"/>
      </g>
      <g id="Graphic_101">
        <path d="M 602.8457 377.5 L 550.2959 439.11805 C 514.0393 481.63123 481.4096 527.1083 452.7493 575.0718 L 254.40768 907 C 157.50719 1069.1647 210.41426 1279.1785 372.57895 1376.079 C 403.35815 1394.471 436.83774 1407.909 471.7913 1415.901 L 907.8981 1515.6153 C 1115.9811 1563.1928 1323.2348 1433.0774 1370.8123 1224.9944 C 1384.9178 1163.3028 1383.659 1099.0913 1367.1462 1038 L 1218.9995 489.9092 C 1206.0006 441.8179 1183.2428 396.9167 1152.1425 358 L 1152.1425 358 C 1121.9296 320.1937 1078.0525 295.79542 1029.9957 290.07895 L 873.663 271.48283 C 771.3418 259.3115 669.7099 299.09748 602.8457 377.5 Z" fill="#f5f5f5"/>
        <path d="M 603.3387 376.9222 L 549.5685 439.9409 C 516.552 477.83907 480.40166 526.93094 452.7493 575.0718 M 452.9296 574.7695 L 254.41404 907.6407 C 159.24935 1061.4726 225.6334 1293.8132 372.57895 1376.079 C 401.53254 1393.076 434.26736 1410.3078 471.7913 1415.901 M 471.38144 1415.8073 L 908.0787 1515.6594 C 1128.1544 1563.0479 1313.0876 1431.1875 1370.8123 1224.9944 C 1391.0704 1159.8797 1380.303 1098.1052 1367.1462 1038 M 1367.241 1038.3509 L 1219.0674 489.4951 C 1204.0335 446.317 1183.4086 392.2907 1152.1425 358 M 1151.6142 358.2793 L 1153.0405 357.52526 C 1125.5357 318.29705 1076.747 297.6489 1029.9957 290.07895 M 1030.405 290.1265 L 872.5962 271.7948 C 763.0275 254.74444 678.1436 307.6028 602.8457 377.5 M 603.79656 377.5 L 602.45406 377.5 M 603.5482 376.86926 L 550.0997 439.45515 C 516.802 477.58907 480.65166 526.68094 452.9993 574.8218 M 453.10384 574.67385 L 254.98938 906.9632 C 159.49935 1061.2226 225.8834 1293.5632 372.82895 1375.829 C 401.78254 1392.826 434.51736 1410.0578 472.0413 1415.651 M 471.5249 1415.6016 L 907.8859 1515.3597 C 1128.4044 1562.7979 1313.3376 1430.9375 1371.0623 1224.7444 C 1391.3204 1159.6297 1380.553 1097.8552 1367.3962 1037.75 M 1367.2561 1038.2555 L 1219.3091 490.15 C 1204.2835 446.067 1183.6586 392.0407 1152.3925 357.75 M 1151.7347 358.1458 L 1152.5273 357.68437 C 1125.7857 318.04705 1076.997 297.3989 1030.2457 289.82895 M 1030.527 290.0265 L 873.4987 271.8092 C 763.2775 254.49444 678.3936 307.3528 603.0957 377.25 M 603.92156 377.48898 L 602.9707 377.42864" stroke="gray" stroke-linecap="round" stroke-linejoin="round" stroke-dasharray="8.0,8.0" stroke-width="2"/>
      </g>
      <g id="Graphic_3">
        <title>Rectangle</title>
        <path d="M 548.3 203 L 675.7 203 C 690.7696 203 703 220.92 703 243 C 703 265.08 690.7696 283 675.7 283 L 548.3 283 C 533.2304 283 521 265.08 521 243 C 521 220.92 533.2304 203 548.3 203 Z" fill="#dde9f5"/>
        <path d="M 547.33245 202.9945 L 677.57924 203.7348 C 689.8355 202.2268 703.0163 221.39971 703 243 C 701.5053 262.92755 692.0735 283.51856 675.7 283 M 676.2958 282.99622 L 545.44535 283.8268 C 534.52315 282.75194 522.8957 267.01652 521 243 C 521.7102 219.16617 534.5499 202.8651 548.3 203 M 547.5828 202.67774 L 676.5171 203.36892 C 690.3355 201.7268 703.5163 220.89971 703.5 242.5 C 702.0053 262.42755 692.5735 283.01856 676.2 282.5 M 676.5466 282.87076 L 547.67835 283.62805 C 535.02315 282.25194 523.3957 266.51652 521.5 242.5 C 522.2102 218.66617 535.0499 202.3651 548.8 202.5" stroke="#199ce8" stroke-linecap="round" stroke-linejoin="round" stroke-width="4"/>
        <text transform="translate(526 214.5)" fill="black">
          <tspan font-family="Verdana" font-size="16" fill="black" x="59.640625" y="16">START</tspan>
          <tspan font-family="Verdana" font-size="16" fill="black" x="32.179688" y="35">GENERATING</tspan>
          <tspan font-family="Verdana" font-size="16" fill="black" x="23.976562" y="54">SEARCH INDEX</tspan>
        </text>
      </g>
      <g id="Graphic_11">
        <path d="M 868.5108 407 L 1003.0216 522 L 868.5108 637 L 734 522 Z" fill="#dde9f5"/>
        <path d="M 867.8798 406.4625 L 1004.4124 522.76013 M 1004.4955 521.17926 L 866.9496 637.12594 M 868.7621 637.24335 L 731.7686 519.92505 M 732.0631 522.22287 L 869.2188 406.4022 M 868.2905 406.02386 L 1003.7971 521.72007 M 1004.8386 521.03975 L 868.1679 636.3113 M 868.8623 637.1683 L 733.4142 521.0758 M 732.1977 521.83627 L 868.7253 406.7079" stroke="#199ce8" stroke-linecap="round" stroke-linejoin="round" stroke-width="4"/>
        <text transform="translate(775.3179 481.7)" fill="black">
          <tspan font-family="Verdana" font-size="16" fill="black" x="68.76983" y="16">Site 1:</tspan>
          <tspan font-family="Verdana" font-size="16" fill="black" x="14.863579" y="54">remote sitemap.xml</tspan>
          <tspan font-family="Verdana" font-size="16" fill="black" x="68.336235" y="73">exists?</tspan>
        </text>
      </g>
      <g id="Graphic_12">
        <path d="M 342 383 L 375 414.262 L 342 445.52404 L 309 414.262 Z" fill="#dde9f5"/>
        <path d="M 341.64744 382.6682 L 375.2702 414.3121 M 375.257 413.9262 L 341.8947 445.8547 M 342.17924 445.79307 L 308.7292 414.19444 M 308.70703 414.761 L 342.2127 382.79707 M 341.7295 382.5849 L 375.1389 414.03484 M 375.32812 413.8727 L 342.1737 445.6706 M 342.22895 445.7441 L 309.06758 414.41535 M 308.7362 414.66356 L 342.04864 382.92297" stroke="#199ce8" stroke-linecap="round" stroke-linejoin="round" stroke-width="1"/>
        <text transform="translate(322.91 406.1368)" fill="black">
          <tspan font-family="Verdana" font-size="12" fill="black" x="2.1396484" y="12">Site 2</tspan>
        </text>
      </g>
      <g id="Line_15">
        <path d="M 542.60116 284.21574 C 486.142 315.22762 415.24275 366.6844 376.7595 390.5776 M 542.60116 284.21574 C 487.142 314.22762 416.24275 365.6844 377.7595 389.5776" marker-end="url(#FilledArrow_Marker)" stroke="#199ce8" stroke-linecap="round" stroke-linejoin="round" stroke-width="4"/>
      </g>
      <g id="Line_16">
        <path d="M 648.5666 285 C 681.71245 321.52045 751.5481 389.6818 793.4595 443.6979 M 648.5666 285 C 682.71245 320.52045 752.5481 388.6818 794.4595 442.6979" marker-end="url(#FilledArrow_Marker_2)" stroke="#199ce8" stroke-linecap="round" stroke-linejoin="round" stroke-width="4"/>
      </g>
      <g id="Graphic_17">
        <rect x="325.735" y="499.22115" width="21.961966" height="36.778846" fill="#dde9f5"/>
        <path d="M 325.36627 499.21926 L 348.20037 499.3365 M 347.93905 498.91916 L 347.4988 536.6562 M 347.94985 536.21866 L 325.46962 536.2136 M 325.75165 536.43686 L 325.7349 498.9905 M 325.42902 499.10774 L 347.99684 499.24405 M 348.0206 498.8569 L 347.57187 536.1561 M 348.01235 536.1675 L 325.81404 536.1805 M 325.8104 536.37436 L 325.74587 499.1587" stroke="#199ce8" stroke-linecap="round" stroke-linejoin="round" stroke-width="1"/>
        <text transform="translate(330.735 502.6106)" fill="black">
          <tspan font-family="Verdana" font-size="12" fill="black" x=".04250622" y="12">et</tspan>
          <tspan font-family="Verdana" font-size="12" fill="black" x=".672389" y="27">c.</tspan>
        </text>
      </g>
      <g id="Line_18">
        <path d="M 340.4135 444.0211 C 340.59654 455.1965 338.85887 467.805 338.50753 480.34297 M 340.4135 444.0211 C 341.59654 454.1965 339.85887 466.805 339.50753 479.34297" marker-end="url(#FilledArrow_Marker)" stroke="#199ce8" stroke-linecap="round" stroke-linejoin="round" stroke-width="4"/>
      </g>
      <g id="Graphic_19">
        <path d="M 894.9426 733.5 L 1017 825.75 L 894.9426 918 L 772.8853 825.75 Z" fill="#dde9f5"/>
        <path d="M 894.3897 733.0868 L 1018.2567 825.6403 M 1018.4676 824.24865 L 892.9785 918.2399 M 895.7127 918.5357 L 771.07635 824.7098 M 771.6209 826.52235 L 896.0774 732.644 M 894.7467 732.6936 L 1017.8152 824.5962 M 1018.7997 824.1082 L 894.4809 917.2162 M 895.822 918.4726 L 772.6887 825.7203 M 771.8446 826.2374 L 895.1884 733.2444" stroke="#199ce8" stroke-linecap="round" stroke-linejoin="round" stroke-width="4"/>
        <text transform="translate(810.8408 795.405)" fill="black">
          <tspan font-family="Verdana" font-size="16" fill="black" x="15.01178" y="16">Readable sitemap </tspan>
          <tspan font-family="Verdana" font-size="16" fill="black" x="11.894592" y="35">somewhere on the </tspan>
          <tspan font-family="Verdana" font-size="16" fill="black" x="67.8985" y="54">site?</tspan>
        </text>
      </g>
      <g id="Line_20">
        <path d="M 878.5747 631.02715 C 883.0996 664.72 888.3361 692.4168 890.1981 713.2083 M 878.5747 631.02715 C 884.0996 663.72 889.3361 691.4168 891.1981 712.2083" marker-end="url(#FilledArrow_Marker)" stroke="#199ce8" stroke-linecap="round" stroke-linejoin="round" stroke-width="4"/>
      </g>
      <g id="Graphic_24">
        <rect x="868.8987" y="662.847" width="31.679688" height="29" fill="white"/>
        <text transform="translate(873.8987 667.847)" fill="black">
          <tspan font-family="Verdana" font-size="16" fill="black" x="0" y="16">No</tspan>
        </text>
      </g>
      <g id="Graphic_26">
        <rect x="920" y="969.95" width="267" height="106" fill="#dde9f5"/>
        <path d="M 919.0561 969.953 L 1188.5286 969.0855 M 1187.6301 967.5905 L 1187.1361 1077.9846 M 1188.9422 1076.0192 L 918.6543 1075.2738 M 919.2625 1075.8964 L 920.0116 968.2831 M 919.3053 969.4595 L 1187.873 968.7382 M 1188.104 967.3415 L 1187.4109 1075.7643 M 1189.1918 1075.9124 L 919.5167 1075.0846 M 919.3682 1075.6454 L 920.0664 969.6987" stroke="#199ce8" stroke-linecap="round" stroke-linejoin="round" stroke-width="4"/>
        <text transform="translate(925 1003.95)" fill="black">
          <tspan font-family="Verdana" font-size="16" fill="black" x="28.695312" y="16">Create local sitemap.xml</tspan>
          <tspan font-family="Verdana" font-size="16" fill="black" x="5.605469" y="35">via document.querySelectorAll</tspan>
        </text>
      </g>
      <g id="Line_32">
        <path d="M 955.1123 871.1727 C 955.9713 871.875 987.7771 899.6576 1017 925.6667 C 1029.5514 936.4041 1037.355 947.2028 1042.7112 954.4347 M 955.1123 871.1727 C 956.9713 870.875 988.7771 898.6576 1018 924.6667 C 1030.5514 935.4041 1038.355 946.2028 1043.7112 953.4347" marker-end="url(#FilledArrow_Marker)" stroke="#199ce8" stroke-linecap="round" stroke-linejoin="round" stroke-width="4"/>
      </g>
      <g id="Graphic_31">
        <rect x="984.2993" y="897.7855" width="37.710938" height="29" fill="white"/>
        <text transform="translate(989.2993 902.7855)" fill="black">
          <tspan font-family="Verdana" font-size="16" fill="black" x="0" y="16">Yes</tspan>
        </text>
      </g>
      <g id="Graphic_33">
        <rect x="410.96094" y="1802.7285" width="250.03906" height="199" fill="#dde9f5"/>
        <path d="M 409.76333 1802.7333 L 662.59576 1801.7282 M 661.8293 1800.0291 L 660.0721 2003.4707 M 661.72164 2002.4974 L 410.9498 2002.3086 M 411.8351 2003.8853 L 410.95263 1800.8162 M 410.0131 1802.4251 L 662.0637 1801.2531 M 662.1403 1799.7797 L 660.48075 2002.2474 M 661.9716 2002.3 L 412.0781 2002.2398 M 411.84024 2003.6363 L 411.10065 1802.479" stroke="#199ce8" stroke-linecap="round" stroke-linejoin="round" stroke-width="4"/>
        <text transform="translate(440.96094 1816.7285)" fill="black">
          <tspan font-family="Verdana" font-size="16" fill="black" x="0" y="16">Assign results to keys </tspan>
          <tspan font-family="Verdana" font-size="16" fill="black" x="0" y="35">in array object</tspan>
          <tspan font-family="Verdana" font-size="16" fill="black" x="0" y="54">[{</tspan>
          <tspan font-family="Verdana" font-size="16" fill="black" x="0" y="73">&#xa0;&#xa0;&#xa0;&#xa0;siteName: &apos;xxx&apos;</tspan>
          <tspan font-family="Verdana" font-size="16" fill="black" x="0" y="92">&#xa0;&#xa0;&#xa0;&#xa0;</tspan>
          <tspan font-family="Verdana" font-size="16" fill="black" y="92">url</tspan>
          <tspan font-family="Verdana" font-size="16" fill="black" y="92">: &apos;xxx&apos;</tspan>
          <tspan font-family="Verdana" font-size="16" fill="black" x="0" y="111">&#xa0;&#xa0;&#xa0;&#xa0;content: &apos;xxx&apos;</tspan>
          <tspan font-family="Verdana" font-size="16" fill="black" x="0" y="130">&#xa0;&#xa0;&#xa0;&#xa0;tag: &apos;xxx&apos;</tspan>
          <tspan font-family="Verdana" font-size="16" fill="black" x="0" y="149">etc.</tspan>
          <tspan font-family="Verdana" font-size="16" fill="black" x="0" y="168">}]</tspan>
        </text>
      </g>
      <g id="Line_35">
        <path d="M 1054.8053 1077.95 C 1066.4267 1094.7798 1150.3312 1212.3269 1073.3333 1297.8348 C 1027.2339 1344.2437 940.4915 1359.395 881.665 1370.8372 M 1054.8053 1077.95 C 1067.4267 1093.7798 1151.3312 1211.3269 1074.3333 1296.8348 C 1028.2339 1343.2437 941.4915 1358.395 882.665 1369.8372" marker-end="url(#FilledArrow_Marker)" stroke="#199ce8" stroke-linecap="round" stroke-linejoin="round" stroke-width="4"/>
      </g>
      <g id="Graphic_36">
        <rect x="668.5" y="969.95" width="178" height="106" fill="#dde9f5"/>
        <path d="M 666.9794 969.9565 L 847.2674 969.1771 M 846.5393 968.0334 L 846.5529 1076.9954 M 847.6985 1076.4546 L 666.5608 1075.347 M 667.7537 1077.3397 L 668.5081 968.7896 M 667.2287 969.5492 L 846.7888 968.7901 M 846.8162 967.7834 L 846.8678 1076.1976 M 847.948 1076.2897 L 668.01655 1075.2655 M 667.9658 1077.0894 L 668.564 969.6987" stroke="#199ce8" stroke-linecap="round" stroke-linejoin="round" stroke-width="4"/>
        <text transform="translate(673.5 1003.95)" fill="black">
          <tspan font-family="Verdana" font-size="16" fill="black" x="36.48047" y="16">Create local </tspan>
          <tspan font-family="Verdana" font-size="16" fill="black" x="34.527344" y="35">sitemap.xml</tspan>
        </text>
      </g>
      <g id="Graphic_37">
        <rect x="621" y="1575" width="178" height="106" fill="#dde9f5"/>
        <path d="M 619.8717 1574.996 L 799.4913 1575.642 M 798.7878 1574.6778 L 798.0303 1682.6465 M 800.0241 1680.7491 L 620.2515 1680.009 M 621.068 1680.634 L 620.9991 1573.5903 M 620.1218 1574.7223 L 799.0317 1575.1953 M 799.2199 1574.429 L 798.4135 1680.4918 M 800.2734 1680.6784 L 621.3173 1679.8337 M 621.2657 1680.3841 L 621.0388 1574.7501" stroke="#199ce8" stroke-linecap="round" stroke-linejoin="round" stroke-width="4"/>
        <text transform="translate(626 1609)" fill="black">
          <tspan font-family="Verdana" font-size="16" fill="black" x="32.109375" y="16">Scrape using</tspan>
          <tspan font-family="Verdana" font-size="16" fill="black" x="13.496094" y="35">local sitemap.xml</tspan>
        </text>
      </g>
      <g id="Line_39">
        <path d="M 832.6684 873.4406 C 825.859 880.5748 802.7703 911.43 771.559 952.7537 M 832.6684 873.4406 C 826.859 879.5748 803.7703 910.43 772.559 951.7537" marker-end="url(#FilledArrow_Marker)" stroke="#199ce8" stroke-linecap="round" stroke-linejoin="round" stroke-width="4"/>
      </g>
      <g id="Graphic_38">
        <rect x="790.524" y="892.5176" width="31.679688" height="29" fill="white"/>
        <text transform="translate(795.524 897.5176)" fill="black">
          <tspan font-family="Verdana" font-size="16" fill="black" x="0" y="16">No</tspan>
        </text>
      </g>
      <g id="Line_41">
        <path d="M 757.3829 1075.8353 L 759.0656 1106.2219 M 758.3606 1075.3088 L 759.8146 1104.4273" marker-end="url(#FilledArrow_Marker_3)" stroke="#199ce8" stroke-linecap="round" stroke-linejoin="round" stroke-width="4"/>
      </g>
      <g id="Line_42">
        <path d="M 682.0665 1681.8135 L 629.4813 1784.4301 M 682.7544 1681.4098 L 630.9294 1783.019" marker-end="url(#FilledArrow_Marker)" stroke="#199ce8" stroke-linecap="round" stroke-linejoin="round" stroke-width="4"/>
      </g>
      <g id="Graphic_43">
        <title>Rectangle</title>
        <rect x="301" y="950.9801" width="178" height="79" fill="#dde9f5"/>
        <path d="M 299.22573 950.9891 L 479.8346 950.0716 M 479.2177 948.7237 L 479.99847 1030.2331 M 480.9779 1029.173 L 300.3954 1030.6518 M 301.8837 1032.0801 L 300.9847 949.5744 M 299.4746 950.5172 L 479.48056 949.8066 M 479.58165 948.4726 L 480.4377 1028.9292 M 481.2299 1029.1674 L 302.11828 1030.4223 M 301.99518 1031.8316 L 301.13735 950.7313" stroke="#199ce8" stroke-linecap="round" stroke-linejoin="round" stroke-width="4"/>
        <text transform="translate(306 971.4801)" fill="black">
          <tspan font-family="Verdana" font-size="16" fill="black" x="32.109375" y="16">Scrape using</tspan>
          <tspan font-family="Verdana" font-size="16" fill="black" x="20.601562" y="35">remote sitemap</tspan>
        </text>
      </g>
      <g id="Line_45">
        <path d="M 773.1551 558.10696 C 717.3573 583.3029 645.87414 631.5541 582.6667 690.6667 C 486.5413 774.2633 449.6463 869.1633 414.6589 931.7946 M 773.1551 558.10696 C 718.3573 582.3029 646.87414 630.5541 583.6667 689.6667 C 487.5413 773.2633 450.6463 868.1633 415.6589 930.7946" marker-end="url(#FilledArrow_Marker)" stroke="#199ce8" stroke-linecap="round" stroke-linejoin="round" stroke-width="4"/>
      </g>
      <g id="Graphic_44">
        <rect x="512.62624" y="727.0056" width="45.93182" height="29" fill="white"/>
        <text transform="translate(517.62624 732.0056)" fill="black">
          <tspan font-family="Verdana" font-size="16" fill="black" x="0" y="16">Yes</tspan>
        </text>
      </g>
      <g id="Graphic_50">
        <rect x="665" y="2079.457" width="178" height="106" fill="#dde9f5"/>
        <path d="M 664.472 2079.4542 L 845.4018 2080.4265 M 843.4293 2078.8606 L 842.9165 2186.9176 M 843.7574 2185.3613 L 663.7299 2185.372 M 665.4725 2186.2675 L 664.9927 2077.8058 M 664.7222 2079.1676 L 843.6727 2080.0198 M 843.8803 2078.6115 L 843.2576 2185.1117 M 844.0074 2185.265 L 665.7185 2185.276 M 665.48335 2186.0185 L 665.2107 2079.2072" stroke="#199ce8" stroke-linecap="round" stroke-linejoin="round" stroke-width="4"/>
        <text transform="translate(670 2122.957)" fill="black">
          <tspan font-family="Verdana" font-size="16" fill="black" x="13.292969" y="16">Store in JSON file</tspan>
        </text>
      </g>
      <g id="Graphic_49">
        <rect x="675" y="2362.7592" width="178" height="106" fill="#dde9f5"/>
        <path d="M 674.0797 2362.7615 L 855.6779 2362.3038 M 853.6762 2360.5684 L 853.9371 2471.1187 M 855.4317 2469.423 L 674.0392 2469.065 M 674.6661 2469.8253 L 675.0044 2361.3573 M 674.3293 2362.3413 L 853.93 2361.9668 M 853.9719 2360.3183 L 854.2119 2469.17 M 855.6816 2469.2328 L 674.91795 2469.06 M 674.6913 2469.5746 L 675.2359 2362.5092" stroke="#199ce8" stroke-linecap="round" stroke-linejoin="round" stroke-width="4"/>
        <text transform="translate(680 2396.7592)" fill="black">
          <tspan font-family="Verdana" font-size="16" fill="black" x="12.957031" y="16">Convert to JSONL </tspan>
          <tspan font-family="Verdana" font-size="16" fill="black" x="72.03125" y="35">file</tspan>
        </text>
      </g>
      <g id="Line_48">
        <path d="M 755.8172 2184.8347 L 763.318 2343.1815 M 756.4248 2184.3296 L 763.8453 2341.6483" marker-end="url(#FilledArrow_Marker)" stroke="#199ce8" stroke-linecap="round" stroke-linejoin="round" stroke-width="4"/>
      </g>
      <g id="Line_47">
        <path d="M 760.93185 2467.3693 L 756.8951 2504.4185 M 761.8046 2466.91 L 757.976 2502.9093" marker-end="url(#FilledArrow_Marker)" stroke="#199ce8" stroke-linecap="round" stroke-linejoin="round" stroke-width="4"/>
      </g>
      <g id="Graphic_51">
        <rect x="665" y="2522.7592" width="178" height="106" fill="#dde9f5"/>
        <path d="M 663.3644 2522.7558 L 845.1257 2523.1313 M 843.1537 2521.757 L 843.9249 2629.321 M 845.583 2627.9034 L 662.9205 2628.2848 M 664.2614 2629.314 L 665.0132 2520.8586 M 663.6147 2522.3528 L 843.4139 2522.6772 M 843.51 2521.5063 L 844.3033 2627.656 M 845.8335 2627.9014 L 664.5187 2628.096 M 664.5079 2629.064 L 665.18545 2522.5088" stroke="#199ce8" stroke-linecap="round" stroke-linejoin="round" stroke-width="4"/>
        <text transform="translate(670 2547.2592)" fill="black">
          <tspan font-family="Verdana" font-size="16" fill="black" x="46.375" y="16">Import in </tspan>
          <tspan font-family="Verdana" font-size="16" fill="black" x="40.35547" y="35">TypeSense</tspan>
          <tspan font-family="Verdana" font-size="16" fill="black" x="21.375" y="54">index (via Curl)</tspan>
        </text>
      </g>
      <g id="Line_52">
        <path d="M 619.5992 2002.0004 L 686.38545 2066.5499 M 620.1261 2001.4725 L 684.09474 2063.3414" marker-end="url(#FilledArrow_Marker)" stroke="#199ce8" stroke-linecap="round" stroke-linejoin="round" stroke-width="4"/>
      </g>
      <g id="Graphic_55">
        <title>Rectangle</title>
        <path d="M 702.3 2730.7592 L 829.7 2730.7592 C 844.7696 2730.7592 857 2743.7512 857 2759.7592 C 857 2775.7672 844.7696 2788.7592 829.7 2788.7592 L 702.3 2788.7592 C 687.2304 2788.7592 675 2775.7672 675 2759.7592 C 675 2743.7512 687.2304 2730.7592 702.3 2730.7592 Z" fill="#dde9f5"/>
        <path d="M 700.7337 2730.759 L 830.7212 2730.764 C 846.1689 2730.952 855.6762 2745.0636 857 2759.7592 C 856.1356 2775.5516 845.4761 2788.6904 829.7 2788.7592 M 830.9857 2788.7592 L 699.7324 2788.7575 C 687.5083 2789.2153 676.343 2775.557 675 2759.7592 C 675.2975 2745.1227 686.1834 2731.8164 702.3 2730.7592 M 700.9837 2730.3906 L 829.0799 2730.348 C 846.6689 2730.452 856.1762 2744.5636 857.5 2759.2592 C 856.6356 2775.0516 845.9761 2788.1904 830.2 2788.2592 M 831.2357 2788.7142 L 701.5602 2788.5684 C 688.0083 2788.7153 676.843 2775.057 675.5 2759.2592 C 675.7975 2744.6227 686.6834 2731.3164 702.8 2730.2592" stroke="#199ce8" stroke-linecap="round" stroke-linejoin="round" stroke-width="4"/>
        <text transform="translate(680 2750.2592)" fill="black">
          <tspan font-family="Verdana" font-size="16" fill="black" x="68.79297" y="16">END</tspan>
        </text>
      </g>
      <g id="Line_56">
        <path d="M 757.37985 2628.4204 L 764.8218 2712.4597 M 758.3478 2627.879 L 765.4296 2708.1883" marker-end="url(#FilledArrow_Marker_3)" stroke="#199ce8" stroke-linecap="round" stroke-linejoin="round" stroke-width="4"/>
      </g>
      <g id="Graphic_57">
        <text transform="translate(782.5977 330)" fill="black">
          <tspan font-family="Courier New" font-size="16" fill="black" x="14.402344" y="13">The scraper needs a list of url&#x2019;s</tspan>
          <tspan font-family="Courier New" font-size="16" fill="black" x="0" y="31">(= sitemap), usually in website root</tspan>
        </text>
      </g>
      <g id="Line_59">
        <path d="M 965.3245 371 C 968.9073 385.8653 969.4547 407.0663 957 432 C 953.0806 439.84647 948.167 447.4753 942.6749 454.75696" marker-end="url(#Arrow_Marker)" stroke="black" stroke-linecap="round" stroke-linejoin="round" stroke-width="1"/>
      </g>
      <g id="Graphic_60">
        <a xlink:href="https://github.com/WebOfTrust/WOT-terms/blob/main/scrapers/createSitemapGithub.mjs">
          <text transform="translate(429.39453 1131)" fill="black">
            <tspan font-family="Courier New" font-size="16" fill="black" x="0" y="13">createSitemapGithub.mjs</tspan>
          </text>
        </a>
      </g>
      <g id="Graphic_61">
        <a xlink:href="https://github.com/WebOfTrust/WOT-terms/blob/main/scrapers/modules/extractMainContent.mjs">
          <text transform="translate(476.3425 919)" fill="black">
            <tspan font-family="Courier New" font-size="16" fill="black" x="0" y="13">extractMainContent.mjs</tspan>
          </text>
        </a>
      </g>
      <g id="Graphic_62">
        <a xlink:href="https://github.com/WebOfTrust/WOT-terms/blob/main/scrapers/modules/extractMainContent.mjs">
          <text transform="translate(764.9773 1702)" fill="black">
            <tspan font-family="Courier New" font-size="16" fill="black" x="0" y="13">extractMainContent.mjs</tspan>
          </text>
        </a>
      </g>
      <g id="Graphic_63">
        <a xlink:href="https://github.com/WebOfTrust/WOT-terms/blob/main/scrapers/modules/createOutput.mjs">
          <text transform="translate(680 1879.1549)" fill="black">
            <tspan font-family="Courier New" font-size="16" fill="black" x="0" y="13">createOutput.mjs</tspan>
          </text>
        </a>
      </g>
      <g id="Graphic_64">
        <a xlink:href="https://github.com/WebOfTrust/WOT-terms/blob/main/scrapers/import.sh">
          <text transform="translate(929 2472.2493)" fill="black">
            <tspan font-family="Courier New" font-size="16" fill="black" x="0" y="13">import.sh</tspan>
          </text>
        </a>
      </g>
      <g id="Line_66">
        <path d="M 958.4828 2467.2493 C 950.1121 2462.2398 936.6485 2456.1276 915 2449.3183 C 899.7075 2444.508 882.1951 2439.9364 864.6417 2435.803" marker-end="url(#Arrow_Marker)" stroke="black" stroke-linecap="round" stroke-linejoin="round" stroke-width="1"/>
      </g>
      <g id="Line_67">
        <path d="M 1000.0065 2495.2493 C 1017.5217 2506.8297 1030.7597 2523.83 995 2539.3183 C 964.7792 2552.4075 906.511 2561.408 854.8401 2567.189" marker-end="url(#Arrow_Marker)" stroke="black" stroke-linecap="round" stroke-linejoin="round" stroke-width="1"/>
      </g>
      <g id="Line_68">
        <path d="M 749.79795 1902.1549 C 744.089 1910.7569 734.5578 1920.5283 720 1922.6667 C 702.4491 1925.2447 682.92835 1915.9444 671.3226 1909.0486" marker-end="url(#Arrow_Marker)" stroke="black" stroke-linecap="round" stroke-linejoin="round" stroke-width="1"/>
      </g>
      <g id="Line_69">
        <path d="M 866.7056 1697 C 861.9363 1690.1029 852.0628 1681.0357 832 1670.6667 C 825.2852 1667.1963 817.8951 1663.8209 810.17525 1660.588" marker-end="url(#Arrow_Marker)" stroke="black" stroke-linecap="round" stroke-linejoin="round" stroke-width="1"/>
      </g>
      <g id="Line_70">
        <path d="M 571.93726 1126 C 596.1947 1112.8181 627.7039 1095.3964 657.8516 1078.6354" marker-end="url(#Arrow_Marker)" stroke="black" stroke-linecap="round" stroke-linejoin="round" stroke-width="1"/>
      </g>
      <g id="Line_71">
        <path d="M 591.328 942 C 592.7994 950.2825 587.49004 960.8693 560 969.8169 C 541.651 975.7892 516.33115 980.0837 490.83326 983.1527" marker-end="url(#Arrow_Marker)" stroke="black" stroke-linecap="round" stroke-linejoin="round" stroke-width="1"/>
      </g>
      <g id="Graphic_73">
        <a xlink:href="https://github.com/WebOfTrust/WOT-terms/blob/main/scrapers/modules/extractMainContent.mjs">
          <text transform="translate(1163 1080.95)" fill="black">
            <tspan font-family="Courier New" font-size="16" fill="black" x="9.601562" y="13">Collect url&#x2019;s via</tspan>
            <tspan font-family="Courier New" font-size="16" fill="black" x="0" y="31">custom script using</tspan>
            <tspan font-family="Courier New" font-size="16" fill="black" x="14.402344" y="49">querySelectorAll</tspan>
          </text>
        </a>
      </g>
      <g id="Line_72">
        <path d="M 1278.9631 1075.95 C 1283.1182 1066.8251 1284.1681 1057.5135 1277.3333 1050.6667 C 1263.1464 1036.4548 1219.9587 1037.8408 1198.857 1039.4717" marker-end="url(#Arrow_Marker)" stroke="black" stroke-linecap="round" stroke-linejoin="round" stroke-width="1"/>
      </g>
      <g id="Graphic_75">
        <a xlink:href="https://github.com/WebOfTrust/WOT-terms/tree/main/scrapers">
          <text transform="translate(739 217)" fill="black">
            <tspan font-family="Courier New" font-size="16" fill="black" x="0" y="13">Using a collection</tspan>
            <tspan font-family="Courier New" font-size="16" fill="black" x="38.40625" y="31">of scripts</tspan>
          </text>
        </a>
      </g>
      <g id="Line_74">
        <path d="M 816.608 212 C 807.8757 197.90508 790.8225 182.76962 758 184 C 738.3253 184.73752 715.995 191.24268 694.8209 199.68368" marker-end="url(#Arrow_Marker)" stroke="black" stroke-linecap="round" stroke-linejoin="round" stroke-width="1"/>
      </g>
      <g id="Graphic_81">
        <a xlink:href="https://github.com/WebOfTrust/WOT-terms/blob/main/scrapers/sites/medium.com.mjs#L53">
          <text transform="translate(890 1113.975)" fill="black">
            <tspan font-family="Courier New" font-size="12" fill="black" x="25.204102" y="10">Manually create</tspan>
            <tspan font-family="Courier New" font-size="12" fill="black" x="21.603516" y="24">a list of url&#x2019;s,</tspan>
            <tspan font-family="Courier New" font-size="12" fill="black" x="7.201172" y="38">or write a letter to</tspan>
            <tspan font-family="Courier New" font-size="12" fill="black" x="0" y="52">the website owner, etc</tspan>
          </text>
        </a>
      </g>
      <g id="Line_80">
        <path d="M 979.6048 1174.975 C 981.2018 1181.8249 982.8576 1189.167 984.4441 1196.3327" marker-end="url(#Arrow_Marker)" stroke="black" stroke-linecap="round" stroke-linejoin="round" stroke-width="1"/>
      </g>
      <g id="Line_83">
        <path d="M 394.80082 1031.9801 C 408.0865 1151.3008 449.5669 1540.3906 478.3425 1730.457 C 481.2997 1751.2997 484.0582 1768.8787 485.1048 1782.0055 M 394.80082 1031.9801 C 409.0865 1150.3008 450.5669 1539.3906 479.3425 1729.457 C 482.2997 1750.2997 485.0582 1767.8787 486.1048 1781.0055" marker-end="url(#FilledArrow_Marker_3)" stroke="#199ce8" stroke-linecap="round" stroke-linejoin="round" stroke-width="4"/>
      </g>
      <g id="Graphic_84">
        <path d="M 757.5 1126 L 826 1188.5 L 757.5 1251 L 689 1188.5 Z" fill="#dde9f5"/>
        <path d="M 756.9957 1125.531 L 826.645 1190.309 M 826.5733 1188.526 L 756.2051 1251.9946 M 757.6426 1251.6602 L 687.22005 1187.7668 M 687.9081 1189.7822 L 758.3324 1125.237 M 757.4116 1125.1026 L 826.0443 1188.9513 M 826.978 1188.4476 L 757.495 1251.0765 M 757.8211 1251.489 L 688.85316 1188.9077 M 688.0043 1189.3644 L 757.6504 1125.6414" stroke="#199ce8" stroke-linecap="round" stroke-linejoin="round" stroke-width="4"/>
        <text transform="translate(712.495 1168.802)" fill="black">
          <tspan font-family="Helvetica Neue" font-size="16" fill="black" x="11.847" y="15">Does that </tspan>
          <tspan font-family="Helvetica Neue" font-size="16" fill="black" x="24.455" y="33.448">work?</tspan>
        </text>
      </g>
      <g id="Line_85">
        <title>Line</title>
        <path d="M 768.1562 1239.8441 L 784.67835 1326.9897 M 768.8722 1239.3032 L 784.7421 1323.8047" marker-end="url(#FilledArrow_Marker_3)" stroke="#199ce8" stroke-linecap="round" stroke-linejoin="round" stroke-width="4"/>
      </g>
      <g id="Graphic_86">
        <rect x="938" y="1208" width="110.78711" height="60" fill="#dde9f5"/>
        <path d="M 936.596 1208.004 L 1049.2487 1207.6856 M 1047.8999 1206.798 L 1048.3867 1269.5995 M 1049.2671 1268.6713 L 936.0932 1267.7897 M 937.255 1269.1063 L 938.0198 1206.3722 M 936.8453 1207.5277 L 1048.1565 1207.3496 M 1048.1915 1206.5477 L 1048.6897 1268.414 M 1049.5168 1268.466 L 937.5197 1267.72 M 937.4987 1268.8563 L 938.0522 1207.7476" stroke="#199ce8" stroke-linecap="round" stroke-linejoin="round" stroke-width="4"/>
        <text transform="translate(943 1219)" fill="black">
          <tspan font-family="Verdana" font-size="16" fill="black" x="33.55371" y="16">Find</tspan>
          <tspan font-family="Verdana" font-size="16" fill="black" x=".3779297" y="35">another way</tspan>
        </text>
      </g>
      <g id="Line_87">
        <path d="M 813.616 1200.3169 L 921.8278 1220.7639 M 814.1504 1199.6348 L 919.7787 1219.4897" marker-end="url(#FilledArrow_Marker_3)" stroke="#199ce8" stroke-linecap="round" stroke-linejoin="round" stroke-width="4"/>
      </g>
      <g id="Graphic_88">
        <rect x="760.2192" y="1272.6883" width="35.184" height="28.447998" fill="white"/>
        <text transform="translate(765.2192 1277.6883)" fill="black">
          <tspan font-family="Helvetica Neue" font-size="16" fill="black" x="552447e-18" y="15">Yes</tspan>
        </text>
      </g>
      <g id="Graphic_89">
        <rect x="850.331" y="1196.9805" width="30.736" height="28.447998" fill="white"/>
        <text transform="translate(855.331 1201.9805)" fill="black">
          <tspan font-family="Helvetica Neue" font-size="16" fill="black" x="39257486e-20" y="15">No</tspan>
        </text>
      </g>
      <g id="Line_90">
        <path d="M 942.8963 1270 C 925.5546 1279.9595 905.1503 1296.297 884 1309.3333 C 872.705 1316.388 861.798 1324.0498 852.994 1331.1594 M 942.8963 1270 C 926.5546 1278.9595 906.1503 1295.297 885 1308.3333 C 873.705 1315.388 862.798 1323.0498 853.994 1330.1594" marker-end="url(#FilledArrow_Marker_3)" stroke="#199ce8" stroke-linecap="round" stroke-linejoin="round" stroke-width="4"/>
      </g>
      <g id="Graphic_92">
        <a xlink:href="https://github.com/WebOfTrust/WOT-terms/blob/main/scrapers/createSitemap.mjs">
          <text transform="translate(451.1992 1078)" fill="black">
            <tspan font-family="Courier New" font-size="16" fill="black" x="0" y="13">createSitemap.mjs</tspan>
          </text>
        </a>
      </g>
      <g id="Line_91">
        <path d="M 576.747 1073 C 600.6612 1066.2777 629.4519 1058.2742 656.9547 1050.6607" marker-end="url(#Arrow_Marker)" stroke="black" stroke-linecap="round" stroke-linejoin="round" stroke-width="1"/>
      </g>
      <g id="Graphic_93">
        <text transform="translate(499 1104.9944)" fill="black">
          <tspan font-family="Courier New" font-size="16" fill="black" x="0" y="13">OR</tspan>
        </text>
      </g>
      <g id="Graphic_94">
        <text transform="translate(488 1168)" fill="black">
          <tspan font-family="Courier New" font-size="16" fill="black" x="62.410156" y="13">OR</tspan>
          <tspan font-family="Courier New" font-size="16" fill="black" x="43.20703" y="31">use an </tspan>
          <tspan font-family="Courier New" font-size="16" fill="black" x="0" y="49">earlier version</tspan>
        </text>
      </g>
      <g id="Line_95">
        <path d="M 637.0234 1202.0337 C 642.7871 1198.694 648.78935 1194.4107 655 1189 C 683.2249 1164.4107 709.0578 1122.3724 727.7292 1086.7478" marker-end="url(#Arrow_Marker)" stroke="black" stroke-linecap="round" stroke-linejoin="round" stroke-width="1"/>
      </g>
      <g id="Graphic_97">
        <text transform="translate(1201.4062 1153)" fill="black">
          <tspan font-family="Courier New" font-size="16" fill="black" x="62.410156" y="13">OR</tspan>
          <tspan font-family="Courier New" font-size="16" fill="black" x="43.20703" y="31">use an </tspan>
          <tspan font-family="Courier New" font-size="16" fill="black" x="0" y="49">earlier version</tspan>
        </text>
      </g>
      <g id="Line_96">
        <path d="M 1196.4062 1158.7583 C 1189.723 1155.6456 1182.8804 1152.0812 1176 1148 C 1141.1268 1127.3148 1116.788 1100.1819 1105.3712 1085.8358" marker-end="url(#Arrow_Marker)" stroke="black" stroke-linecap="round" stroke-linejoin="round" stroke-width="1"/>
      </g>
      <g id="Graphic_122">
        <rect x="1045" y="575.0056" width="370.0586" height="124" fill="#b6b6b6" fill-opacity=".23409598"/>
        <text transform="translate(1050 580.0056)" fill="black">
          <tspan font-family="Courier New" font-weight="bold" font-size="50" fill="black" x="0" y="42">1. Obtaining</tspan>
          <tspan font-family="Courier New" font-weight="bold" font-size="50" fill="black" x="15.002441" y="99">sitemap.xml</tspan>
        </text>
      </g>
      <g id="Graphic_123">
        <rect x="1070" y="1678" width="340.0537" height="181" fill="#a5a5a5" fill-opacity=".18853237"/>
        <text transform="translate(1075 1683)" fill="black">
          <tspan font-family="Courier New" font-weight="bold" font-size="50" fill="black" x="0" y="42">2. Scraping</tspan>
          <tspan font-family="Courier New" font-weight="bold" font-size="50" fill="black" x="45.007324" y="99">all URLs</tspan>
          <tspan font-family="Courier New" font-weight="bold" font-size="50" fill="black" x="15.002441" y="156">in sitemap</tspan>
        </text>
      </g>
      <g id="Graphic_125">
        <rect x="944" y="2597" width="370.0586" height="181" fill="#a5a5a5" fill-opacity=".16171875"/>
        <text transform="translate(949 2602)" fill="black">
          <tspan font-family="Courier New" font-weight="bold" font-size="50" fill="black" x="0" y="42">3. Importing</tspan>
          <tspan font-family="Courier New" font-weight="bold" font-size="50" fill="black" x="0" y="99">content into</tspan>
          <tspan font-family="Courier New" font-weight="bold" font-size="50" fill="black" x="0" y="156">search index</tspan>
        </text>
      </g>
      <g id="Graphic_127">
        <rect x="814" y="1759" width="226" height="88" fill="#dde9f5"/>
        <path d="M 812.1816 1759.0043 L 1041.1408 1758.4643 M 1040.5283 1757.664 L 1040.2109 1847.7438 M 1040.8309 1846.641 L 812.4098 1846.723 M 814.0746 1847.6241 L 813.9989 1757.6488 M 812.431 1758.5064 L 1040.7753 1758.1624 M 1040.937 1757.4145 L 1040.5261 1846.3914 M 1041.081 1846.5476 L 814.3239 1846.7117 M 814.2292 1847.3742 L 814.0175 1758.7502" stroke="#199ce8" stroke-linecap="round" stroke-linejoin="round" stroke-width="4"/>
        <text transform="translate(819 1774.5)" fill="black">
          <tspan font-family="Verdana" font-size="16" fill="black" x="76.27344" y="16">Store in</tspan>
          <tspan font-family="Verdana" font-style="italic" font-size="16" fill="black" x="10.777344" y="54">indexed-in-KERISSE.md</tspan>
        </text>
      </g>
      <g id="Line_126">
        <path d="M 661.61915 1868.9028 L 796.4548 1835.9285 M 662.0567 1868.1473 L 795.6064 1835.2447" marker-end="url(#FilledArrow_Marker_3)" stroke="#199ce8" stroke-linecap="round" stroke-linejoin="round" stroke-width="4"/>
      </g>
      <g id="Graphic_128">
        <rect x="709.6973" y="1837.2843" width="41.742188" height="29" fill="white"/>
        <text transform="translate(714.6973 1842.2843)" fill="black">
          <tspan font-family="Verdana" font-size="16" fill="black" x="0" y="16">URL</tspan>
        </text>
      </g>
      <g id="Graphic_129">
        <rect x="933" y="1978.5" width="235" height="120.5" fill="#dde9f5"/><a xlink:href="https://weboftrust.github.io/WOT-terms/docs/Overview/indexed-in-KERISSE">
          
          <path d="M 931.9662 1978.4988 L 1168.5886 1978.7848 M 1168.0056 1976.8525 L 1168.1977 2099.946 M 1168.9822 2099.125 L 931.7911 2099.9412 M 932.6708 2101.1128 L 933.005 1976.65 M 932.2165 1978.018 L 1168.2588 1978.3727 M 1168.4749 1976.6022 L 1168.6175 2098.8776 M 1169.2325 2098.9702 L 932.9242 2099.7479 M 932.7967 2100.8625 L 933.217 1978.25" stroke="#199ce8" stroke-linecap="round" stroke-linejoin="round" stroke-width="4"/>
          <text transform="translate(938 1991.25)" fill="black">
            <tspan font-family="Verdana" font-size="16" fill="black" x="37.75" y="16">Sort alphabetically</tspan>
            <tspan font-family="Verdana" font-size="16" fill="black" x="63.94922" y="35">and put in a</tspan>
            <tspan font-family="Verdana" font-size="16" fill="black" x="56.83594" y="54">nice HTML list</tspan>
            <tspan font-family="Verdana" font-style="italic" font-size="16" fill="black" x="15.277344" y="92">indexed-in-KERISSE.md</tspan>
          </text>
        </a>
      </g>
      <g id="Line_130">
        <path d="M 950.5037 1847.8628 L 1009.1403 1960.1415 M 951.1757 1847.273 L 1009.5017 1958.4454" marker-end="url(#FilledArrow_Marker_3)" stroke="#199ce8" stroke-linecap="round" stroke-linejoin="round" stroke-width="4"/>
      </g>
      <g id="Graphic_132">
        <a xlink:href="https://github.com/WebOfTrust/WOT-terms/blob/main/scrapers/sortAndStyleScrapedIndex.mjs">
          <text transform="translate(943 1893.2285)" fill="black">
            <tspan font-family="Courier New" font-size="16" fill="black" x="0" y="13">sortAndStyleScrapedIndex.mjs</tspan>
          </text>
        </a>
      </g>
      <g id="Line_131">
        <path d="M 1079.9369 1916.2285 C 1081.9668 1928.539 1084.6613 1947.438 1085.7726 1966.6075" marker-end="url(#Arrow_Marker)" stroke="black" stroke-linecap="round" stroke-linejoin="round" stroke-width="1"/>
      </g>
      <g id="Graphic_133">
        <rect x="730.8404" y="1344.2675" width="130" height="60" fill="#dde9f5"/>
        <path d="M 729.876 1344.2681 L 862.3245 1344.1881 M 861.8319 1342.9974 L 860.9759 1405.1177 M 862.1251 1403.3664 L 730.8941 1403.639 M 731.74 1405.3575 L 730.8206 1342.9203 M 730.1258 1343.822 L 862.0654 1343.811 M 862.1723 1342.7486 L 861.3906 1403.1206 M 862.3756 1403.3382 L 731.9651 1403.5878 M 731.8084 1405.1102 L 730.9565 1344.0195" stroke="#199ce8" stroke-linecap="round" stroke-linejoin="round" stroke-width="4"/>
        <text transform="translate(735.8404 1355.2675)" fill="black">
          <tspan font-family="Verdana" font-size="16" fill="black" x="2.5351562" y="16">Remove URL&#x2019;s </tspan>
          <tspan font-family="Verdana" font-size="16" fill="black" x="3.2929688" y="35">we don&#x2019;t want</tspan>
        </text>
      </g>
      <g id="Graphic_137">
        <a xlink:href="https://github.com/WebOfTrust/WOT-terms/blob/main/scrapers/removeURLsFromSitemap.mjs">
          <text transform="translate(839 1466.0524)" fill="black">
            <tspan font-family="Courier New" font-size="16" fill="black" x="0" y="13">removeURLsFromSitemap.mjs</tspan>
          </text>
        </a>
      </g>
      <g id="Line_136">
        <path d="M 957.6444 1461.0524 C 954.2545 1451.0444 944.8442 1436.6779 920 1421.3333 C 905.9364 1412.6472 888.9392 1404.8902 872.0946 1398.301" marker-end="url(#Arrow_Marker)" stroke="black" stroke-linecap="round" stroke-linejoin="round" stroke-width="1"/>
      </g>
      <g id="Line_138">
        <path d="M 796.3629 1406.2675 C 794.875 1442.2185 787.7248 1487.764 777.2081 1536.5658 C 775.5044 1543.6815 771.7235 1549.5906 769.6503 1556.0659 M 796.3629 1406.2675 C 795.875 1441.2185 788.7248 1486.764 778.2081 1535.5658 C 776.5044 1542.6815 772.7235 1548.5906 770.6503 1555.0659" marker-end="url(#FilledArrow_Marker_3)" stroke="#199ce8" stroke-linecap="round" stroke-linejoin="round" stroke-width="4"/>
      </g>
    </g>
  </g>
</svg>
