<svg xmlns="http://www.w3.org/2000/svg" width="774.89" height="824.066" filter="invert(93%) hue-rotate(180deg)">
    <defs>
        <style>
            @font-face {
                font-family: &quot;
                Virgil&quot;
                ;
                src: url(https://excalidraw.com/Virgil.woff2)
            }

            @font-face {
                font-family: &quot;
                Cascadia&quot;
                ;
                src: url(https://excalidraw.com/Cascadia.woff2)
            }
        </style>
    </defs>
    <path fill="#fff" d="M0 0h774.89v824.066H0z"/>
    <path fill="none" stroke="#c92a2a" stroke-linecap="round" stroke-width="2" d="M195.744 206.67c33.71-5.46 62.41-6.36 101.73-3m-103.85 2.21c38.06-1.99 73.73-3.3 100.62-3.79m4.99 5.18c-3.09 6.8-1.56 26.38-3.16 59.34m-.76-64.43c2.45 26.34 1.48 51.77.22 66.74m-.86-2.87c-37.18-2.19-69.25-1.96-99.87-1.83m100.22 4.33c-22.28-2.64-41.48-.62-99.62-1.11m.16 1.14c4.55-19.98.39-31.36-3.14-68.32m4.49 66.94c.12-25.86-2.26-47.34-3.12-64.34"/>
    <text x="17.578" fill="#c92a2a" dominant-baseline="text-before-edge" font-family="Cascadia, Segoe UI Emoji" font-size="20" style="white-space:pre" text-anchor="middle" transform="translate(227.986 223.9)">icp</text>
    <text x="24.609" fill="#c92a2a" dominant-baseline="text-before-edge" font-family="Cascadia, Segoe UI Emoji" font-size="28" style="white-space:pre" text-anchor="middle" transform="translate(208.21 165.355)">KEL</text>
    <path fill="none" stroke="#c92a2a" stroke-linecap="round" stroke-width="2" d="M193.406 381.47c26.28-.11 47.55-1.22 102.02-5.67m-101.7 3.54c35.88 1.21 71.72-.32 98.92.08m-.91-3.85c.43 22.71 2.99 38.47 4.33 64.26m-.55-60.92c-1.24 17.73-.03 33.93-1.9 63.92m3.64-.25c-31.94-3.98-63.36-4.74-99.85-.64m95.26-.32c-31.24.67-66.56.78-97.3 2.3m-1.61.27c2.37-23.69 2.86-49.61 3.65-61.8m-3.97 62.89c-.78-18.56-1-35.34-.24-66.18"/>
    <text x="17.578" fill="#c92a2a" dominant-baseline="text-before-edge" font-family="Cascadia, Segoe UI Emoji" font-size="20" style="white-space:pre" text-anchor="middle" transform="translate(226.638 399.34)">ixn</text>
    <g stroke-linecap="round" mask="url(#mask-PAhAnl3eSYXir_AFFykLp)">
        <path fill="none" stroke="#c92a2a" stroke-width="2" d="M254.328 377.416c-4.29-26.73-7.3-42.42-2.28-102.92m-1.26 101.83c-.09-25.59-1.88-54.28-1.55-104"/>
        <path fill="none" stroke="#c92a2a" stroke-width="2" d="M262.288 300.806c-6.24-10.26-10.94-9.39-10.01-27.21m6.47 26.13c-1.69-5.6-5.53-14.23-9.29-28.3"/>
        <path fill="none" stroke="#c92a2a" stroke-width="2" d="M241.768 300.906c-1.76-10.07-1.97-9.22 10.51-27.31m-14.05 26.22c3.74-5.52 5.33-14.18 11.23-28.39"/>
    </g>
    <mask id="mask-PAhAnl3eSYXir_AFFykLp">
        <path fill="#fff" d="M0 0h354.308v580.935H0z"/>
        <path d="M244.474 313.146h11.719v24h-11.719z"/>
    </mask>
    <text x="5.859" fill="#c92a2a" dominant-baseline="text-before-edge" font-family="Cascadia, Segoe UI Emoji" font-size="20" style="white-space:pre" text-anchor="middle" transform="translate(244.474 313.146)">p</text>
    <text x="16.406" fill="#2b8a3e" dominant-baseline="text-before-edge" font-family="Cascadia, Segoe UI Emoji" font-size="28" style="white-space:pre" text-anchor="middle" transform="translate(663.337 185.946)">VC</text>
    <path fill="none" stroke="#2b8a3e" stroke-linecap="round" stroke-width="2" d="M632.484 228.588c36.51-2.55 71.22-2.16 94.39-2.57m-96.87-1.66c33.56 2.04 65.59 2.48 101.93 1.35m1.22 3.51c-6.04 23.05-3.83 44.34-1.34 61.11m.79-65.32c-4.25 21.47-1.41 43.44-2.96 63.22m3.73 3.51c-27.65-5.45-48.45-1.87-103.86 1.54m102.67-3.54c-20.83 1.9-43.35 1.45-102.19 2.15m3.02-1.47c-1.32-22.79-1.02-53.51-3.08-68.13m1.67 66.53c-.14-17.72.29-34.36-.92-64.32"/>
    <text x="17.578" fill="#2b8a3e" dominant-baseline="text-before-edge" font-family="Cascadia, Segoe UI Emoji" font-size="20" style="white-space:pre" text-anchor="middle" transform="translate(663.176 245.958)">iss</text>
    <path fill="none" stroke="#1864ab" stroke-linecap="round" stroke-width="2" d="M392.255 12.21c37.49-2.59 79.05-4.84 109.15-1.09m-109.82.84c26.57-1.18 54.37-2.67 113.24-3.24m1.98 1.89c-.19 17.45-1.93 34.92-5.08 69.73m1.44-70.64c-.03 16.86.05 30.5.36 66.48m4.27 1.2c-33.06 1.11-68.07-1.84-118.33-1.89m115.58 2.44c-45.64-.65-85.89 1.62-112.06-1.02m-1.65 1.42c-2.14-23.6 1.08-48.96-.57-68.51m3.12 67.1c-1.3-13.55-2.41-30.84-.6-66.37"/>
    <text x="23.438" fill="#1864ab" dominant-baseline="text-before-edge" font-family="Cascadia, Segoe UI Emoji" font-size="20" style="white-space:pre" text-anchor="middle" transform="translate(424.508 31.5)">ACDC</text>
    <g stroke-linecap="round" mask="url(#mask-ndDbInFYahqVVkeGegNJM)">
        <path fill="none" stroke="#343a40" stroke-width="2" d="M454.667 80.73c5.53 39.49 4.53 69.22 12.62 142.4m-13.38-140.35c4.2 32.76 8.26 65.79 9.65 141.84"/>
        <path fill="none" stroke="#343a40" stroke-width="2" d="M451.387 196.26c6.3 11.04 5.69 12.34 14.21 26.85m-14.97-24.79c3.47 6.08 7.89 12.44 11.24 26.28"/>
        <path fill="none" stroke="#343a40" stroke-width="2" d="M471.897 195.59c1.25 11.46-4.41 12.92-6.3 27.52m5.54-25.47c-1.26 6.4-1.57 12.91-9.27 26.96"/>
    </g>
    <mask id="mask-ndDbInFYahqVVkeGegNJM">
        <path fill="#fff" d="M0 0h565.247v324.642H0z"/>
        <path d="M448.734 140.946h23.438v24h-23.438z"/>
    </mask>
    <text x="11.719" fill="#343a40" dominant-baseline="text-before-edge" font-family="Cascadia, Segoe UI Emoji" font-size="20" style="white-space:pre" text-anchor="middle" transform="translate(448.734 140.946)">ri</text>
    <path fill="none" stroke="#862e9c" stroke-linecap="round" stroke-width="2" d="M419.447 228.935c36.79-5.74 72.82-5.67 93.73-3.89m-96.14-.46c29.9 4.2 62.47 3.56 99.79 1.28m3.57-2.14c-2.23 20.31-2.06 33.01-5.09 64.18m1.41-60.05c-1.87 13.23-2.59 33.69-1.84 62.74m2.9-2.27c-30.02 6.15-59.88.29-104.55 4.86m102.69-3.41c-32-1.79-63.63-2.57-97.88.33m2.56-.23c-4.47-19.4-3.47-32.84-6.6-64.68m1.91 63.99c2.63-16.12.94-36.32.52-62.43"/>
    <text x="17.578" fill="#862e9c" dominant-baseline="text-before-edge" font-family="Cascadia, Segoe UI Emoji" font-size="20" style="white-space:pre" text-anchor="middle" transform="translate(449.209 246.285)">vcp</text>
    <g stroke-linecap="round" mask="url(#mask-z6txftNihgDoW-vzWzu6m)">
        <path fill="none" stroke="#343a40" stroke-width="2" d="M406.17 84.278c-35.72 33.77-72.86 59.32-143.54 116m143.35-115.91c-53.58 45.77-105.89 87.18-145.75 118.23M277.56 176.938c-3.47 8.34-8.58 10.9-16.85 25.1m16.66-25.02c-6.38 11.37-12.57 19.69-19.06 27.34"/>
        <path fill="none" stroke="#343a40" stroke-width="2" d="M290.24 193.078c-6.64 4.5-14.95 2.98-29.53 8.96m29.34-8.88c-10.8 5.63-21.61 8.07-31.74 11.2"/>
    </g>
    <mask id="mask-z6txftNihgDoW-vzWzu6m">
        <path fill="#fff" d="M0 0h647.189v300.838H0z"/>
        <path d="M327.551 130.648h11.719v24h-11.719z"/>
    </mask>
    <text x="5.859" fill="#343a40" dominant-baseline="text-before-edge" font-family="Cascadia, Segoe UI Emoji" font-size="20" style="white-space:pre" text-anchor="middle" transform="translate(327.551 130.648)">i</text>
    <text x="32.813" fill="#862e9c" dominant-baseline="text-before-edge" font-family="Cascadia, Segoe UI Emoji" font-size="28" style="white-space:pre" text-anchor="middle" transform="translate(483.986 183.088)">MGMT</text>
    <g stroke-linecap="round" mask="url(#mask-OBBzy62GQaweMgXkdw96S)">
        <path fill="none" stroke="#343a40" stroke-width="2" d="M666.825 224.747c-48.53-47.96-92.18-90.25-159.35-159.1m155.05 155.37c-55-58.56-112.47-116.25-152.59-153.67"/>
        <path fill="none" stroke="#343a40" stroke-width="2" d="M540.775 83.427c-12.11-8.37-19.14-9.01-34.12-17.14m29.18 12.85c-8.42-5.87-17.73-9.09-26.34-10.9"/>
        <path fill="none" stroke="#343a40" stroke-width="2" d="M526.565 98.237c-8.05-12.79-10.97-17.72-19.91-31.95m14.98 27.66c-2.82-11.7-6.72-20.55-12.14-25.71"/>
    </g>
    <mask id="mask-OBBzy62GQaweMgXkdw96S">
        <path fill="#fff" d="M0 0h917.42v476.018H0z"/>
        <path d="M581.244 131.936h11.719v24h-11.719z"/>
    </mask>
    <text x="5.859" fill="#343a40" dominant-baseline="text-before-edge" font-family="Cascadia, Segoe UI Emoji" font-size="20" style="white-space:pre" text-anchor="middle" transform="translate(581.244 131.936)">i</text>
    <g stroke-linecap="round" mask="url(#mask-HDmbzAs3xUEHMNUnKjUid)">
        <path fill="none" stroke="#343a40" stroke-width="2" d="M414.893 248.82c-44.5-.9-92.6-6.01-114.9-15.5m114.15 15.97c-27.49-2.18-52.37-6.26-113.23-13.12"/>
        <path fill="none" stroke="#343a40" stroke-width="2" d="M331.793 228.59c-11.52 6.04-26.69 9.11-31.72 5.17m30.98-4.7c-8.66 2.37-15.11 2.88-30.06 7.55"/>
        <path fill="none" stroke="#343a40" stroke-width="2" d="M329.393 248.97c-10.61-2.07-24.82-7.07-29.32-15.21m28.57 15.68c-8.52-2.15-14.43-6.16-27.65-12.83"/>
    </g>
    <mask id="mask-HDmbzAs3xUEHMNUnKjUid">
        <path fill="#fff" d="M0 0h625.573v363.305H0z"/>
        <path d="M345.299 230.628h23.438v24h-23.438z"/>
    </mask>
    <text x="11.719" fill="#343a40" dominant-baseline="text-before-edge" font-family="Cascadia, Segoe UI Emoji" font-size="20" style="white-space:pre" text-anchor="middle" transform="translate(345.299 230.628)">ii</text>
    <g stroke-linecap="round" mask="url(#mask-lr0CWtvwoyFtSfaE_K2Vv)">
        <path fill="none" stroke="#343a40" stroke-width="2" d="M294.803 380.906c48.13-39.89 93.99-71.66 121.24-85.45m-121.26 80c29.03-18.43 60.95-40.15 117.12-84.55"/>
        <path fill="none" stroke="#343a40" stroke-width="2" d="M394.883 320.196c7.59-16.43 13.64-25.16 19.29-26.44m-19.31 20.98c3.16-5.1 8.84-11.62 15.17-25.53"/>
        <path fill="none" stroke="#343a40" stroke-width="2" d="M382.363 303.936c12.27-10.13 23.22-12.51 31.81-10.18m-31.84 4.73c6.48-.69 15.39-3.04 27.7-9.28"/>
    </g>
    <mask id="mask-lr0CWtvwoyFtSfaE_K2Vv">
        <path fill="#fff" d="M0 0h513.773v561.304H0z"/>
        <path d="M348.903 322.781h11.719v24h-11.719z"/>
    </mask>
    <text x="5.859" fill="#343a40" dominant-baseline="text-before-edge" font-family="Cascadia, Segoe UI Emoji" font-size="20" style="white-space:pre" text-anchor="middle" transform="translate(348.903 322.781)">a</text>
    <path fill="none" stroke="#c92a2a" stroke-linecap="round" stroke-width="2" d="M194.192 564.206c23.69-7.33 47.83-7.3 96.74-3.54m-99.68 1.42c35.5-.99 70.89-3.44 102.46-3.12m1.91-.95c-3.18 20.08-2.49 44.77-1.75 65.72m.46-62.76c.19 18.02-1.64 39.64-3.68 62.7m5.35 4.26c-45.2-3.57-77.89-1.72-103.22-1.11m98.31-1.17c-26.67-.15-52.03-2.04-99.78-.67m-1.3.06c4.11-23.05 4.21-43.81 1.02-67.97m.67 68.8c-1.64-24.22-.42-46.76-.06-65.4"/>
    <text x="17.578" fill="#c92a2a" dominant-baseline="text-before-edge" font-family="Cascadia, Segoe UI Emoji" font-size="20" style="white-space:pre" text-anchor="middle" transform="translate(224.854 580.306)">ixn</text>
    <g stroke-linecap="round" mask="url(#mask-YyDoLzUREUrbg9OAsdKNN)">
        <path fill="none" stroke="#c92a2a" stroke-width="2" d="M242.087 558.945c4.42-39.41 1.51-80.06 5.81-107.56m-2.12 105.21c.46-22.72-1.57-45.36-1.92-108.67"/>
        <path fill="none" stroke="#c92a2a" stroke-width="2" d="M251.607 478.135c-.93-11.15-7.85-23.34-5.35-28.41m9.05 26.06c-1.41-5.74-5.83-11.45-13.09-29.53"/>
        <path fill="none" stroke="#c92a2a" stroke-width="2" d="M231.087 478.415c6.45-10.89 6.91-23.19 15.17-28.69m-11.47 26.34c2.98-5.9 2.94-11.68 7.43-29.81"/>
    </g>
    <mask id="mask-YyDoLzUREUrbg9OAsdKNN">
        <path fill="#fff" d="M0 0h345.501v763.962H0z"/>
        <path d="M239.385 491.182h11.719v24h-11.719z"/>
    </mask>
    <text x="5.859" fill="#c92a2a" dominant-baseline="text-before-edge" font-family="Cascadia, Segoe UI Emoji" font-size="20" style="white-space:pre" text-anchor="middle" transform="translate(239.385 491.182)">p</text>
    <g stroke-linecap="round" mask="url(#mask-7Cw56YAAQUcvKvbFtJpMW)">
        <path fill="none" stroke="#343a40" stroke-width="2" d="M623.764 260.624c-31.78-2.93-74.18-3-103.65-1.6m105.63-1.63c-22.63.49-45.15-.83-105.95-.5"/>
        <path fill="none" stroke="#343a40" stroke-width="2" d="M545.044 249.344c-4.68 2.46-20.09 6.94-25.8 11.55m27.78-14.78c-6.41 2.76-12.5 4.22-28.1 12.65"/>
        <path fill="none" stroke="#343a40" stroke-width="2" d="M545.024 269.864c-4.85-4.65-20.25-7.28-25.78-8.97m27.76 5.74c-6.06-1.57-12.15-4.45-28.08-7.87"/>
    </g>
    <mask id="mask-7Cw56YAAQUcvKvbFtJpMW">
        <path fill="#fff" d="M0 0h832.767v360.867H0z"/>
        <path d="M561.969 244.482h23.438v24h-23.438z"/>
    </mask>
    <text x="11.719" fill="#343a40" dominant-baseline="text-before-edge" font-family="Cascadia, Segoe UI Emoji" font-size="20" style="white-space:pre" text-anchor="middle" transform="translate(561.969 244.482)">ri</text>
    <g stroke-linecap="round" mask="url(#mask-d2e5sd7h6j5I9JP7oPH02)">
        <path fill="none" stroke="#343a40" stroke-width="2" d="M300.28 561.976c103.14-83.55 203.77-166.05 329.08-268.98m-327.94 267.03c122.02-102.43 247.01-204.41 327.92-268.54M611.83 320.076c5.94-13.85 11.6-21.76 19.04-24.81m-16.88 21.11c6.01-9.75 13.09-18.7 16.85-23.99"/>
        <path fill="none" stroke="#343a40" stroke-width="2" d="M598.99 304.066c9.57-8.79 19.17-11.8 31.88-8.8m-29.71 5.1c11.17-3.67 23.14-6.54 29.68-7.98"/>
    </g>
    <mask id="mask-d2e5sd7h6j5I9JP7oPH02">
        <path fill="#fff" d="M0 0h728.55v929.844H0z"/>
        <path d="M447.346 413.717h35.156v24h-35.156z"/>
    </mask>
    <text x="17.578" fill="#343a40" dominant-baseline="text-before-edge" font-family="Cascadia, Segoe UI Emoji" font-size="20" style="white-space:pre" text-anchor="middle" transform="translate(447.346 413.717)">a.d</text>
    <g stroke-linecap="round" mask="url(#mask-FLzcScg28jgIMDyAnlXFP)">
        <path fill="none" stroke="#343a40" stroke-width="2" d="M188.487 573.313c-34.8-136.48-68.49-275.21-93.26-365.61m92.45 366.7c-29.89-113.14-60.01-228.64-91.52-364.32m-.01-3.1c95.38-50.25 186.49-107.36 288.16-160.39m-288.9 162.24c110.78-64.86 222.54-127.89 292.11-163.77"/>
        <path fill="none" stroke="#343a40" stroke-width="2" d="M369.347 64.723c7.79-6.31 16.74-17.01 17.81-22.89m-19.14 24.7c7.07-6.15 11.22-14.68 20.67-20.77"/>
        <path fill="none" stroke="#343a40" stroke-width="2" d="M359.677 46.633c11.46.54 24.05-3.35 27.48-4.8m-28.82 6.6c10.24-.61 17.43-3.45 30.35-2.67"/>
    </g>
    <mask id="mask-FLzcScg28jgIMDyAnlXFP">
        <path fill="#fff" d="M0 0h578.566v1203.652H0z"/>
        <path d="M77.863 197.659h35.156v24H77.863z"/>
    </mask>
    <text x="17.578" fill="#343a40" dominant-baseline="text-before-edge" font-family="Cascadia, Segoe UI Emoji" font-size="20" style="white-space:pre" text-anchor="middle" transform="translate(77.863 197.66)">a.i</text>
    <path fill="none" stroke="#c92a2a" stroke-dasharray="8 10" stroke-linecap="round" stroke-width="2.5" d="M195.503 752.976c34.17-5.49 73.05-1.02 99.28-3.89m-2.37-1.25c-1.64 20.53 2.14 49.84-.23 64.42m1.75 5.54c-31.43-4.9-65.46-.2-101.48-6.32m.24.66c-1.18-12.33 3.07-31.87-4.1-60.7"/>
    <text x="17.578" fill="#c92a2a" dominant-baseline="text-before-edge" font-family="Cascadia, Segoe UI Emoji" font-size="20" style="white-space:pre" text-anchor="middle" transform="translate(224.905 770.066)">ixn</text>
    <g stroke-linecap="round" mask="url(#mask-tCJdnBD7lV1nz7TjW_HL8)">
        <path fill="none" stroke="#c92a2a" stroke-dasharray="8 10" stroke-width="2.5" d="M246.355 739.46c-3.08-28.65-3.48-55.58-3.5-105.02"/>
        <path fill="none" stroke="#c92a2a" stroke-width="2.5" d="M254.715 662.53c-4.45-9.02-7.55-16.37-14.4-25.97M234.195 662.63c.64-9.11 2.62-16.47 6.12-26.07"/>
    </g>
    <mask id="mask-tCJdnBD7lV1nz7TjW_HL8">
        <path fill="#fff" d="M0 0h345.399v946.698H0z"/>
        <path d="M239.283 673.917h11.719v24h-11.719z"/>
    </mask>
    <text x="5.859" fill="#c92a2a" dominant-baseline="text-before-edge" font-family="Cascadia, Segoe UI Emoji" font-size="20" style="white-space:pre" text-anchor="middle" transform="translate(239.283 673.917)">p</text>
    <path fill="none" stroke="#2b8a3e" stroke-dasharray="8 10" stroke-linecap="round" stroke-width="2.5" d="M634.698 402.832c28.23.81 57.78 2.81 99.89-1.34m4.59-.15c.67 21.98-4.47 40.04-4.68 65.81m5.65 4.29c-28.42-7.2-54.35-.09-106.55.52m7.45-3.52c.06-21.86-2.24-40.91-7.79-60.57"/>
    <text x="17.578" fill="#2b8a3e" dominant-baseline="text-before-edge" font-family="Cascadia, Segoe UI Emoji" font-size="20" style="white-space:pre" text-anchor="middle" transform="translate(669.57 424.012)">rev</text>
    <g stroke-linecap="round" mask="url(#mask-LjCBXOs6ww95aFHOSEx1k)">
        <path fill="none" stroke="#2b8a3e" stroke-dasharray="8 10" stroke-width="2.5" d="M691.886 398.92c-4.55-32.49-1.95-70.19-7.78-109.73"/>
        <path fill="none" stroke="#2b8a3e" stroke-width="2.5" d="M701.026 318.45c-8-7.98-9.47-21.03-20.74-31.48"/>
        <path fill="none" stroke="#2b8a3e" stroke-width="2.5" d="M680.596 320.43c-1.58-8.38 3.39-22.05-.31-33.46"/>
    </g>
    <mask id="mask-LjCBXOs6ww95aFHOSEx1k">
        <path fill="#fff" d="M0 0h787.918v602.056H0z"/>
        <path d="M682.053 332.067h11.719v24h-11.719z"/>
    </mask>
    <text x="5.859" fill="#2b8a3e" dominant-baseline="text-before-edge" font-family="Cascadia, Segoe UI Emoji" font-size="20" style="white-space:pre" text-anchor="middle" transform="translate(682.053 332.067)">p</text>
    <g stroke-linecap="round" mask="url(#mask-i6MZj2-rvwx6xSgZ-g2qO)">
        <path fill="none" stroke="#343a40" stroke-dasharray="8 10" stroke-width="2.5" d="M739.178 396.237c-.26-47.96 7.46-95.88 19.77-206.28m2.36 3.39c-59.85-35.48-115.99-73.76-248.71-152.1"/>
        <path fill="none" stroke="#343a40" stroke-width="2.5" d="M543.138 47.977c-10.86-2.17-14.51-3.64-30.64-7.19M532.568 65.567c-8.56-6.14-9.74-11.71-20.07-24.78"/>
    </g>
    <mask id="mask-i6MZj2-rvwx6xSgZ-g2qO">
        <path fill="#fff" d="M0 0h1084.608v848.499H0z"/>
        <path d="M753.172 178.369h11.719v24h-11.719z"/>
    </mask>
    <text x="5.859" fill="#343a40" dominant-baseline="text-before-edge" font-family="Cascadia, Segoe UI Emoji" font-size="20" style="white-space:pre" text-anchor="middle" transform="translate(753.172 178.37)">i</text>
    <g stroke-linecap="round" mask="url(#mask-LL1T9y41RE8GA6kctV9hu)">
        <path fill="none" stroke="#343a40" stroke-dasharray="8 10" stroke-width="2.5" d="M295.914 752.155c91.9-72.6 179.14-144.75 343.36-277.11"/>
        <path fill="none" stroke="#343a40" stroke-width="2.5" d="M622.054 500.415c7.75-5.56 7.25-11.02 18.87-24.38M609.154 484.455c11.06-1.4 13.94-2.69 31.77-8.42"/>
    </g>
    <mask id="mask-LL1T9y41RE8GA6kctV9hu">
        <path fill="#fff" d="M0 0h738.457v1130.105H0z"/>
        <path d="M450.048 601.436h35.156v24h-35.156z"/>
    </mask>
    <text x="17.578" fill="#343a40" dominant-baseline="text-before-edge" font-family="Cascadia, Segoe UI Emoji" font-size="20" style="white-space:pre" text-anchor="middle" transform="translate(450.048 601.436)">a.d</text>
    <g stroke-linecap="round" mask="url(#mask-EvHd6ULt_85XXkdIT63i9)">
        <path fill="none" stroke="#343a40" stroke-dasharray="8 10" stroke-width="2.5" d="M187.481 751.31c-51.8-201.08-108.56-402.6-159.7-572.24m-1.35-.2c131.47-52.68 266.21-108.37 363.8-155.85"/>
        <path fill="none" stroke="#343a40" stroke-width="2.5" d="M367.691 45.55c10.16-7.6 16.97-16.46 23.04-25.15"/>
        <path fill="none" stroke="#343a40" stroke-width="2.5" d="M359.091 26.92c12.88-1.03 22.73-3.33 31.64-6.52"/>
    </g>
    <mask id="mask-EvHd6ULt_85XXkdIT63i9">
        <path fill="#fff" d="M0 0h648.895v1576.475H0z"/>
        <path d="M10 168.121h35.156v24H10z"/>
    </mask>
    <text x="17.578" fill="#343a40" dominant-baseline="text-before-edge" font-family="Cascadia, Segoe UI Emoji" font-size="20" style="white-space:pre" text-anchor="middle" transform="translate(10 168.12)">a.i</text>
    <text x="200.391" fill="#343a40" dominant-baseline="text-before-edge" font-family="Cascadia, Segoe UI Emoji" font-size="36" style="white-space:pre" text-anchor="middle" transform="translate(346.108 727.4)">backerless</text>
    <text x="200.391" y="43.2" fill="#343a40" dominant-baseline="text-before-edge" font-family="Cascadia, Segoe UI Emoji" font-size="36" style="white-space:pre" text-anchor="middle" transform="translate(346.108 727.4)">issuance/revocation</text>
    <g stroke-linecap="round" mask="url(#mask-zMmD86X0BEH44MwZ1y-7L)">
        <path fill="none" stroke="#343a40" stroke-dasharray="8 10" stroke-width="2.5" d="M630.683 401.27c-25.96-26.79-48.72-44.26-111.15-108.55"/>
        <path fill="none" stroke="#343a40" stroke-width="2.5" d="M548.203 306.46c-8.45-7.11-12.92-3.77-26.42-12.18M533.673 320.96c-5.19-10.44-6.52-10.23-11.89-26.68"/>
    </g>
    <mask id="mask-zMmD86X0BEH44MwZ1y-7L">
        <path fill="#fff" d="M0 0h841.11v609.308H0z"/>
        <path d="M561.516 333.706h23.438v24h-23.438z"/>
    </mask>
    <text x="11.719" fill="#343a40" dominant-baseline="text-before-edge" font-family="Cascadia, Segoe UI Emoji" font-size="20" style="white-space:pre" text-anchor="middle" transform="translate(561.516 333.706)">ri</text>
</svg>