
<svg version="1.1" xmlns="http://www.w3.org/2000/svg" xmlns:xlink="http://www.w3.org/1999/xlink" xmlns:dc="http://purl.org/dc/elements/1.1/" viewBox="-57 -14 946 766">
  <defs>
    <marker orient="auto" overflow="visible" markerUnits="strokeWidth" id="FilledArrow_Marker" stroke-linejoin="miter" stroke-miterlimit="10" viewBox="-1 -4 10 8" markerWidth="10" markerHeight="8" color="black">
      <g>
        <path d="M 8 0 L 0 -3 L 0 3 Z" fill="currentColor" stroke="currentColor" stroke-width="1"/>
      </g>
    </marker>
  </defs>
  <g id="File_system" stroke="none" stroke-opacity="1" fill-opacity="1" stroke-dasharray="none" fill="none">
    <title>File system</title>
    <g id="File_system_Layer_1">
      <title>Layer 1</title>
      <g id="Graphic_2">
        <title>Stack</title>
        <rect x="114" y="164" width="278" height="56" fill="#dde9f5"/><a xlink:href="https://github.com/WebOfTrust/WOT-terms/tree/main/clientModules">
          
          <path d="M 112.64011 164.00333 L 394.15537 163.31491 M 392.8365 161.87758 L 392.35884 221.10873 M 393.6271 220.22188 L 113.07878 220.73804 M 114.0673 222.58242 L 113.99807 162.31756 M 112.88962 163.55295 L 393.07473 163.01373 M 393.33334 161.62957 L 392.8142 219.9758 M 393.87733 220.10447 L 114.31557 220.70057 M 114.26781 222.33247 L 114.17204 163.75009" stroke="#199ce8" stroke-linecap="round" stroke-linejoin="round" stroke-width="4"/>
          <text transform="translate(119 182.5)" fill="black">
            <tspan font-family="Verdana" font-size="16" fill="black" x="0" y="16">&gt; clientModules</tspan>
          </text>
        </a>
      </g>
      <g id="Graphic_9">
        <rect x="114" y="317" width="278" height="56" fill="#dde9f5"/><a xlink:href="https://github.com/WebOfTrust/WOT-terms/tree/main/fetchExternalContent">
          
          <path d="M 112.38643 317.00476 L 392.22256 316.17887 M 391.00797 314.5376 L 391.30837 375.3163 M 392.4065 373.9313 L 112.41332 372.9872 M 113.65789 374.29273 L 114.01151 315.07214 M 112.63639 316.73972 L 391.26556 315.75006 M 391.3419 314.28718 L 391.63407 373.67715 M 392.65636 373.7232 L 113.91537 372.8272 M 113.75784 374.04184 L 114.24538 316.74997" stroke="#199ce8" stroke-linecap="round" stroke-linejoin="round" stroke-width="4"/>
          <text transform="translate(119 335.5)" fill="black">
            <tspan font-family="Verdana" font-size="16" fill="black" x="0" y="16">&gt; fetchExternalContent</tspan>
          </text>
        </a>
      </g>
      <g id="Graphic_16">
        <text transform="translate(507.8047 174)" fill="black">
          <tspan font-family="Courier New" font-size="16" fill="black" x="0" y="13">These scripts run in the browser</tspan>
          <tspan font-family="Courier New" font-size="16" fill="black" x="28.804688" y="31">(a.k.a.&#x201c;DOM manipulation&#x201d;)</tspan>
        </text>
      </g>
      <g id="Line_17">
        <line x1="502.8047" y1="192" x2="403.9" y2="192" marker-end="url(#FilledArrow_Marker)" stroke="black" stroke-linecap="round" stroke-linejoin="round" stroke-width="1"/>
      </g>
      <g id="Graphic_19">
        <text transform="translate(546.21094 314)" fill="black">
          <tspan font-family="Courier New" font-size="16" fill="black" x="57.609375" y="13">These scripts together</tspan>
          <tspan font-family="Courier New" font-size="16" fill="black" x="67.21094" y="31">fetch remote content</tspan>
          <tspan font-family="Courier New" font-size="16" fill="black" x="0" y="49">and make it available in some form</tspan>
        </text>
      </g>
      <g id="Line_18">
        <line x1="541.21094" y1="342.47426" x2="403.8996" y2="343.6776" marker-end="url(#FilledArrow_Marker)" stroke="black" stroke-linecap="round" stroke-linejoin="round" stroke-width="1"/>
      </g>
      <g id="Graphic_22">
        <rect x="114" y="456" width="278" height="56" fill="#dde9f5"/><a xlink:href="https://github.com/WebOfTrust/WOT-terms/tree/main/search-index-typesense">
          
          <path d="M 112.98674 456.0018 L 392.63305 455.50003 M 391.65 454.7634 L 392.1916 512.1303 M 393.63967 511.08146 L 113.39175 512.8984 M 114.0684 514.4691 L 113.99922 455.33055 M 113.23669 455.72384 L 391.9067 455.1175 M 392.00274 454.5124 L 392.4781 510.8405 M 393.8898 510.8479 L 114.31765 512.81234 M 114.23158 514.2192 L 114.16731 455.7501" stroke="#199ce8" stroke-linecap="round" stroke-linejoin="round" stroke-width="4"/>
          <text transform="translate(119 474.5)" fill="black">
            <tspan font-family="Verdana" font-size="16" fill="black" x="0" y="16">&gt; search-index-typesense</tspan>
          </text>
        </a>
      </g>
      <g id="Graphic_21">
        <text transform="translate(575.793 461)" fill="black">
          <tspan font-family="Courier New" font-size="16" fill="black" x="38.40625" y="13">These scripts together</tspan>
          <tspan font-family="Courier New" font-size="16" fill="black" x="48.00781" y="31">scrape various sites</tspan>
          <tspan font-family="Courier New" font-size="16" fill="black" x="0" y="49">(including kerisse.org itself)</tspan>
          <tspan font-family="Courier New" font-size="16" fill="black" x="57.609375" y="67">and upload it into </tspan>
          <tspan font-family="Courier New" font-size="16" fill="black" x="33.60547" y="85">the search engine index</tspan>
        </text>
      </g>
      <g id="Line_20">
        <path d="M 570.793 512.24686 C 517.6614 513.51885 458.14213 513.82295 406.1992 511.375 C 405.4259 511.33856 404.65643 511.3016 403.89073 511.26415" marker-end="url(#FilledArrow_Marker)" stroke="black" stroke-linecap="round" stroke-linejoin="round" stroke-width="1"/>
      </g>
      <g id="Graphic_25">
        <title>Stack</title>
        <rect x="114" y="-6.776001" width="278" height="56" fill="#dde9f5"/><a xlink:href="https://github.com/WebOfTrust/WOT-terms/tree/main/.github/workflows">
          
          <path d="M 112.66373 -6.774704 L 393.8047 -7.0475696 M 392.9327 -8.728999 L 391.13562 50.65733 M 392.1166 50.04876 L 113.46369 48.93767 M 114.48339 50.92602 L 113.98813 -8.19345 M 112.91361 -7.151825 L 393.13173 -7.342921 M 393.2513 -8.976923 L 391.6151 49.801305 M 392.3664 49.84777 L 114.71618 48.84061 M 114.60347 50.67711 L 114.0916 -7.024674" stroke="#199ce8" stroke-linecap="round" stroke-linejoin="round" stroke-width="4"/>
          <text transform="translate(119 11.723999)" fill="black">
            <tspan font-family="Verdana" font-size="16" fill="black" x="0" y="16">&gt; .github / workflows</tspan>
          </text>
        </a>
      </g>
      <g id="Graphic_24">
        <text transform="translate(503.0039 5.723999)" fill="black">
          <tspan font-family="Courier New" font-size="16" fill="black" x="52.808594" y="13">These scripts run when</tspan>
          <tspan font-family="Courier New" font-size="16" fill="black" x="33.60547" y="31">-the repo itself is pushed</tspan>
          <tspan font-family="Courier New" font-size="16" fill="black" x="67.21094" y="49">-the wiki is edited</tspan>
          <tspan font-family="Courier New" font-size="16" fill="black" x="0" y="67">-the script is manually triggered</tspan>
        </text>
      </g>
      <g id="Line_23">
        <line x1="498.0039" y1="33.521293" x2="403.88755" y2="28.797383" marker-end="url(#FilledArrow_Marker)" stroke="black" stroke-linecap="round" stroke-linejoin="round" stroke-width="1"/>
      </g>
      <g id="Line_26">
        <path d="M 256.07282 51.224 C 263.989 116.96976 270.9898 109.72357 231.33333 118 C 186.45052 127.36719 42.059896 138.16927 44.666667 209.33333 C 46.85921 269.18907 186.85163 255.05584 236.2458 307.32077" marker-end="url(#FilledArrow_Marker)" stroke="black" stroke-linecap="round" stroke-linejoin="round" stroke-dasharray="4.0,4.0" stroke-width="1"/>
      </g>
      <g id="Line_27">
        <path d="M 252.05654 51.224 C 238.13055 137.92049 115.79626 11.903392 49 97 C -24 190 7.166667 339.16667 97.33333 374 C 177.55213 404.99026 231.65087 355.5687 248.47985 444.2289" marker-end="url(#FilledArrow_Marker)" stroke="black" stroke-linecap="round" stroke-linejoin="round" stroke-dasharray="4.0,4.0" stroke-width="1"/>
      </g>
      <g id="Graphic_28">
        <rect x="-56.65902" y="251.99983" width="144.42188" height="42" fill="white"/>
        <text transform="translate(-51.65902 256.99983)" fill="black">
          <tspan font-family="Courier New" font-size="14" fill="black" x="29.404785" y="12">Runs some</tspan>
          <tspan font-family="Courier New" font-size="14" fill="black" x="0" y="28">of these scripts</tspan>
        </text>
      </g>
      <g id="Graphic_34">
        <rect x="114" y="586" width="278" height="56" fill="#dde9f5"/><a xlink:href="https://github.com/WebOfTrust/WOT-terms/tree/main/maintenance">
          
          <path d="M 113.19472 585.9988 L 393.31965 586.4131 M 392.56944 584.8949 L 392.064 642.8433 M 393.04727 642.0103 L 111.67951 642.1899 M 113.65726 643.9011 L 114.00392 585.33836 M 113.44498 585.5743 L 392.80626 586.1298 M 393.03573 584.6468 L 392.52644 641.7627 M 393.29737 641.9071 L 113.91745 642.0294 M 113.89802 643.651 L 114.11447 585.7492" stroke="#199ce8" stroke-linecap="round" stroke-linejoin="round" stroke-width="4"/>
          <text transform="translate(119 604.5)" fill="black">
            <tspan font-family="Verdana" font-size="16" fill="black" x="0" y="16">&gt; maintenance</tspan>
          </text>
        </a>
      </g>
      <g id="Graphic_33">
        <text transform="translate(575.793 657)" fill="black">
          <tspan font-family="Courier New" font-size="16" fill="black" x="0" y="13">These scripts do various things:</tspan>
          <tspan font-family="Courier New" font-size="16" fill="black" x="0" y="49">-fixOmnigraffleSvgOutput.js</tspan>
          <tspan font-family="Courier New" font-size="16" fill="black" x="0" y="67">     fixes the svg produced by</tspan>
          <tspan font-family="Courier New" font-size="16" fill="black" x="0" y="85">     the Omnigraffle application</tspan>
        </text>
      </g>
      <g id="Line_32">
        <path d="M 570.793 689.6249 C 543.45646 686.1479 513.84244 681.697 483 676 C 434.42735 667.02806 391.0277 656.4841 355.36835 646.6615" marker-end="url(#FilledArrow_Marker)" stroke="black" stroke-linecap="round" stroke-linejoin="round" stroke-width="1"/>
      </g>
    </g>
  </g>
</svg>
