<svg height="201" width="200" xmlns="http://www.w3.org/2000/svg"><g fill="none"><path d="m189.184 115.455c-7.146 42.437-44.164 74.873-88.626 74.873-49.56 0-89.88-40.297-89.88-89.829s40.322-89.827 89.88-89.827c44.376 0 81.34 32.314 88.586 74.632h10.822c-7.35-48.231-49.128-85.304-99.408-85.304-55.448 0-100.558 45.084-100.558 100.499s45.11 100.501 100.558 100.501c50.362 0 92.2-37.197 99.442-85.551z" fill="#51dac5"/><path d="m100.558 23.067c-37.518 0-68.89 26.785-75.976 62.237h10.942c6.904-29.512 33.432-51.571 65.034-51.571 36.832 0 66.8 29.949 66.8 66.762s-29.966 66.762-66.8 66.762c-31.688 0-58.274-22.173-65.088-51.804h-10.934c7 35.563 38.418 62.478 76.022 62.478 42.72 0 77.476-34.736 77.476-77.434s-34.756-77.43-77.476-77.43z" fill="#51dac5"/><g fill="#003336"><path d="m44.638 100.435c0 8.395 6.44 14.492 15.312 14.492a17.174 17.174 0 0 0 10.434-3.544v-11.744h-6.024v8.833l-.144.054c-1.271.488-2.62.741-3.982.746-5.554 0-9.288-3.552-9.288-8.837 0-5.197 3.652-8.837 8.882-8.837 2.576 0 4.576.752 6.452 2.43l2.818-4.959c-2.64-2.046-5.938-3.118-9.554-3.118-8.638 0-14.906 6.087-14.906 14.484zm31.362-14.086v28.13h19.24v-5.573h-13.014v-22.556zm41.352 17.604v-5.573h-11.914v-6.458h13.46v-5.573h-19.688v28.13h19.892v-5.533h-13.664v-4.993z"/><path d="m124.24 86.349h6.228v28.13h-6.228z"/><path d="m154.386 98.99h-11.142v-7.068h13.378v-5.573h-19.606v28.13h6.228v-9.916h11.142z"/></g></g></svg>