<?xml version="1.0" encoding="iso-8859-1"?>
<!-- Uploaded to: SVG Repo, www.svgrepo.com, Generator: SVG Repo Mixer Tools -->
<svg height="800px" width="800px" version="1.1" id="Layer_1" xmlns="http://www.w3.org/2000/svg" xmlns:xlink="http://www.w3.org/1999/xlink" 
	 viewBox="0 0 473.931 473.931" xml:space="preserve">
<circle style="fill:#357180;" cx="236.966" cy="236.966" r="236.966"/>
<path style="fill:#AAAAAA;" d="M119.871,161.824c8.142-22.11,35.487-22.69,35.487-22.69c-13.957-12.221-29.672-11.057-29.672-11.057
	c14.544-25.601,36.074-14.544,36.074-14.544c-0.576-5.238-17.452-25.605-17.452-25.605c16.875-0.58,33.163,16.875,33.163,16.875
	c-0.584-8.73,6.402-23.857,6.402-23.857c19.783,4.075,40.145,22.11,40.145,22.11l4.655-16.875l10.795,12.505l8.411-10.178
	c-1.171,5.822,3.656,20.913,3.656,20.913c12.389-33.201,58.02-26.731,58.02-26.731c-11.057,6.402-8.15,16.875-8.15,16.875
	c23.277-10.473,44.22,6.982,44.22,6.982c-19.783,0.58-26.185,8.146-26.185,8.146c37.825-1.164,43.644,24.437,43.644,24.437
	c-19.783-2.907-22.114,9.309-22.114,9.309c27.349,8.146,19.206,37.238,19.206,37.238c-7.562-11.637-20.954-10.477-20.954-10.477
	c12.221,19.203,1.171,29.092,1.171,29.092c-2.907-13.964-26.323-16.366-26.323-16.366c7.416,8.071,0.722,30.914,0.722,30.914
	c-4.078-6.402-16.875-12.221-16.875-12.221l-65.166,1.654v0.09c-0.153-0.03-0.292-0.052-0.445-0.079l-3.046,0.079l0.045-0.606
	c-49.47-8.415-61.724,9.912-61.724,9.912c-6.395-25.021,1.171-30.836,1.171-30.836c-19.783,1.167-36.658,18.035-36.658,18.035
	c2.324-19.199,9.309-40.145,9.309-40.145C134.999,160.667,119.871,161.824,119.871,161.824z"/>
<path style="fill:#8E6E52;" d="M322.641,385.689c0,20.516-15.15,37.156-33.829,37.156h-92.309
	c-18.679,0-33.829-16.636-33.829-37.156c0,0,7.745-80.489,14.099-100.623c6.335-20.112,15.143-37.148,33.829-37.148h11.424h19.921
	h23.438h12.161c18.679,0,28.89,12.381,33.822,37.148C316.298,309.844,322.641,385.689,322.641,385.689z"/>
<path style="fill:#E9C29C;" d="M286.948,385.708l4.977,37.137c18.679,0,33.829-16.636,33.829-37.156L286.948,385.708z"/>
<path style="fill:#9E7C5A;" d="M280.658,247.922h-12.161l18.488,137.775l38.768-0.007c0,0-6.342-75.849-11.278-100.623
	C309.545,260.303,299.337,247.922,280.658,247.922z"/>
<path style="fill:#E9C29C;" d="M201.284,385.708l-4.969,37.137c-18.686,0-33.829-16.636-33.829-37.156L201.284,385.708z"/>
<path style="fill:#9E7C5A;" d="M207.582,247.922h12.161l-18.496,137.775l-38.761-0.007c0,0,6.342-75.849,11.278-100.623
	C178.695,260.303,188.903,247.922,207.582,247.922z"/>
<path style="fill:#E9C29C;" d="M309.997,170.77c0,37.665-30.518,68.182-68.171,68.182c-37.657,0-68.171-30.514-68.171-68.182
	c0-37.646,30.51-68.167,68.171-68.167C279.48,102.603,309.997,133.124,309.997,170.77z"/>
<g>
	<ellipse style="fill:#343433;" cx="221.4" cy="165.461" rx="9.339" ry="9.863"/>
	<ellipse style="fill:#343433;" cx="261.886" cy="165.461" rx="9.339" ry="9.863"/>
</g>
<g>
	<ellipse style="fill:#FFFFFF;" cx="264.786" cy="161.719" rx="3.731" ry="3.948"/>
	<ellipse style="fill:#FFFFFF;" cx="224.206" cy="161.719" rx="3.734" ry="3.948"/>
</g>
<polygon style="fill:#A48A75;" points="245.688,422.972 241.946,422.972 241.946,264.947 232.898,247.922 254.735,247.922 
	245.688,264.827 "/>
<g>
	<path style="fill:#AAAAAA;" d="M242.683,189.887c22.649,0,36.811,16.969,35.371,19.932c-0.696,1.426-2.271-1.56-8.456-0.891
		c-6.664,0.722-15.902,5.048-26.439,5.048c-10.904,0-20.673-4.195-27.682-4.913c-6.058-0.617-7.667,2.376-8.471,0.756
		C205.288,206.328,220.042,189.887,242.683,189.887z"/>
	<path style="fill:#AAAAAA;" d="M272.741,206.025c-1.878,0-3.521,0.516-4.486,1.295c-0.314-0.03-0.636-0.052-0.973-0.052
		c-1.804,0-3.398,0.483-4.37,1.216c-0.98-0.55-2.361-0.902-3.895-0.902c-2.118,0-3.94,0.666-4.816,1.628
		c-0.935-0.423-2.125-0.692-3.45-0.692c-1.886,0-3.536,0.528-4.501,1.317c-0.935-0.423-2.125-0.692-3.45-0.692
		c-1.317,0-2.507,0.266-3.442,0.688c-0.965-0.79-2.615-1.313-4.501-1.313c-1.325,0-2.514,0.266-3.45,0.692
		c-0.876-0.962-2.698-1.628-4.816-1.628c-1.373,0-2.608,0.284-3.558,0.737c-0.95-0.816-2.623-1.362-4.554-1.362
		c-0.995,0-1.916,0.157-2.713,0.408c-0.95-0.442-2.17-0.718-3.521-0.718c-2.967,0-5.381,1.295-5.381,2.885s2.413,2.885,5.381,2.885
		c1.003,0,1.923-0.153,2.72-0.408c0.943,0.442,2.163,0.718,3.514,0.718c1.373,0,2.608-0.284,3.558-0.737
		c0.95,0.816,2.63,1.362,4.554,1.362c1.317,0,2.514-0.266,3.45-0.692c0.876,0.962,2.69,1.628,4.816,1.628
		c1.317,0,2.507-0.262,3.442-0.688c0.965,0.79,2.615,1.313,4.501,1.313c1.893,0,3.543-0.528,4.501-1.317
		c0.935,0.423,2.133,0.692,3.45,0.692c2.125,0,3.948-0.666,4.816-1.628c0.935,0.423,2.133,0.692,3.45,0.692
		c1.811,0,3.398-0.483,4.378-1.216c0.98,0.55,2.354,0.902,3.888,0.902c1.878,0,3.521-0.516,4.486-1.295
		c0.314,0.03,0.636,0.052,0.973,0.052c2.967,0,5.381-1.295,5.381-2.885C278.121,207.32,275.708,206.025,272.741,206.025z"/>
</g>
<ellipse style="fill:#E9C29C;" cx="243.102" cy="190.007" rx="15.648" ry="10.488"/>
<g>
	<path style="fill:#6C533E;" d="M233.542,271.577c-25.994,0-21.96-23.655-21.96-23.655h30.364L233.542,271.577z"/>
	<path style="fill:#6C533E;" d="M254.466,271.577c25.994,0,21.968-23.655,21.968-23.655h-30.63L254.466,271.577z"/>
</g>
<g>
	<path style="fill:#AAAAAA;" d="M278.926,146.348c-0.322,1.946-2.163,3.255-4.108,2.934l-17.343-2.885
		c-1.946-0.326-3.259-2.159-2.937-4.108l0,0c0.329-1.946,2.163-3.259,4.108-2.934l17.343,2.885
		C277.93,142.561,279.248,144.402,278.926,146.348L278.926,146.348z"/>
	<path style="fill:#AAAAAA;" d="M275.644,147.586c-0.569-0.094-1.089-0.022-1.426,0.168c-0.086-0.026-0.191-0.052-0.292-0.067
		c-0.546-0.09-1.051-0.022-1.381,0.146c-0.269-0.217-0.674-0.389-1.134-0.468c-0.651-0.105-1.235,0.004-1.542,0.251
		c-0.262-0.176-0.614-0.318-1.01-0.385c-0.576-0.094-1.104-0.019-1.433,0.172c-0.262-0.176-0.614-0.318-1.014-0.385
		c-0.393-0.067-0.767-0.049-1.074,0.034c-0.247-0.284-0.722-0.528-1.295-0.621c-0.4-0.067-0.775-0.049-1.081,0.037
		c-0.213-0.337-0.73-0.629-1.373-0.737c-0.415-0.071-0.812-0.041-1.119,0.045c-0.247-0.292-0.722-0.543-1.31-0.64
		c-0.307-0.052-0.591-0.049-0.842-0.015c-0.269-0.18-0.621-0.326-1.029-0.393c-0.898-0.15-1.695,0.12-1.777,0.606
		c-0.079,0.483,0.584,0.995,1.482,1.145c0.299,0.052,0.591,0.052,0.842,0.015c0.262,0.18,0.621,0.326,1.029,0.393
		c0.415,0.067,0.804,0.041,1.119-0.049c0.239,0.296,0.722,0.546,1.31,0.644c0.393,0.067,0.775,0.049,1.081-0.037
		c0.213,0.337,0.73,0.629,1.373,0.733c0.4,0.067,0.767,0.049,1.081-0.037c0.247,0.292,0.722,0.531,1.295,0.625
		c0.572,0.094,1.096,0.019,1.433-0.168c0.254,0.176,0.606,0.314,1.01,0.382c0.644,0.109,1.227-0.004,1.542-0.247
		c0.254,0.18,0.606,0.314,1.01,0.385c0.546,0.09,1.051,0.026,1.381-0.15c0.269,0.221,0.674,0.393,1.141,0.468
		c0.561,0.097,1.089,0.022,1.418-0.161c0.094,0.022,0.191,0.049,0.292,0.064c0.898,0.15,1.695-0.12,1.777-0.602
		C277.208,148.245,276.542,147.736,275.644,147.586z"/>
	<path style="fill:#AAAAAA;" d="M229.939,142.116c0.352,1.946-0.935,3.798-2.881,4.15l-17.298,3.128
		c-1.938,0.352-3.794-0.935-4.142-2.877l0,0c-0.352-1.938,0.935-3.798,2.881-4.146l17.298-3.128
		C227.731,138.89,229.587,140.178,229.939,142.116L229.939,142.116z"/>
	<path style="fill:#AAAAAA;" d="M227.263,144.391c-0.561,0.101-1.029,0.348-1.28,0.636c-0.094,0.007-0.198,0.022-0.299,0.041
		c-0.543,0.097-1.003,0.333-1.25,0.606c-0.329-0.116-0.767-0.146-1.227-0.064c-0.644,0.116-1.156,0.415-1.366,0.756
		c-0.307-0.079-0.688-0.09-1.074-0.022c-0.576,0.105-1.044,0.355-1.295,0.644c-0.307-0.079-0.681-0.09-1.081-0.019
		c-0.393,0.075-0.745,0.217-1.003,0.393c-0.337-0.187-0.861-0.247-1.433-0.15c-0.393,0.075-0.745,0.221-1.003,0.397
		c-0.322-0.239-0.906-0.348-1.542-0.232c-0.415,0.075-0.775,0.232-1.036,0.415c-0.337-0.191-0.868-0.266-1.448-0.161
		c-0.307,0.056-0.569,0.15-0.804,0.269c-0.307-0.079-0.696-0.097-1.096-0.026c-0.898,0.161-1.557,0.685-1.471,1.171
		c0.086,0.479,0.883,0.741,1.785,0.576c0.299-0.056,0.569-0.15,0.797-0.269c0.307,0.079,0.696,0.097,1.104,0.026
		c0.408-0.079,0.767-0.232,1.029-0.419c0.337,0.195,0.868,0.269,1.456,0.161c0.393-0.071,0.745-0.217,1.003-0.393
		c0.314,0.243,0.906,0.344,1.542,0.232c0.4-0.075,0.745-0.221,1.01-0.397c0.329,0.187,0.861,0.251,1.426,0.15
		c0.576-0.101,1.044-0.355,1.287-0.644c0.314,0.079,0.688,0.09,1.081,0.022c0.644-0.116,1.164-0.415,1.373-0.756
		c0.299,0.079,0.681,0.09,1.074,0.022c0.546-0.097,1.003-0.337,1.257-0.606c0.329,0.112,0.76,0.142,1.22,0.06
		c0.569-0.101,1.036-0.348,1.287-0.636c0.094-0.007,0.198-0.022,0.299-0.041c0.898-0.161,1.549-0.685,1.463-1.164
		C228.966,144.488,228.161,144.226,227.263,144.391z"/>
</g>
</svg>