
<svg xmlns="http://www.w3.org/2000/svg" xmlns:xlink="http://www.w3.org/1999/xlink" version="1.1" xmlns:dc="http://purl.org/dc/elements/1.1/" viewBox="197 183 1219 2692">
  <defs>
    <marker orient="auto" overflow="visible" markerUnits="strokeWidth" id="FilledArrow_Marker" stroke-linejoin="miter" stroke-miterlimit="10" viewBox="-1 -3 6 6" markerWidth="6" markerHeight="6" color="#199ce8">
      <g>
        <path d="M 3.2 0 L 0 -1.2 L 0 1.2 Z" fill="currentColor" stroke="currentColor" stroke-width="1"/>
      </g>
    </marker>
    <marker orient="auto" overflow="visible" markerUnits="strokeWidth" id="FilledArrow_Marker_2" stroke-linejoin="miter" stroke-miterlimit="10" viewBox="-1 -3 6 6" markerWidth="6" markerHeight="6" color="#199ce8">
      <g>
        <path d="M 3.2 0 L 0 -1.2 L 0 1.2 Z" fill="currentColor" stroke="currentColor" stroke-width="1"/>
      </g>
    </marker>
    <marker orient="auto" overflow="visible" markerUnits="strokeWidth" id="FilledArrow_Marker_3" stroke-linejoin="miter" stroke-miterlimit="10" viewBox="-1 -3 6 6" markerWidth="6" markerHeight="6" color="#199ce8">
      <g>
        <path d="M 3.2 0 L 0 -1.2 L 0 1.2 Z" fill="currentColor" stroke="currentColor" stroke-width="1"/>
      </g>
    </marker>
    <marker orient="auto" overflow="visible" markerUnits="strokeWidth" id="Arrow_Marker" stroke-linejoin="miter" stroke-miterlimit="10" viewBox="-1 -4 10 8" markerWidth="10" markerHeight="8" color="black">
      <g>
        <path d="M 8 0 L 0 -3 L 0 3 Z" fill="none" stroke="currentColor" stroke-width="1"/>
      </g>
    </marker>
  </defs>
  <g id="Canvas_1" stroke-dasharray="none" stroke="none" fill="none" fill-opacity="1" stroke-opacity="1">
    <title>Canvas 1</title>
    <g id="Canvas_1_Layer_1">
      <title>Layer 1</title>
      <g id="Graphic_121">
        <path d="M 526.76346 2534.7877 L 527.5 2556 C 529.1585 2603.7644 537.5017 2651.0608 552.2863 2696.5096 L 557 2711 C 574.1467 2763.71 613.3533 2806.367 664.4337 2827.8883 L 742.8893 2860.9432 C 767.6018 2871.355 795.0624 2873.3086 821 2866.5 L 823.3276 2865.889 C 848.0862 2859.39 870.9409 2847.0874 890 2830 L 890 2830 C 909.3145 2812.6836 927.5293 2794.1784 944.5381 2774.5925 L 952 2766 C 973.9481 2740.7264 993.39 2713.381 1010.0518 2684.349 L 1024.9149 2658.4513 C 1042.2365 2628.2697 1055.7034 2596.0342 1065 2562.5 L 1068.2931 2550.6214 C 1075.3814 2525.053 1078.1551 2498.4812 1076.5 2472 L 1076.5 2472 C 1074.8566 2445.7063 1067.0184 2420.174 1053.6251 2397.4875 L 1046.4862 2385.395 C 1032.4722 2361.657 1011.7847 2342.5663 987 2330.5 L 987 2330.5 C 961.7554 2318.21 935.1446 2308.9518 907.723 2302.919 L 899 2301 C 865.6956 2293.673 831.9885 2288.3142 798.0538 2284.9513 L 793.5 2284.5 C 756.7012 2280.8533 719.5658 2282.6536 683.2923 2289.843 L 682.5 2290 C 646.40455 2297.154 613.4475 2315.4103 588.23765 2342.2157 L 582.8153 2347.9812 C 560.01185 2372.228 544.0323 2402.0783 536.5 2434.5 L 536.5 2434.5 C 528.86657 2467.357 525.5929 2501.076 526.76346 2534.7877 Z" fill="#f5f5f5"/>
        <path d="M 526.74156 2534.202 L 527.5514 2555.866 C 530.46253 2604.639 541.7234 2654.9578 552.2863 2696.5096 M 552.17054 2696.1767 L 557.7346 2712.1864 C 572.37255 2759.458 615.8152 2801.2313 664.4337 2827.8883 M 663.9481 2827.685 L 743.6203 2861.0444 C 768.6449 2870.1526 794.9519 2873.7097 821 2866.5 M 820.2586 2866.7778 L 823.6588 2865.504 C 845.8037 2858.647 868.7246 2848.0156 890 2830 M 890.5244 2830.1402 L 889.1858 2829.7824 C 911.225 2814.6736 925.32 2794.8257 944.5381 2774.5925 M 944.2942 2774.8504 L 952.6832 2765.9785 C 971.5543 2743.9147 993.2002 2712.924 1010.0518 2684.349 M 1009.7944 2684.79 L 1025.3958 2658.07 C 1039.0102 2631.4213 1058.97 2595.06 1065 2562.5 M 1064.7742 2563.341 L 1068.313 2550.162 C 1075.5823 2525.7567 1076.7729 2497.6152 1076.5 2472 M 1076.5742 2472.34 L 1076.3499 2471.3122 C 1076.6077 2445.551 1065.6439 2421.5997 1053.6251 2397.4875 M 1054.06 2398.231 L 1046.3241 2385.005 C 1031.9447 2361.725 1009.1587 2340.5487 987 2330.5 M 987.6884 2331.1087 L 986.5604 2330.1113 C 964.3429 2317.9405 932.7106 2307.344 907.723 2302.919 M 908.6061 2303.1203 L 898.5603 2300.8314 C 865.6577 2291.1118 832.4933 2287.245 798.0538 2284.9513 M 799.0406 2284.969 L 792.7841 2284.8565 C 755.8931 2282.6245 718.782 2282.0708 683.2923 2289.843 M 683.8924 2289.8 L 681.8406 2289.947 C 643.0402 2294.3127 611.31005 2312.2444 588.23765 2342.2157 M 588.8639 2341.5522 L 582.9639 2347.8024 C 562.02975 2375.5376 544.6615 2402.8297 536.5 2434.5 M 536.4817 2435.1902 L 536.5206 2433.7227 C 526.2944 2467.0955 522.2681 2498.9198 526.76346 2534.7877 M 526.89136 2534.076 L 527.77756 2555.376 C 530.71253 2604.389 541.9734 2654.7078 552.5363 2696.2596 M 552.359 2696.0296 L 557.639 2711.2874 C 572.62255 2759.208 616.0652 2800.9813 664.6837 2827.6383 M 664.0966 2827.504 L 743.0888 2860.632 C 768.8949 2869.9026 795.2019 2873.4597 821.25 2866.25 M 820.3773 2866.636 L 823.1512 2865.6027 C 846.0537 2858.397 868.9746 2847.7656 890.25 2829.75 M 890.6436 2830.0372 L 889.7019 2829.839 C 911.475 2814.4236 925.57 2794.5757 944.7881 2774.3425 M 944.3544 2774.6642 L 952.3679 2766.1642 C 971.8043 2743.6647 993.4502 2712.674 1010.3018 2684.099 M 1009.8799 2684.642 L 1025.2786 2658.331 C 1039.2602 2631.1713 1059.22 2594.81 1065.25 2562.25 M 1064.8148 2563.1934 L 1068.1631 2550.82 C 1075.8323 2525.5067 1077.0229 2497.3652 1076.75 2471.75 M 1076.6427 2472.2272 L 1076.4956 2471.4418 C 1076.8577 2445.301 1065.8939 2421.3497 1053.8751 2397.2375 M 1054.0862 2398.1636 L 1046.8572 2385.79 C 1032.1947 2361.475 1009.4087 2340.2987 987.25 2330.25 M 987.751 2331.0543 L 986.8669 2330.2882 C 964.5929 2317.6905 932.9606 2307.094 907.973 2302.669 M 908.7052 2303.1086 L 899.3391 2300.89 C 865.9077 2290.8618 832.7433 2286.995 798.3038 2284.7013 M 799.1633 2284.9682 L 793.2736 2284.7804 C 756.1431 2282.3745 719.032 2281.8208 683.5423 2289.593 M 684.0225 2289.7454 L 682.7027 2289.8155 C 643.2902 2294.0627 611.56005 2311.9944 588.48765 2341.9657 M 589.02796 2341.464 L 583.33296 2347.44 C 562.27975 2375.2876 544.9115 2402.5797 536.75 2434.25 M 536.5567 2435.064 L 536.5483 2433.9173 C 526.5444 2466.8455 522.5181 2498.6698 527.01346 2534.5377" stroke="gray" stroke-linecap="round" stroke-linejoin="round" stroke-dasharray="8.0,8.0" stroke-width="2"/>
      </g>
      <g id="Graphic_116">
        <path d="M 667 1503 C 556 1534 450 1668 440 1694 C 430 1720 393 1928 392 1950 C 391 1972 388 2132 416 2158 C 444 2184 447 2218 558 2228 C 669 2238 632 2230 770 2234 C 908 2238 922 2212 944 2194 C 966 2176 1004 2128 1026 2098 C 1048 2068 1130 1958 1118 1845 C 1106 1732 977 1642 977 1642 L 896 1583 C 896 1583 778 1472 667 1503 Z" fill="#f5f5f5"/>
        <path d="M 667 1503 C 548.71395 1533.5942 451.4266 1670.0663 440 1694 C 428.36685 1721.8834 391.4939 1927.9217 392 1950 C 391.25854 1973.3293 387.5795 2134.5164 416 2158 C 441.2224 2184.136 457.14746 2217.6016 558 2228 C 672.12696 2247.1072 625.5737 2236.8857 770 2234 C 914.5971 2246.8268 919.5089 2212.419 944 2194 C 967.7153 2174.2105 1004.5778 2125.1907 1026 2098 C 1050.9201 2067.107 1126.5552 1955.4275 1118 1845 C 1114.12 1737.0519 977 1642 976.5781 1641.6271 M 977.4285 1642.3111 L 895.5446 1582.858 C 895.9928 1583.0148 773.7995 1472.0176 667 1503 M 667 1503 C 548.96395 1533.3442 451.6766 1669.8163 440.25 1693.75 C 428.61685 1721.6334 391.7439 1927.6717 392.25 1949.75 C 391.50854 1973.0793 387.8295 2134.2664 416.25 2157.75 C 441.4724 2183.886 457.39746 2217.3516 558.25 2227.75 C 672.37696 2246.8572 625.8237 2236.6357 770.25 2233.75 C 914.8471 2246.5768 919.7589 2212.169 944.25 2193.75 C 967.9653 2173.9605 1004.8278 2124.9407 1026.25 2097.75 C 1051.1701 2066.857 1126.8052 1955.1775 1118.25 1844.75 C 1114.37 1736.8019 977.25 1641.75 976.8281 1641.3771 M 977.5173 1642.236 L 895.9616 1583.0393 C 896.2428 1582.7648 774.0495 1471.7676 667.25 1502.75" stroke="gray" stroke-linecap="round" stroke-linejoin="round" stroke-dasharray="8.0,8.0" stroke-width="2"/>
      </g>
      <g id="Graphic_101">
        <path d="M 602.8457 377.5 L 550.2959 439.11805 C 514.0393 481.63123 481.4096 527.1083 452.7493 575.0718 L 254.40768 907 C 157.50719 1069.1647 210.41426 1279.1785 372.57895 1376.079 C 403.35815 1394.471 436.83774 1407.909 471.7913 1415.901 L 907.8981 1515.6153 C 1115.9811 1563.1928 1323.2348 1433.0774 1370.8123 1224.9944 C 1384.9178 1163.3028 1383.659 1099.0913 1367.1462 1038 L 1218.9995 489.9092 C 1206.0006 441.8179 1183.2428 396.9167 1152.1425 358 L 1152.1425 358 C 1121.9296 320.1937 1078.0525 295.79542 1029.9957 290.07895 L 873.663 271.48283 C 771.3418 259.3115 669.7099 299.09748 602.8457 377.5 Z" fill="#f5f5f5"/>
        <path d="M 603.3387 376.9222 L 549.5685 439.9409 C 516.552 477.83907 480.40166 526.93094 452.7493 575.0718 M 452.9296 574.7695 L 254.41404 907.6407 C 159.24935 1061.4726 225.6334 1293.8132 372.57895 1376.079 C 401.53254 1393.076 434.26736 1410.3078 471.7913 1415.901 M 471.38144 1415.8073 L 908.0787 1515.6594 C 1128.1544 1563.0479 1313.0876 1431.1875 1370.8123 1224.9944 C 1391.0704 1159.8797 1380.303 1098.1052 1367.1462 1038 M 1367.241 1038.3509 L 1219.0674 489.4951 C 1204.0335 446.317 1183.4086 392.2907 1152.1425 358 M 1151.6142 358.2793 L 1153.0405 357.52526 C 1125.5357 318.29705 1076.747 297.6489 1029.9957 290.07895 M 1030.405 290.1265 L 872.5962 271.7948 C 763.0275 254.74444 678.1436 307.6028 602.8457 377.5 M 603.79656 377.5 L 602.45406 377.5 M 603.5482 376.86926 L 550.0997 439.45515 C 516.802 477.58907 480.65166 526.68094 452.9993 574.8218 M 453.10384 574.67385 L 254.98938 906.9632 C 159.49935 1061.2226 225.8834 1293.5632 372.82895 1375.829 C 401.78254 1392.826 434.51736 1410.0578 472.0413 1415.651 M 471.5249 1415.6016 L 907.8859 1515.3597 C 1128.4044 1562.7979 1313.3376 1430.9375 1371.0623 1224.7444 C 1391.3204 1159.6297 1380.553 1097.8552 1367.3962 1037.75 M 1367.2561 1038.2555 L 1219.3091 490.15 C 1204.2835 446.067 1183.6586 392.0407 1152.3925 357.75 M 1151.7347 358.1458 L 1152.5273 357.68437 C 1125.7857 318.04705 1076.997 297.3989 1030.2457 289.82895 M 1030.527 290.0265 L 873.4987 271.8092 C 763.2775 254.49444 678.3936 307.3528 603.0957 377.25 M 603.92156 377.48898 L 602.9707 377.42864" stroke="gray" stroke-linecap="round" stroke-linejoin="round" stroke-dasharray="8.0,8.0" stroke-width="2"/>
      </g>
      <g id="Graphic_3">
        <title>Rectangle</title>
        <path d="M 548.3 203 L 675.7 203 C 690.7696 203 703 220.92 703 243 C 703 265.08 690.7696 283 675.7 283 L 548.3 283 C 533.2304 283 521 265.08 521 243 C 521 220.92 533.2304 203 548.3 203 Z" fill="#dde9f5"/>
        <path d="M 547.33245 202.9945 L 677.57924 203.7348 C 689.8355 202.2268 703.0163 221.39971 703 243 C 701.5053 262.92755 692.0735 283.51856 675.7 283 M 676.2958 282.99622 L 545.44535 283.8268 C 534.52315 282.75194 522.8957 267.01652 521 243 C 521.7102 219.16617 534.5499 202.8651 548.3 203 M 547.5828 202.67774 L 676.5171 203.36892 C 690.3355 201.7268 703.5163 220.89971 703.5 242.5 C 702.0053 262.42755 692.5735 283.01856 676.2 282.5 M 676.5466 282.87076 L 547.67835 283.62805 C 535.02315 282.25194 523.3957 266.51652 521.5 242.5 C 522.2102 218.66617 535.0499 202.3651 548.8 202.5" stroke="#199ce8" stroke-linecap="round" stroke-linejoin="round" stroke-width="4"/>
        <text transform="translate(526 214.5)" fill="black">
          <tspan font-family="Verdana" font-size="16" fill="black" x="59.640625" y="16">START</tspan>
          <tspan font-family="Verdana" font-size="16" fill="black" x="32.179688" y="35">GENERATING</tspan>
          <tspan font-family="Verdana" font-size="16" fill="black" x="23.976562" y="54">SEARCH INDEX</tspan>
        </text>
      </g>
      <g id="Graphic_11">
        <path d="M 868.5108 407 L 1003.0216 522 L 868.5108 637 L 734 522 Z" fill="#dde9f5"/>
        <path d="M 867.8798 406.4625 L 1004.4124 522.76013 M 1004.4955 521.17926 L 866.9496 637.12594 M 868.7621 637.24335 L 731.7686 519.92505 M 732.0631 522.22287 L 869.2188 406.4022 M 868.2905 406.02386 L 1003.7971 521.72007 M 1004.8386 521.03975 L 868.1679 636.3113 M 868.8623 637.1683 L 733.4142 521.0758 M 732.1977 521.83627 L 868.7253 406.7079" stroke="#199ce8" stroke-linecap="round" stroke-linejoin="round" stroke-width="4"/>
        <text transform="translate(775.3179 481.7)" fill="black">
          <tspan font-family="Verdana" font-size="16" fill="black" x="68.76983" y="16">Site 1:</tspan>
          <tspan font-family="Verdana" font-size="16" fill="black" x="14.863579" y="54">remote sitemap.xml</tspan>
          <tspan font-family="Verdana" font-size="16" fill="black" x="68.336235" y="73">exists?</tspan>
        </text>
      </g>
      <g id="Graphic_12">
        <path d="M 342 383 L 375 414.262 L 342 445.52404 L 309 414.262 Z" fill="#dde9f5"/>
        <path d="M 341.64744 382.6682 L 375.2702 414.3121 M 375.257 413.9262 L 341.8947 445.8547 M 342.17924 445.79307 L 308.7292 414.19444 M 308.70703 414.761 L 342.2127 382.79707 M 341.7295 382.5849 L 375.1389 414.03484 M 375.32812 413.8727 L 342.1737 445.6706 M 342.22895 445.7441 L 309.06758 414.41535 M 308.7362 414.66356 L 342.04864 382.92297" stroke="#199ce8" stroke-linecap="round" stroke-linejoin="round" stroke-width="1"/>
        <text transform="translate(322.91 406.1368)" fill="black">
          <tspan font-family="Verdana" font-size="12" fill="black" x="2.1396484" y="12">Site 2</tspan>
        </text>
      </g>
      <g id="Line_15">
        <path d="M 542.60116 284.21574 C 486.142 315.22762 415.24275 366.6844 376.7595 390.5776 M 542.60116 284.21574 C 487.142 314.22762 416.24275 365.6844 377.7595 389.5776" marker-end="url(#FilledArrow_Marker)" stroke="#199ce8" stroke-linecap="round" stroke-linejoin="round" stroke-width="4"/>
      </g>
      <g id="Line_16">
        <path d="M 648.5666 285 C 681.71245 321.52045 751.5481 389.6818 793.4595 443.6979 M 648.5666 285 C 682.71245 320.52045 752.5481 388.6818 794.4595 442.6979" marker-end="url(#FilledArrow_Marker_2)" stroke="#199ce8" stroke-linecap="round" stroke-linejoin="round" stroke-width="4"/>
      </g>
      <g id="Graphic_17">
        <rect x="325.735" y="499.22115" width="21.961966" height="36.778846" fill="#dde9f5"/>
        <path d="M 325.36627 499.21926 L 348.20037 499.3365 M 347.93905 498.91916 L 347.4988 536.6562 M 347.94985 536.21866 L 325.46962 536.2136 M 325.75165 536.43686 L 325.7349 498.9905 M 325.42902 499.10774 L 347.99684 499.24405 M 348.0206 498.8569 L 347.57187 536.1561 M 348.01235 536.1675 L 325.81404 536.1805 M 325.8104 536.37436 L 325.74587 499.1587" stroke="#199ce8" stroke-linecap="round" stroke-linejoin="round" stroke-width="1"/>
        <text transform="translate(330.735 502.6106)" fill="black">
          <tspan font-family="Verdana" font-size="12" fill="black" x=".04250622" y="12">et</tspan>
          <tspan font-family="Verdana" font-size="12" fill="black" x=".672389" y="27">c.</tspan>
        </text>
      </g>
      <g id="Line_18">
        <path d="M 340.4135 444.0211 C 340.59654 455.1965 338.85887 467.805 338.50753 480.34297 M 340.4135 444.0211 C 341.59654 454.1965 339.85887 466.805 339.50753 479.34297" marker-end="url(#FilledArrow_Marker)" stroke="#199ce8" stroke-linecap="round" stroke-linejoin="round" stroke-width="4"/>
      </g>
      <g id="Graphic_19">
        <path d="M 894.9426 733.5 L 1017 825.75 L 894.9426 918 L 772.8853 825.75 Z" fill="#dde9f5"/>
        <path d="M 894.3897 733.0868 L 1018.2567 825.6403 M 1018.4676 824.24865 L 892.9785 918.2399 M 895.7127 918.5357 L 771.07635 824.7098 M 771.6209 826.52235 L 896.0774 732.644 M 894.7467 732.6936 L 1017.8152 824.5962 M 1018.7997 824.1082 L 894.4809 917.2162 M 895.822 918.4726 L 772.6887 825.7203 M 771.8446 826.2374 L 895.1884 733.2444" stroke="#199ce8" stroke-linecap="round" stroke-linejoin="round" stroke-width="4"/>
        <text transform="translate(810.8408 795.405)" fill="black">
          <tspan font-family="Verdana" font-size="16" fill="black" x="15.01178" y="16">Readable sitemap </tspan>
          <tspan font-family="Verdana" font-size="16" fill="black" x="11.894592" y="35">somewhere on the </tspan>
          <tspan font-family="Verdana" font-size="16" fill="black" x="67.8985" y="54">site?</tspan>
        </text>
      </g>
      <g id="Line_20">
        <path d="M 878.5747 631.02715 C 883.0996 664.72 888.3361 692.4168 890.1981 713.2083 M 878.5747 631.02715 C 884.0996 663.72 889.3361 691.4168 891.1981 712.2083" marker-end="url(#FilledArrow_Marker)" stroke="#199ce8" stroke-linecap="round" stroke-linejoin="round" stroke-width="4"/>
      </g>
      <g id="Graphic_24">
        <rect x="868.8987" y="662.847" width="31.679688" height="29" fill="white"/>
        <text transform="translate(873.8987 667.847)" fill="black">
          <tspan font-family="Verdana" font-size="16" fill="black" x="0" y="16">No</tspan>
        </text>
      </g>
      <g id="Graphic_26">
        <rect x="934" y="1142" width="267" height="106" fill="#dde9f5"/>
        <path d="M 933.0561 1142.003 L 1202.5286 1141.1356 M 1201.6301 1139.6405 L 1201.1361 1250.0347 M 1202.9422 1248.0692 L 932.6543 1247.3239 M 933.2625 1247.9464 L 934.0116 1140.3332 M 933.3053 1141.5095 L 1201.873 1140.7883 M 1202.104 1139.3915 L 1201.4109 1247.8143 M 1203.1918 1247.9624 L 933.5167 1247.1347 M 933.3682 1247.6954 L 934.0664 1141.7487" stroke="#199ce8" stroke-linecap="round" stroke-linejoin="round" stroke-width="4"/>
        <text transform="translate(939 1176)" fill="black">
          <tspan font-family="Verdana" font-size="16" fill="black" x="28.695312" y="16">Create local sitemap.xml</tspan>
          <tspan font-family="Verdana" font-size="16" fill="black" x="5.605469" y="35">via document.querySelectorAll</tspan>
        </text>
      </g>
      <g id="Line_32">
        <path d="M 955.0644 871.2359 C 955.9713 871.875 1022.3719 911.225 1057.3333 984 C 1082.878 1034.7402 1076.6114 1095.2886 1071.106 1123.4537 M 955.0644 871.2359 C 956.9713 870.875 1023.3719 910.225 1058.3333 983 C 1083.878 1033.7402 1077.6114 1094.2886 1072.106 1122.4537" marker-end="url(#FilledArrow_Marker)" stroke="#199ce8" stroke-linecap="round" stroke-linejoin="round" stroke-width="4"/>
      </g>
      <g id="Graphic_31">
        <rect x="1038.663" y="969.95" width="37.710938" height="29" fill="white"/>
        <text transform="translate(1043.663 974.95)" fill="black">
          <tspan font-family="Verdana" font-size="16" fill="black" x="0" y="16">Yes</tspan>
        </text>
      </g>
      <g id="Graphic_33">
        <rect x="577" y="1806.457" width="342" height="199" fill="#dde9f5"/>
        <path d="M 575.8024 1806.4605 L 920.5958 1805.4575 M 919.8293 1803.7577 L 918.0721 2007.1993 M 919.7216 2006.2255 L 576.9889 2006.0373 M 577.8742 2007.6138 L 576.9917 1804.5447 M 576.0522 1806.1524 L 920.0639 1804.9816 M 920.1403 1803.5082 L 918.4807 2005.976 M 919.9716 2006.028 L 578.1172 2005.9684 M 577.8793 2007.3648 L 577.1397 1806.2075" stroke="#199ce8" stroke-linecap="round" stroke-linejoin="round" stroke-width="4"/>
        <text transform="translate(607 1820.457)" fill="black">
          <tspan font-family="Verdana" font-size="16" fill="black" x="0" y="16">Assign results to keys in array </tspan>
          <tspan font-family="Verdana" font-size="16" fill="black" x="0" y="35">object</tspan>
          <tspan font-family="Verdana" font-size="16" fill="black" x="0" y="54">[{</tspan>
          <tspan font-family="Verdana" font-size="16" fill="black" x="0" y="73">&#xa0;&#xa0;&#xa0;&#xa0;siteName: &apos;xxx&apos;</tspan>
          <tspan font-family="Verdana" font-size="16" fill="black" x="0" y="92">&#xa0;&#xa0;&#xa0;&#xa0;url: &apos;xxx&apos;</tspan>
          <tspan font-family="Verdana" font-size="16" fill="black" x="0" y="111">&#xa0;&#xa0;&#xa0;&#xa0;content: &apos;xxx&apos;</tspan>
          <tspan font-family="Verdana" font-size="16" fill="black" x="0" y="130">&#xa0;&#xa0;&#xa0;&#xa0;tag: &apos;xxx&apos;</tspan>
          <tspan font-family="Verdana" font-size="16" fill="black" x="0" y="149">etc.</tspan>
          <tspan font-family="Verdana" font-size="16" fill="black" x="0" y="168">}]</tspan>
        </text>
      </g>
      <g id="Line_35">
        <path d="M 1067.3923 1250 C 1066.8104 1268.2375 1066.7362 1403.1703 959.9426 1513 C 912.2209 1557.2221 859.7697 1583.311 818.8883 1603.5175 M 1067.3923 1250 C 1067.8104 1267.2375 1067.7362 1402.1703 960.9426 1512 C 913.2209 1556.2221 860.7697 1582.311 819.8883 1602.5175" marker-end="url(#FilledArrow_Marker)" stroke="#199ce8" stroke-linecap="round" stroke-linejoin="round" stroke-width="4"/>
      </g>
      <g id="Graphic_36">
        <rect x="659" y="1048" width="178" height="106" fill="#dde9f5"/>
        <path d="M 657.4794 1048.0066 L 837.7674 1047.2272 M 837.0393 1046.0834 L 837.0529 1155.0455 M 838.1985 1154.5046 L 657.0608 1153.397 M 658.2537 1155.3897 L 659.0081 1046.8397 M 657.7287 1047.5993 L 837.2888 1046.8402 M 837.3162 1045.8334 L 837.3678 1154.2476 M 838.448 1154.3397 L 658.51655 1153.3156 M 658.4658 1155.1395 L 659.064 1047.7487" stroke="#199ce8" stroke-linecap="round" stroke-linejoin="round" stroke-width="4"/>
        <text transform="translate(664 1082)" fill="black">
          <tspan font-family="Verdana" font-size="16" fill="black" x="36.48047" y="16">Create local </tspan>
          <tspan font-family="Verdana" font-size="16" fill="black" x="34.527344" y="35">sitemap.xml</tspan>
        </text>
      </g>
      <g id="Graphic_37">
        <rect x="621" y="1575" width="178" height="106" fill="#dde9f5"/>
        <path d="M 619.8717 1574.996 L 799.4913 1575.642 M 798.7878 1574.6778 L 798.0303 1682.6465 M 800.0241 1680.7491 L 620.2515 1680.009 M 621.068 1680.634 L 620.9991 1573.5903 M 620.1218 1574.7223 L 799.0317 1575.1953 M 799.2199 1574.429 L 798.4135 1680.4918 M 800.2734 1680.6784 L 621.3173 1679.8337 M 621.2657 1680.3841 L 621.0388 1574.7501" stroke="#199ce8" stroke-linecap="round" stroke-linejoin="round" stroke-width="4"/>
        <text transform="translate(626 1609)" fill="black">
          <tspan font-family="Verdana" font-size="16" fill="black" x="32.109375" y="16">Scrape using</tspan>
          <tspan font-family="Verdana" font-size="16" fill="black" x="13.496094" y="35">local sitemap.xml</tspan>
        </text>
      </g>
      <g id="Line_39">
        <path d="M 832.5409 873.3443 C 820.1729 884.4585 750.4629 962.0744 717.2725 1028.4124 M 832.5409 873.3443 C 821.1729 883.4585 751.4629 961.0744 718.2725 1027.4124" marker-end="url(#FilledArrow_Marker)" stroke="#199ce8" stroke-linecap="round" stroke-linejoin="round" stroke-width="4"/>
      </g>
      <g id="Graphic_38">
        <rect x="759.9773" y="925.1139" width="31.679688" height="29" fill="white"/>
        <text transform="translate(764.9773 930.1139)" fill="black">
          <tspan font-family="Verdana" font-size="16" fill="black" x="0" y="16">No</tspan>
        </text>
      </g>
      <g id="Line_41">
        <path d="M 750.701 1153.8896 L 754.85685 1203.2173 M 751.6777 1153.3494 L 755.5686 1201.4162" marker-end="url(#FilledArrow_Marker_3)" stroke="#199ce8" stroke-linecap="round" stroke-linejoin="round" stroke-width="4"/>
      </g>
      <g id="Line_42">
        <path d="M 721.4203 1681.699 L 744.8875 1786.5556 M 722.1264 1681.1528 L 745.5339 1784.7488" marker-end="url(#FilledArrow_Marker)" stroke="#199ce8" stroke-linecap="round" stroke-linejoin="round" stroke-width="4"/>
      </g>
      <g id="Graphic_43">
        <title>Rectangle</title>
        <rect x="301" y="950.9801" width="178" height="79" fill="#dde9f5"/>
        <path d="M 299.22573 950.9891 L 479.8346 950.0716 M 479.2177 948.7237 L 479.99847 1030.2331 M 480.9779 1029.173 L 300.3954 1030.6518 M 301.8837 1032.0801 L 300.9847 949.5744 M 299.4746 950.5172 L 479.48056 949.8066 M 479.58165 948.4726 L 480.4377 1028.9292 M 481.2299 1029.1674 L 302.11828 1030.4223 M 301.99518 1031.8316 L 301.13735 950.7313" stroke="#199ce8" stroke-linecap="round" stroke-linejoin="round" stroke-width="4"/>
        <text transform="translate(306 971.4801)" fill="black">
          <tspan font-family="Verdana" font-size="16" fill="black" x="32.109375" y="16">Scrape using</tspan>
          <tspan font-family="Verdana" font-size="16" fill="black" x="20.601562" y="35">remote sitemap</tspan>
        </text>
      </g>
      <g id="Line_45">
        <path d="M 773.1551 558.10696 C 717.3573 583.3029 645.87414 631.5541 582.6667 690.6667 C 486.5413 774.2633 449.6463 869.1633 414.6589 931.7946 M 773.1551 558.10696 C 718.3573 582.3029 646.87414 630.5541 583.6667 689.6667 C 487.5413 773.2633 450.6463 868.1633 415.6589 930.7946" marker-end="url(#FilledArrow_Marker)" stroke="#199ce8" stroke-linecap="round" stroke-linejoin="round" stroke-width="4"/>
      </g>
      <g id="Graphic_44">
        <rect x="512.62624" y="727.0056" width="45.93182" height="29" fill="white"/>
        <text transform="translate(517.62624 732.0056)" fill="black">
          <tspan font-family="Verdana" font-size="16" fill="black" x="0" y="16">Yes</tspan>
        </text>
      </g>
      <g id="Graphic_50">
        <rect x="665" y="2079.457" width="178" height="106" fill="#dde9f5"/>
        <path d="M 664.472 2079.4542 L 845.4018 2080.4265 M 843.4293 2078.8606 L 842.9165 2186.9176 M 843.7574 2185.3613 L 663.7299 2185.372 M 665.4725 2186.2675 L 664.9927 2077.8058 M 664.7222 2079.1676 L 843.6727 2080.0198 M 843.8803 2078.6115 L 843.2576 2185.1117 M 844.0074 2185.265 L 665.7185 2185.276 M 665.48335 2186.0185 L 665.2107 2079.2072" stroke="#199ce8" stroke-linecap="round" stroke-linejoin="round" stroke-width="4"/>
        <text transform="translate(670 2122.957)" fill="black">
          <tspan font-family="Verdana" font-size="16" fill="black" x="13.292969" y="16">Store in JSON file</tspan>
        </text>
      </g>
      <g id="Graphic_49">
        <rect x="675" y="2362.7592" width="178" height="106" fill="#dde9f5"/>
        <path d="M 674.0797 2362.7615 L 855.6779 2362.3038 M 853.6762 2360.5684 L 853.9371 2471.1187 M 855.4317 2469.423 L 674.0392 2469.065 M 674.6661 2469.8253 L 675.0044 2361.3573 M 674.3293 2362.3413 L 853.93 2361.9668 M 853.9719 2360.3183 L 854.2119 2469.17 M 855.6816 2469.2328 L 674.91795 2469.06 M 674.6913 2469.5746 L 675.2359 2362.5092" stroke="#199ce8" stroke-linecap="round" stroke-linejoin="round" stroke-width="4"/>
        <text transform="translate(680 2396.7592)" fill="black">
          <tspan font-family="Verdana" font-size="16" fill="black" x="12.957031" y="16">Convert to JSONL </tspan>
          <tspan font-family="Verdana" font-size="16" fill="black" x="72.03125" y="35">file</tspan>
        </text>
      </g>
      <g id="Line_48">
        <path d="M 755.8172 2184.8347 L 763.318 2343.1815 M 756.4248 2184.3296 L 763.8453 2341.6483" marker-end="url(#FilledArrow_Marker)" stroke="#199ce8" stroke-linecap="round" stroke-linejoin="round" stroke-width="4"/>
      </g>
      <g id="Line_47">
        <path d="M 760.93185 2467.3693 L 756.8951 2504.4185 M 761.8046 2466.91 L 757.976 2502.9093" marker-end="url(#FilledArrow_Marker)" stroke="#199ce8" stroke-linecap="round" stroke-linejoin="round" stroke-width="4"/>
      </g>
      <g id="Graphic_51">
        <rect x="665" y="2522.7592" width="178" height="106" fill="#dde9f5"/>
        <path d="M 663.3644 2522.7558 L 845.1257 2523.1313 M 843.1537 2521.757 L 843.9249 2629.321 M 845.583 2627.9034 L 662.9205 2628.2848 M 664.2614 2629.314 L 665.0132 2520.8586 M 663.6147 2522.3528 L 843.4139 2522.6772 M 843.51 2521.5063 L 844.3033 2627.656 M 845.8335 2627.9014 L 664.5187 2628.096 M 664.5079 2629.064 L 665.18545 2522.5088" stroke="#199ce8" stroke-linecap="round" stroke-linejoin="round" stroke-width="4"/>
        <text transform="translate(670 2547.2592)" fill="black">
          <tspan font-family="Verdana" font-size="16" fill="black" x="46.375" y="16">Import in </tspan>
          <tspan font-family="Verdana" font-size="16" fill="black" x="40.35547" y="35">TypeSense</tspan>
          <tspan font-family="Verdana" font-size="16" fill="black" x="21.375" y="54">index (via Curl)</tspan>
        </text>
      </g>
      <g id="Line_52">
        <path d="M 747.9854 2004.9728 L 750.4905 2062.0177 M 748.5241 2004.471 L 750.8279 2057.6322" marker-end="url(#FilledArrow_Marker)" stroke="#199ce8" stroke-linecap="round" stroke-linejoin="round" stroke-width="4"/>
      </g>
      <g id="Graphic_55">
        <title>Rectangle</title>
        <path d="M 702.3 2730.7592 L 829.7 2730.7592 C 844.7696 2730.7592 857 2743.7512 857 2759.7592 C 857 2775.7672 844.7696 2788.7592 829.7 2788.7592 L 702.3 2788.7592 C 687.2304 2788.7592 675 2775.7672 675 2759.7592 C 675 2743.7512 687.2304 2730.7592 702.3 2730.7592 Z" fill="#dde9f5"/>
        <path d="M 700.7337 2730.759 L 830.7212 2730.764 C 846.1689 2730.952 855.6762 2745.0636 857 2759.7592 C 856.1356 2775.5516 845.4761 2788.6904 829.7 2788.7592 M 830.9857 2788.7592 L 699.7324 2788.7575 C 687.5083 2789.2153 676.343 2775.557 675 2759.7592 C 675.2975 2745.1227 686.1834 2731.8164 702.3 2730.7592 M 700.9837 2730.3906 L 829.0799 2730.348 C 846.6689 2730.452 856.1762 2744.5636 857.5 2759.2592 C 856.6356 2775.0516 845.9761 2788.1904 830.2 2788.2592 M 831.2357 2788.7142 L 701.5602 2788.5684 C 688.0083 2788.7153 676.843 2775.057 675.5 2759.2592 C 675.7975 2744.6227 686.6834 2731.3164 702.8 2730.2592" stroke="#199ce8" stroke-linecap="round" stroke-linejoin="round" stroke-width="4"/>
        <text transform="translate(680 2750.2592)" fill="black">
          <tspan font-family="Verdana" font-size="16" fill="black" x="68.79297" y="16">END</tspan>
        </text>
      </g>
      <g id="Line_56">
        <path d="M 757.37985 2628.4204 L 764.8218 2712.4597 M 758.3478 2627.879 L 765.4296 2708.1883" marker-end="url(#FilledArrow_Marker_3)" stroke="#199ce8" stroke-linecap="round" stroke-linejoin="round" stroke-width="4"/>
      </g>
      <g id="Graphic_57">
        <text transform="translate(782.5977 330)" fill="black">
          <tspan font-family="Courier New" font-size="16" fill="black" x="14.402344" y="13">The scraper needs a list of url&#x2019;s</tspan>
          <tspan font-family="Courier New" font-size="16" fill="black" x="0" y="31">(= sitemap), usually in website root</tspan>
        </text>
      </g>
      <g id="Line_59">
        <path d="M 965.3245 371 C 968.9073 385.8653 969.4547 407.0663 957 432 C 953.0806 439.84647 948.167 447.4753 942.6749 454.75696" marker-end="url(#Arrow_Marker)" stroke="black" stroke-linecap="round" stroke-linejoin="round" stroke-width="1"/>
      </g>
      <g id="Graphic_60">
        <a xlink:href="https://github.com/WebOfTrust/WOT-terms/blob/main/scrapers/createSitemapGithub.js">
          <text transform="translate(434.1953 1131)" fill="black">
            <tspan font-family="Courier New" font-size="16" fill="black" x="0" y="13">createSitemapGithub.js</tspan>
          </text>
        </a>
      </g>
      <g id="Graphic_61">
        <a xlink:href="https://github.com/WebOfTrust/WOT-terms/blob/main/scrapers/modules/extractMainContent.mjs">
          <text transform="translate(476.3425 919)" fill="black">
            <tspan font-family="Courier New" font-size="16" fill="black" x="0" y="13">extractMainContent.mjs</tspan>
          </text>
        </a>
      </g>
      <g id="Graphic_62">
        <a xlink:href="https://github.com/WebOfTrust/WOT-terms/blob/main/scrapers/modules/extractMainContent.mjs">
          <text transform="translate(764.9773 1702)" fill="black">
            <tspan font-family="Courier New" font-size="16" fill="black" x="0" y="13">extractMainContent.mjs</tspan>
          </text>
        </a>
      </g>
      <g id="Graphic_63">
        <a xlink:href="https://github.com/WebOfTrust/WOT-terms/blob/main/scrapers/modules/createOutput.mjs">
          <text transform="translate(913.8916 2037.457)" fill="black">
            <tspan font-family="Courier New" font-size="16" fill="black" x="0" y="13">createOutput.mjs</tspan>
          </text>
        </a>
      </g>
      <g id="Graphic_64">
        <a xlink:href="https://github.com/WebOfTrust/WOT-terms/blob/main/scrapers/import.sh">
          <text transform="translate(929 2472.2493)" fill="black">
            <tspan font-family="Courier New" font-size="16" fill="black" x="0" y="13">import.sh</tspan>
          </text>
        </a>
      </g>
      <g id="Line_66">
        <path d="M 958.4828 2467.2493 C 950.1121 2462.2398 936.6485 2456.1276 915 2449.3183 C 899.7075 2444.508 882.1951 2439.9364 864.6417 2435.803" marker-end="url(#Arrow_Marker)" stroke="black" stroke-linecap="round" stroke-linejoin="round" stroke-width="1"/>
      </g>
      <g id="Line_67">
        <path d="M 1000.0065 2495.2493 C 1017.5217 2506.8297 1030.7597 2523.83 995 2539.3183 C 964.7792 2552.4075 906.511 2561.408 854.8401 2567.189" marker-end="url(#Arrow_Marker)" stroke="black" stroke-linecap="round" stroke-linejoin="round" stroke-width="1"/>
      </g>
      <g id="Line_68">
        <path d="M 991.7308 2032.457 C 991.7737 2019.4808 989.4151 2000.2985 977 1987.457 C 963.9308 1973.939 943.6713 1971.5372 930.8828 1971.5434" marker-end="url(#Arrow_Marker)" stroke="black" stroke-linecap="round" stroke-linejoin="round" stroke-width="1"/>
      </g>
      <g id="Line_69">
        <path d="M 866.7056 1697 C 861.9363 1690.1029 852.0628 1681.0357 832 1670.6667 C 825.2852 1667.1963 817.8951 1663.8209 810.17525 1660.588" marker-end="url(#Arrow_Marker)" stroke="black" stroke-linecap="round" stroke-linejoin="round" stroke-width="1"/>
      </g>
      <g id="Line_70">
        <path d="M 598.0164 1126 C 613.61965 1123.2823 630.5524 1120.4001 647.2334 1117.596" marker-end="url(#Arrow_Marker)" stroke="black" stroke-linecap="round" stroke-linejoin="round" stroke-width="1"/>
      </g>
      <g id="Line_71">
        <path d="M 591.328 942 C 592.7994 950.2825 587.49004 960.8693 560 969.8169 C 541.651 975.7892 516.33115 980.0837 490.83326 983.1527" marker-end="url(#Arrow_Marker)" stroke="black" stroke-linecap="round" stroke-linejoin="round" stroke-width="1"/>
      </g>
      <g id="Graphic_73">
        <a xlink:href="https://github.com/WebOfTrust/WOT-terms/blob/main/scrapers/modules/extractMainContent.mjs">
          <text transform="translate(1133 1281.7399)" fill="black">
            <tspan font-family="Courier New" font-size="16" fill="black" x="9.601562" y="13">Collect url&#x2019;s via</tspan>
            <tspan font-family="Courier New" font-size="16" fill="black" x="0" y="31">custom script using</tspan>
            <tspan font-family="Courier New" font-size="16" fill="black" x="14.402344" y="49">querySelectorAll</tspan>
          </text>
        </a>
      </g>
      <g id="Line_72">
        <path d="M 1214.3151 1276.7399 C 1211.9076 1270.5326 1209.085 1264.1628 1205.8739 1258.3786" marker-end="url(#Arrow_Marker)" stroke="black" stroke-linecap="round" stroke-linejoin="round" stroke-width="1"/>
      </g>
      <g id="Graphic_75">
        <a xlink:href="https://github.com/WebOfTrust/WOT-terms/tree/main/scrapers">
          <text transform="translate(739 217)" fill="black">
            <tspan font-family="Courier New" font-size="16" fill="black" x="0" y="13">Using a collection</tspan>
            <tspan font-family="Courier New" font-size="16" fill="black" x="38.40625" y="31">of scripts</tspan>
          </text>
        </a>
      </g>
      <g id="Line_74">
        <path d="M 816.608 212 C 807.8757 197.90508 790.8225 182.76962 758 184 C 738.3253 184.73752 715.995 191.24268 694.8209 199.68368" marker-end="url(#Arrow_Marker)" stroke="black" stroke-linecap="round" stroke-linejoin="round" stroke-width="1"/>
      </g>
      <g id="Graphic_81">
        <a xlink:href="https://github.com/WebOfTrust/WOT-terms/blob/main/scrapers/sites/medium.com.mjs#L53">
          <text transform="translate(863 1293)" fill="black">
            <tspan font-family="Courier New" font-size="12" fill="black" x="25.204102" y="10">Manually create</tspan>
            <tspan font-family="Courier New" font-size="12" fill="black" x="21.603516" y="24">a list of url&#x2019;s,</tspan>
            <tspan font-family="Courier New" font-size="12" fill="black" x="7.201172" y="38">or write a letter to</tspan>
            <tspan font-family="Courier New" font-size="12" fill="black" x="0" y="52">the website owner, etc</tspan>
          </text>
        </a>
      </g>
      <g id="Line_80">
        <path d="M 911.9661 1354 C 908.5948 1368.0123 905.4229 1382.9496 902.7517 1396.2832" marker-end="url(#Arrow_Marker)" stroke="black" stroke-linecap="round" stroke-linejoin="round" stroke-width="1"/>
      </g>
      <g id="Line_83">
        <path d="M 391.8787 1031.9801 C 396.8021 1151.2016 416.6611 1539.5694 478.3425 1730.457 C 505.34927 1818.7876 532.88357 1850.3473 556.1364 1855.5716 M 391.8787 1031.9801 C 397.8021 1150.2016 417.6611 1538.5694 479.3425 1729.457 C 506.34927 1817.7876 533.88357 1849.3473 557.1364 1854.5716" marker-end="url(#FilledArrow_Marker_3)" stroke="#199ce8" stroke-linecap="round" stroke-linejoin="round" stroke-width="4"/>
      </g>
      <g id="Graphic_84">
        <path d="M 757.5 1220 L 826 1282.5 L 757.5 1345 L 689 1282.5 Z" fill="#dde9f5"/>
        <path d="M 756.9957 1219.531 L 826.645 1284.309 M 826.5733 1282.526 L 756.2051 1345.9946 M 757.6426 1345.6602 L 687.22005 1281.7668 M 687.9081 1283.7822 L 758.3324 1219.237 M 757.4116 1219.1026 L 826.0443 1282.9513 M 826.978 1282.4476 L 757.495 1345.0765 M 757.8211 1345.489 L 688.85316 1282.9077 M 688.0043 1283.3644 L 757.6504 1219.6414" stroke="#199ce8" stroke-linecap="round" stroke-linejoin="round" stroke-width="4"/>
        <text transform="translate(712.495 1262.802)" fill="black">
          <tspan font-family="Helvetica Neue" font-size="16" fill="black" x="11.847" y="15">Does that </tspan>
          <tspan font-family="Helvetica Neue" font-size="16" fill="black" x="24.455" y="33.448">work?</tspan>
        </text>
      </g>
      <g id="Line_85">
        <title>Line</title>
        <path d="M 750.0427 1336.8829 L 718.50705 1557.5284 M 750.76035 1336.414 L 719.4626 1554.3466" marker-end="url(#FilledArrow_Marker_3)" stroke="#199ce8" stroke-linecap="round" stroke-linejoin="round" stroke-width="4"/>
      </g>
      <g id="Graphic_86">
        <rect x="829.9426" y="1408" width="130" height="60" fill="#dde9f5"/>
        <path d="M 828.5386 1408.0034 L 960.4042 1407.6861 M 959.0554 1406.798 L 959.5423 1469.5995 M 960.4227 1468.6703 L 828.0359 1467.791 M 829.1977 1469.1063 L 829.9625 1406.3722 M 828.7881 1407.527 L 959.3121 1407.3496 M 959.347 1406.5477 L 959.8452 1468.414 M 960.6724 1468.465 L 829.4625 1467.72 M 829.4414 1468.8563 L 829.9948 1407.7476" stroke="#199ce8" stroke-linecap="round" stroke-linejoin="round" stroke-width="4"/>
        <text transform="translate(834.9426 1419)" fill="black">
          <tspan font-family="Verdana" font-size="16" fill="black" x="9.230469" y="16">Find another </tspan>
          <tspan font-family="Verdana" font-size="16" fill="black" x="43.91406" y="35">way</tspan>
        </text>
      </g>
      <g id="Line_87">
        <path d="M 788.0269 1317.1154 L 857.6683 1391.975 M 788.6627 1316.4891 L 856.5749 1389.34" marker-end="url(#FilledArrow_Marker_3)" stroke="#199ce8" stroke-linecap="round" stroke-linejoin="round" stroke-width="4"/>
      </g>
      <g id="Graphic_88">
        <rect x="717.8662" y="1428.6011" width="35.184" height="28.447998" fill="white"/>
        <text transform="translate(722.8662 1433.6011)" fill="black">
          <tspan font-family="Helvetica Neue" font-size="16" fill="black" x="552447e-18" y="15">Yes</tspan>
        </text>
      </g>
      <g id="Graphic_89">
        <rect x="806.1811" y="1340.7399" width="30.736" height="28.447998" fill="white"/>
        <text transform="translate(811.1811 1345.7399)" fill="black">
          <tspan font-family="Helvetica Neue" font-size="16" fill="black" x="39257486e-20" y="15">No</tspan>
        </text>
      </g>
      <g id="Line_90">
        <path d="M 889.9691 1470 C 884.0586 1494.0878 870.6781 1535.2994 840 1564 C 832.6731 1570.9731 824.3451 1577.8921 816.7241 1584.184 M 889.9691 1470 C 885.0586 1493.0878 871.6781 1534.2994 841 1563 C 833.6731 1569.9731 825.3451 1576.8921 817.7241 1583.184" marker-end="url(#FilledArrow_Marker_3)" stroke="#199ce8" stroke-linecap="round" stroke-linejoin="round" stroke-width="4"/>
      </g>
      <g id="Graphic_92">
        <a xlink:href="https://github.com/WebOfTrust/WOT-terms/blob/main/scrapers/createSitemap.js">
          <text transform="translate(456 1078)" fill="black">
            <tspan font-family="Courier New" font-size="16" fill="black" x="0" y="13">createSitemap.js</tspan>
          </text>
        </a>
      </g>
      <g id="Line_91">
        <path d="M 614.625 1085.5983 C 625.34515 1086.7059 636.32504 1087.8883 647.1579 1089.087" marker-end="url(#Arrow_Marker)" stroke="black" stroke-linecap="round" stroke-linejoin="round" stroke-width="1"/>
      </g>
      <g id="Graphic_93">
        <text transform="translate(499 1104.9944)" fill="black">
          <tspan font-family="Courier New" font-size="16" fill="black" x="0" y="13">OR</tspan>
        </text>
      </g>
      <g id="Graphic_94">
        <text transform="translate(488 1168)" fill="black">
          <tspan font-family="Courier New" font-size="16" fill="black" x="62.410156" y="13">OR</tspan>
          <tspan font-family="Courier New" font-size="16" fill="black" x="43.20703" y="31">use an </tspan>
          <tspan font-family="Courier New" font-size="16" fill="black" x="0" y="49">earlier version</tspan>
        </text>
      </g>
      <g id="Line_95">
        <path d="M 637.0234 1196.4508 C 642.8301 1194.5298 648.8379 1192.0812 655 1189 C 668.9707 1182.0142 682.0113 1172.638 693.6484 1162.6062" marker-end="url(#Arrow_Marker)" stroke="black" stroke-linecap="round" stroke-linejoin="round" stroke-width="1"/>
      </g>
      <g id="Graphic_97">
        <text transform="translate(1070 1345.7399)" fill="black">
          <tspan font-family="Courier New" font-size="16" fill="black" x="62.410156" y="13">OR</tspan>
          <tspan font-family="Courier New" font-size="16" fill="black" x="43.20703" y="31">use an </tspan>
          <tspan font-family="Courier New" font-size="16" fill="black" x="0" y="49">earlier version</tspan>
        </text>
      </g>
      <g id="Line_96">
        <path d="M 1129.6597 1340.7399 C 1125.2131 1328.1668 1120.4481 1313.3317 1117 1299 C 1112.6884 1281.0792 1111.4639 1268.219 1111.3042 1259.8952" marker-end="url(#Arrow_Marker)" stroke="black" stroke-linecap="round" stroke-linejoin="round" stroke-width="1"/>
      </g>
      <g id="Graphic_122">
        <text transform="translate(1050 580.0056)" fill="black">
          <tspan font-family="Courier New" font-weight="bold" font-size="50" fill="black" x="0" y="42">1. </tspan>
          <tspan font-family="Courier New" font-weight="bold" font-size="50" fill="#212529" y="42">Obtaining</tspan>
          <tspan font-family="Courier New" font-weight="bold" font-size="50" fill="#212529" x="15.002441" y="99">sitemap.xml</tspan>
        </text>
      </g>
      <g id="Graphic_123">
        <text transform="translate(979.0049 1760.2285)" fill="black">
          <tspan font-family="Courier New" font-weight="bold" font-size="50" fill="black" x="0" y="42">2. Scraping</tspan>
          <tspan font-family="Courier New" font-weight="bold" font-size="50" fill="black" x="45.007324" y="99">all URLs</tspan>
          <tspan font-family="Courier New" font-weight="bold" font-size="50" fill="black" x="15.002441" y="156">in sitemap</tspan>
        </text>
      </g>
      <g id="Graphic_125">
        <text transform="translate(949 2602)" fill="black">
          <tspan font-family="Courier New" font-weight="bold" font-size="50" fill="black" x="0" y="42">3. Importing</tspan>
          <tspan font-family="Courier New" font-weight="bold" font-size="50" fill="black" x="0" y="99">content into</tspan>
          <tspan font-family="Courier New" font-weight="bold" font-size="50" fill="black" x="0" y="156">search index</tspan>
        </text>
      </g>
    </g>
  </g>
</svg>
